/* XPM */
static char * closeA_xpm[] = {
"19 38 139 2",
"  	c None",
". 	c #FFFFFF",
"+ 	c #CFCFCF",
"@ 	c #D0D0D0",
"# 	c #D1D1D1",
"$ 	c #D3D3D3",
"% 	c #D4D4D4",
"& 	c #D6D6D6",
"* 	c #D7D7D7",
"= 	c #D9D9D9",
"- 	c #DADADA",
"; 	c #DCDCDC",
"> 	c #DDDDDD",
", 	c #DEDEDE",
"' 	c #E0E0E0",
") 	c #E3E3E3",
"! 	c #E4E4E4",
"~ 	c #B8B8B8",
"{ 	c #FDFDFD",
"] 	c #E1E1E1",
"^ 	c #FCFCFC",
"/ 	c #E6E6E6",
"( 	c #FBFBFB",
"_ 	c #424242",
": 	c #444444",
"< 	c #454545",
"[ 	c #E7E7E7",
"} 	c #E9E9E9",
"| 	c #F9F9F9",
"1 	c #434343",
"2 	c #EAEAEA",
"3 	c #F8F8F8",
"4 	c #464646",
"5 	c #ECECEC",
"6 	c #F7F7F7",
"7 	c #EDEDED",
"8 	c #F5F5F5",
"9 	c #EEEEEE",
"0 	c #F4F4F4",
"a 	c #F0F0F0",
"b 	c #F3F3F3",
"c 	c #474747",
"d 	c #F1F1F1",
"e 	c #F2F2F2",
"f 	c #484848",
"g 	c #EFEFEF",
"h 	c #F6F6F6",
"i 	c #EBEBEB",
"j 	c #FAFAFA",
"k 	c #919191",
"l 	c #8D8D8D",
"m 	c #AAAAAA",
"n 	c #B1B1B1",
"o 	c #B7B7B7",
"p 	c #BEBEBE",
"q 	c #C4C4C4",
"r 	c #CBCBCB",
"s 	c #D8D8D8",
"t 	c #E5E5E5",
"u 	c #8F8F8F",
"v 	c #969696",
"w 	c #9B9B9B",
"x 	c #A3A3A3",
"y 	c #A8A8A8",
"z 	c #B0B0B0",
"A 	c #B6B6B6",
"B 	c #BDBDBD",
"C 	c #D2D2D2",
"D 	c #A9A9A9",
"E 	c #909090",
"F 	c #9D9D9D",
"G 	c #C6C6C6",
"H 	c #CCCCCC",
"I 	c #989898",
"J 	c #A5A5A5",
"K 	c #ABABAB",
"L 	c #B2B2B2",
"M 	c #B9B9B9",
"N 	c #C0C0C0",
"O 	c #CDCDCD",
"P 	c #D5D5D5",
"Q 	c #DBDBDB",
"R 	c #A7A7A7",
"S 	c #929292",
"T 	c #9F9F9F",
"U 	c #343434",
"V 	c #363636",
"W 	c #BBBBBB",
"X 	c #C1C1C1",
"Y 	c #C7C7C7",
"Z 	c #404040",
"` 	c #A6A6A6",
" .	c #939393",
"..	c #9A9A9A",
"+.	c #A0A0A0",
"@.	c #333333",
"#.	c #393939",
"$.	c #C2C2C2",
"%.	c #C9C9C9",
"&.	c #3F3F3F",
"*.	c #414141",
"=.	c #959595",
"-.	c #A2A2A2",
";.	c #373737",
">.	c #3B3B3B",
",.	c #3D3D3D",
"'.	c #9C9C9C",
").	c #353535",
"!.	c #3E3E3E",
"~.	c #979797",
"{.	c #A4A4A4",
"].	c #383838",
"^.	c #3C3C3C",
"/.	c #9E9E9E",
"(.	c #3A3A3A",
"_.	c #999999",
":.	c #ACACAC",
"<.	c #A1A1A1",
"[.	c #C5C5C5",
"}.	c #BFBFBF",
"|.	c #CECECE",
"1.	c #C8C8C8",
"2.	c #ADADAD",
"3.	c #B4B4B4",
"4.	c #C3C3C3",
"5.	c #CACACA",
"6.	c #E8E8E8",
"7.	c #616161",
"8.	c #656565",
"9.	c #686868",
"0.	c #6C6C6C",
"a.	c #707070",
"b.	c #737373",
"c.	c #777777",
"d.	c #7B7B7B",
"e.	c #7F7F7F",
"f.	c #828282",
"g.	c #868686",
"h.	c #8A8A8A",
". . . . . . . . . . . . . . . . . . + ",
". + @ # $ % & * = - ; > , ' ) ! ! ! ~ ",
". + @ # $ % & * = - ; > , ' ) ! ! ! ~ ",
"{ @ # $ % & * = - ; > , ' ] ) ! ! ! ~ ",
"^ # $ % & * = - ; > , ' ] ) ! / / / ~ ",
"( $ % & * _ _ ; > , ' : < ! / [ } } ~ ",
"| % & * _ _ _ 1 , ' : < < < [ } 2 2 ~ ",
"3 & * = _ _ 1 1 : : < < < 4 } 2 5 5 ~ ",
"6 * = - ; 1 1 : : < < < 4 } 2 5 7 7 ~ ",
"8 = - ; > , : : < < < 4 } 2 5 7 9 9 ~ ",
"0 - ; > , ' : < < < 4 4 2 5 7 9 a a ~ ",
"b ; > , ' : < < < 4 4 c c 7 9 a d d ~ ",
"e > , ' : < < < 4 4 c c f f a d b b ~ ",
"a , ' ] < < < 4 } 2 c f f f d b 0 0 ~ ",
"g ' ] ) ! < 4 } 2 5 7 f f d b 0 h h ~ ",
"9 ] ) ! / [ } 2 5 7 9 a d b 0 h 6 6 ~ ",
"5 ) ! / [ } 2 5 7 9 a d b 0 h 6 | | ~ ",
"i / [ } 2 5 7 9 a d b 0 h 6 | j ^ ^ ~ ",
"k k k k k k k k k k k k l k k k k k k ",
"m n o p q r # s , t i e | . { { { { + ",
"m u v w x y z A B q r C s ' ! ! ! ! ~ ",
"m u v w x y z A B q r C s ' ! ! ! ! ~ ",
"D E v F x m z ~ p G H $ - ] ) ! ! ! ~ ",
"y E I F J K L M N G O P Q ) ! / / / ~ ",
"R S I T J U V W X Y + Z 1 ! / [ } } ~ ",
"`  ...+.@.U V #.$.%.&.*.1 < [ } 2 2 ~ ",
"J =...-.@.U ;.#.>.,.Z *.1 4 } 2 5 5 ~ ",
"J =.'.-.m ).;.#.>.!.Z *.: } 2 5 7 7 ~ ",
"x ~.'.{.m z ].#.^.!.Z _ ) 2 5 7 9 9 ~ ",
"x ~./.{.K L ].(.^.!.*._ ! 5 7 9 a a ~ ",
"-._./.J :.V #.(.^.&.*.1 < 7 9 a d d ~ ",
"<._.T ` U ;.#.(.,.&.*.1 4 f a d b b ~ ",
"+...+.R ).;.#.>.r C *.: 4 f d b 0 0 ~ ",
"T w <.D z ;.(.[.H % Q : 4 d b 0 h h ~ ",
"T '.x m n ~ }.G |.P ; ! i b 0 h 6 6 ~ ",
"F F {.K L M N 1.+ & > t 7 0 h 6 | | ~ ",
"F T ` 2.3.W 4.5.# = ' 6.a 6 | j ^ ^ ~ ",
"7.8.9.0.a.b.c.d.e.f.g.h.l k k k k k k "};
