/* XPM */
static char * frameABL_xpm[] = {
"13 13 5 1",
" 	c None",
".	c #5F5354",
"+	c #FFFFFF",
"@	c #434343",
"#	c #63595A",
".+@          ",
".+@          ",
".+@          ",
".+@          ",
".+@          ",
".+@          ",
".+@          ",
".+@          ",
".+@          ",
".+@          ",
".+...........",
".++++++++++++",
"#@@@@@@@@@@@@"};
