/* XPM */
static char * frameABR_xpm[] = {
"13 13 4 1",
" 	c None",
".	c #5F5354",
"+	c #FFFFFF",
"@	c #434343",
"          .+@",
"          .+@",
"          .+@",
"          .+@",
"          .+@",
"          .+@",
"          .+@",
"          .+@",
"          .+@",
"          .+@",
"...........+@",
"++++++++++++@",
"@@@@@@@@@@@@@"};
