/* XPM */
static char * titleAM_xpm[] = {
"96 19 543 2",
"  	c None",
". 	c #CAE3C6",
"+ 	c #ADD2A7",
"@ 	c #96BF8F",
"# 	c #97BF90",
"$ 	c #99C192",
"% 	c #9AC293",
"& 	c #98C091",
"* 	c #9BC295",
"= 	c #9DC396",
"- 	c #9EC498",
"; 	c #99C193",
"> 	c #9FC499",
", 	c #A1C59A",
"' 	c #9BC294",
") 	c #A2C69C",
"! 	c #A3C79D",
"~ 	c #9CC396",
"{ 	c #A5C89F",
"] 	c #A6C9A1",
"^ 	c #A7C9A1",
"/ 	c #9DC397",
"( 	c #A9CAA3",
"_ 	c #AACBA4",
": 	c #ABCCA6",
"< 	c #ADCDA8",
"[ 	c #A0C599",
"} 	c #AECEA8",
"| 	c #B0CFAB",
"1 	c #A1C69B",
"2 	c #B1CFAB",
"3 	c #B2D0AD",
"4 	c #B3D1AF",
"5 	c #A2C79D",
"6 	c #B5D2B0",
"7 	c #B6D3B1",
"8 	c #A4C89D",
"9 	c #92BA8B",
"0 	c #91BA8A",
"a 	c #93BB8C",
"b 	c #94BC8E",
"c 	c #96BC8F",
"d 	c #97BE91",
"e 	c #93BB8D",
"f 	c #99BF92",
"g 	c #94BB8D",
"h 	c #9AC093",
"i 	c #95BC8E",
"j 	c #9CC196",
"k 	c #95BC8F",
"l 	c #9DC196",
"m 	c #96BD8F",
"n 	c #9EC298",
"o 	c #97BD90",
"p 	c #A0C39A",
"q 	c #A1C49B",
"r 	c #98BE91",
"s 	c #A3C59D",
"t 	c #98BF92",
"u 	c #A4C69E",
"v 	c #A5C7A0",
"w 	c #9ABF93",
"x 	c #A7C8A2",
"y 	c #9BC094",
"z 	c #A8C8A2",
"A 	c #AAC9A5",
"B 	c #9BC095",
"C 	c #ABCAA6",
"D 	c #ADCBA7",
"E 	c #AECCA9",
"F 	c #B0CDAA",
"G 	c #9EC297",
"H 	c #B1CEAC",
"I 	c #9FC299",
"J 	c #B2CFAD",
"K 	c #8BB484",
"L 	c #8DB687",
"M 	c #8CB585",
"N 	c #8FB788",
"O 	c #8DB686",
"P 	c #90B789",
"Q 	c #92B88B",
"R 	c #8EB687",
"S 	c #93B98C",
"T 	c #94BA8E",
"U 	c #96BC90",
"V 	c #98BC91",
"W 	c #90B88A",
"X 	c #99BD93",
"Y 	c #91B88B",
"Z 	c #9BBE95",
"` 	c #9CBF96",
" .	c #92B98C",
"..	c #9DC098",
"+.	c #9FC19A",
"@.	c #94B98D",
"#.	c #A1C29B",
"$.	c #A2C39C",
"%.	c #95BA8F",
"&.	c #A4C59F",
"*.	c #96BB90",
"=.	c #A6C5A0",
"-.	c #A6C6A1",
";.	c #97BC90",
">.	c #A8C7A3",
",.	c #AAC8A5",
"'.	c #98BD92",
").	c #ABC9A6",
"!.	c #ACC9A7",
"~.	c #99BE94",
"{.	c #AECAA9",
"].	c #9ABE94",
"^.	c #AFCBAA",
"/.	c #86AF7F",
"(.	c #87B081",
"_.	c #89B182",
":.	c #86AF80",
"<.	c #8AB284",
"[.	c #8CB385",
"}.	c #88B081",
"|.	c #8DB487",
"1.	c #89B183",
"2.	c #8FB589",
"3.	c #90B68B",
"4.	c #92B78C",
"5.	c #8BB385",
"6.	c #94B88E",
"7.	c #95B990",
"8.	c #8CB486",
"9.	c #97BA91",
"0.	c #98BC93",
"a.	c #8EB588",
"b.	c #9ABD95",
"c.	c #9CBE96",
"d.	c #9DBE98",
"e.	c #8FB689",
"f.	c #9FC099",
"g.	c #90B68A",
"h.	c #A0C09B",
"i.	c #91B68B",
"j.	c #A1C19D",
"k.	c #A4C39F",
"l.	c #A5C4A1",
"m.	c #93B88D",
"n.	c #A6C5A1",
"o.	c #A8C6A3",
"p.	c #94B88F",
"q.	c #AAC7A5",
"r.	c #95B98F",
"s.	c #AAC7A6",
"t.	c #80AA7A",
"u.	c #81AA7A",
"v.	c #83AC7D",
"w.	c #85AD7E",
"x.	c #82AB7C",
"y.	c #86AD80",
"z.	c #87AE82",
"A.	c #8AB084",
"B.	c #84AC7E",
"C.	c #8BB185",
"D.	c #8CB286",
"E.	c #86AD7F",
"F.	c #8FB489",
"G.	c #90B48A",
"H.	c #87AE81",
"I.	c #91B58C",
"J.	c #94B78F",
"K.	c #88AF82",
"L.	c #95B78F",
"M.	c #89AF83",
"N.	c #96B891",
"O.	c #99BA93",
"P.	c #9ABB95",
"Q.	c #9BBC96",
"R.	c #8CB186",
"S.	c #9DBD98",
"T.	c #9FBF9B",
"U.	c #8DB387",
"V.	c #A0BF9B",
"W.	c #8EB388",
"X.	c #A2C09D",
"Y.	c #A3C19F",
"Z.	c #8FB48A",
"`.	c #A5C2A1",
" +	c #A7C3A2",
".+	c #91B58B",
"++	c #7BA474",
"@+	c #7AA473",
"#+	c #7DA677",
"$+	c #7FA778",
"%+	c #7CA575",
"&+	c #80A87A",
"*+	c #83AA7C",
"=+	c #7EA677",
"-+	c #84AB7D",
";+	c #85AC7F",
">+	c #88AD81",
",+	c #80A879",
"'+	c #89AE83",
")+	c #81A87A",
"!+	c #8BAF84",
"~+	c #81A97B",
"{+	c #8CB086",
"]+	c #82A97B",
"^+	c #8EB188",
"/+	c #90B38A",
"(+	c #84AA7D",
"_+	c #92B48C",
":+	c #84AB7E",
"<+	c #93B58E",
"[+	c #85AB7F",
"}+	c #95B690",
"|+	c #86AC80",
"1+	c #97B791",
"2+	c #87AC80",
"3+	c #99B994",
"4+	c #87AD80",
"5+	c #9ABA95",
"6+	c #88AD82",
"7+	c #9CBB97",
"8+	c #89AE82",
"9+	c #9DBC99",
"0+	c #A0BD9A",
"a+	c #8AAF84",
"b+	c #A1BE9C",
"c+	c #8BAF85",
"d+	c #A2BF9D",
"e+	c #73A16B",
"f+	c #76A26F",
"g+	c #74A16C",
"h+	c #78A271",
"i+	c #75A26E",
"j+	c #7AA373",
"k+	c #7DA476",
"l+	c #77A270",
"m+	c #7EA578",
"n+	c #80A679",
"o+	c #82A87C",
"p+	c #84A97D",
"q+	c #7BA374",
"r+	c #86AA7F",
"s+	c #7CA375",
"t+	c #87AC82",
"u+	c #89AD83",
"v+	c #7DA477",
"w+	c #8BAE85",
"x+	c #8DAF87",
"y+	c #7FA579",
"z+	c #8FB089",
"A+	c #90B18A",
"B+	c #81A67A",
"C+	c #92B38D",
"D+	c #82A77B",
"E+	c #94B48F",
"F+	c #96B590",
"G+	c #83A87D",
"H+	c #97B692",
"I+	c #99B894",
"J+	c #84AA7E",
"K+	c #9BB996",
"L+	c #9DBA97",
"M+	c #86AB80",
"N+	c #9FBB9A",
"O+	c #87AB81",
"P+	c #9FBC9B",
"Q+	c #709F69",
"R+	c #729F6B",
"S+	c #74A06D",
"T+	c #78A171",
"U+	c #739F6C",
"V+	c #7AA173",
"W+	c #7CA276",
"X+	c #759F6E",
"Y+	c #7EA278",
"Z+	c #76A070",
"`+	c #7FA479",
" @	c #81A57C",
".@	c #78A072",
"+@	c #84A77E",
"@@	c #79A073",
"#@	c #85A880",
"$@	c #7AA174",
"%@	c #87A982",
"&@	c #7BA175",
"*@	c #89AA83",
"=@	c #8BAC86",
"-@	c #7DA277",
";@	c #8CAD87",
">@	c #8EAE89",
",@	c #7FA379",
"'@	c #90AF8B",
")@	c #92B18D",
"!@	c #80A47A",
"~@	c #94B28F",
"{@	c #81A57B",
"]@	c #96B491",
"^@	c #98B593",
"/@	c #83A67D",
"(@	c #99B694",
"_@	c #83A77E",
":@	c #9BB796",
"<@	c #9DB998",
"[@	c #85A87F",
"}@	c #9EBA99",
"|@	c #6E9C66",
"1@	c #6F9C67",
"2@	c #729D6B",
"3@	c #6F9C68",
"4@	c #749D6E",
"5@	c #719C69",
"6@	c #779E70",
"7@	c #799F73",
"8@	c #7C9F76",
"9@	c #749D6D",
"0@	c #7EA078",
"a@	c #80A27A",
"b@	c #769E6F",
"c@	c #81A37C",
"d@	c #83A47E",
"e@	c #789E71",
"f@	c #85A57F",
"g@	c #87A782",
"h@	c #7A9F73",
"i@	c #89A883",
"j@	c #7B9F75",
"k@	c #8AA985",
"l@	c #8DAB87",
"m@	c #7CA076",
"n@	c #8FAC89",
"o@	c #90AD8B",
"p@	c #7EA179",
"q@	c #92AE8C",
"r@	c #94B08F",
"s@	c #95B190",
"t@	c #81A37B",
"u@	c #97B392",
"v@	c #99B494",
"w@	c #82A47D",
"x@	c #9BB696",
"y@	c #9DB799",
"z@	c #84A57E",
"A@	c #6C9965",
"B@	c #6B9964",
"C@	c #6F9A68",
"D@	c #719A6A",
"E@	c #6D9A66",
"F@	c #739B6D",
"G@	c #769C70",
"H@	c #789C72",
"I@	c #709A69",
"J@	c #7A9D74",
"K@	c #729B6C",
"L@	c #7D9E78",
"M@	c #739B6C",
"N@	c #7F9F7A",
"O@	c #749B6E",
"P@	c #81A17B",
"Q@	c #759B6E",
"R@	c #82A27D",
"S@	c #769C6F",
"T@	c #85A37F",
"U@	c #779C71",
"V@	c #87A581",
"W@	c #789D71",
"X@	c #88A684",
"Y@	c #799D73",
"Z@	c #8AA785",
"`@	c #7A9D73",
" #	c #8CA988",
".#	c #7B9E75",
"+#	c #8EAA89",
"@#	c #7C9E76",
"##	c #90AC8C",
"$#	c #7C9E77",
"%#	c #92AD8D",
"&#	c #7E9F79",
"*#	c #93AE8F",
"=#	c #95AF91",
"-#	c #98B193",
";#	c #80A07B",
">#	c #99B395",
",#	c #82A17C",
"'#	c #9BB496",
")#	c #82A17D",
"!#	c #6A9562",
"~#	c #6D9765",
"{#	c #6B9563",
"]#	c #6E9867",
"^#	c #6C9664",
"/#	c #709869",
"(#	c #74996D",
"_#	c #6E9767",
":#	c #769A6F",
"<#	c #789A72",
"[#	c #7A9B74",
"}#	c #7C9C77",
"|#	c #71996A",
"1#	c #7E9D7A",
"2#	c #73986C",
"3#	c #819E7C",
"4#	c #83A07E",
"5#	c #84A180",
"6#	c #87A382",
"7#	c #769A70",
"8#	c #89A484",
"9#	c #8AA585",
"0#	c #789B72",
"a#	c #8DA788",
"b#	c #8EA889",
"c#	c #90AA8B",
"d#	c #7B9C75",
"e#	c #92AB8D",
"f#	c #94AD8F",
"g#	c #7D9D77",
"h#	c #95AE91",
"i#	c #97AF93",
"j#	c #7F9D7A",
"k#	c #99B195",
"l#	c #809E7B",
"m#	c #9AB196",
"n#	c #689161",
"o#	c #6A9263",
"p#	c #6C9465",
"q#	c #6E9567",
"r#	c #6A9364",
"s#	c #70966A",
"t#	c #6B9364",
"u#	c #72976C",
"v#	c #759870",
"w#	c #6D9466",
"x#	c #779872",
"y#	c #7A9A74",
"z#	c #6F9568",
"A#	c #7C9A77",
"B#	c #6F9569",
"C#	c #7E9B79",
"D#	c #71966A",
"E#	c #809C7B",
"F#	c #71976B",
"G#	c #829D7D",
"H#	c #73976D",
"I#	c #859F80",
"J#	c #86A182",
"K#	c #74976E",
"L#	c #88A284",
"M#	c #769870",
"N#	c #8AA486",
"O#	c #769871",
"P#	c #8CA588",
"Q#	c #789973",
"R#	c #8DA68A",
"S#	c #90A88C",
"T#	c #92A98E",
"U#	c #7A9A75",
"V#	c #93AB90",
"W#	c #7B9A76",
"X#	c #95AC91",
"Y#	c #7D9B78",
"Z#	c #98AE94",
"`#	c #99AF95",
" $	c #668D5F",
".$	c #668D60",
"+$	c #699064",
"@$	c #678E61",
"#$	c #6B9166",
"$$	c #688F62",
"%$	c #6D9268",
"&$	c #698F63",
"*$	c #6F9369",
"=$	c #72956C",
"-$	c #6B9165",
";$	c #74956E",
">$	c #769771",
",$	c #6D9167",
"'$	c #799874",
")$	c #7B9876",
"!$	c #7D9979",
"~$	c #809A7C",
"{$	c #70936A",
"]$	c #829C7E",
"^$	c #71946B",
"/$	c #849D80",
"($	c #869F82",
"_$	c #73956D",
":$	c #88A084",
"<$	c #8AA286",
"[$	c #759670",
"}$	c #8BA387",
"|$	c #8EA58A",
"1$	c #779672",
"2$	c #8FA68C",
"3$	c #799774",
"4$	c #91A88E",
"5$	c #93A990",
"6$	c #7A9875",
"7$	c #96AB92",
"8$	c #97AC94",
"9$	c #7C9877",
"0$	c #65895F",
"a$	c #64895E",
"b$	c #688B62",
"c$	c #6A8D63",
"d$	c #668A60",
"e$	c #6B8E65",
"f$	c #6E8F68",
"g$	c #688C62",
"h$	c #70916A",
"i$	c #698C62",
"j$	c #72926C",
"k$	c #6A8D64",
"l$	c #75936F",
"m$	c #779572",
"n$	c #6C8E66",
"o$	c #799574",
"p$	c #6C8E67",
"q$	c #7B9776",
"r$	c #6D8F67",
"s$	c #7E9779",
"t$	c #6E9069",
"u$	c #80997B",
"v$	c #6F906A",
"w$	c #82997D",
"x$	c #70916B",
"y$	c #849B80",
"z$	c #71926B",
"A$	c #869D82",
"B$	c #72936C",
"C$	c #889E84",
"D$	c #73936D",
"E$	c #8AA087",
"F$	c #74936F",
"G$	c #8CA289",
"H$	c #759470",
"I$	c #8EA38A",
"J$	c #769471",
"K$	c #90A58C",
"L$	c #92A78F",
"M$	c #789573",
"N$	c #94A890",
"O$	c #799675",
"P$	c #96A992",
"Q$	c #7A9675",
"R$	c #719F69",
". . . . . . . . . . . . . . . . . . . . . . . . . . . . . . . . . . . . . . . . . . . . . . . . . . . . . . . . . . . . . . . . . . . . . . . . . . . . . . . . . . . . . . . . . . . . . . . . ",
"+ + + + + + + + + + + + + + + + + + + + + + + + + + + + + + + + + + + + + + + + + + + + + + + + + + + + + + + + + + + + + + + + + + + + + + + + + + + + + + + + + + + + + + + + + + + + + + + + ",
"@ @ # @ @ @ $ # @ @ % & @ @ * $ @ @ = $ @ @ - ; @ @ > % @ @ , ' @ @ ) * @ @ ! ~ @ @ { = @ @ ] = @ @ ^ / @ @ ( - @ @ _ - @ @ : > @ @ < [ @ @ } , @ @ | 1 @ @ 2 ) @ @ 3 ) @ @ 4 5 @ @ 6 ! @ @ 7 8 ",
"@ # @ @ @ $ # @ @ % & @ @ * $ @ @ = $ @ @ - ; @ @ > % @ @ , ' @ @ ) * @ @ ! ~ @ @ { = @ @ ] = @ @ ^ / @ @ ( - @ @ _ - @ @ : > @ @ < [ @ @ } , @ @ | 1 @ @ 2 ) @ @ 3 ) @ @ 4 5 @ @ 6 ! @ @ 7 8 @ ",
"9 0 0 0 a 9 0 0 b 9 0 0 c a 0 0 d e 0 0 f g 0 0 h i 0 0 j k 0 0 l m 0 0 n o 0 0 p o 0 0 q r 0 0 s t 0 0 u f 0 0 v w 0 0 x y 0 0 z y 0 0 A B 0 0 C j 0 0 D j 0 0 E l 0 0 F G 0 0 H I 0 0 J I 0 0 ",
"K K K L M K K N O K K P L K K Q R K K S N K K T P K K U P K K V W K K X Y K K Z Q K K `  .K K ..S K K +.@.K K #.T K K $.%.K K &.*.K K =.U K K -.;.K K >.V K K ,.'.K K ).X K K !.~.K K {.].K K ^.",
"/./.(./././._.:././.<.(././.[.}././.|.1././.2.1././.3.<././.4.5././.6.5././.7.8././.9.|././.0.a././.b.a././.c.2././.d.e././.f.g././.h.i././.j.4././.k.4././.l.m././.n.m././.o.p././.q.r././.s.7.",
"t.u.t.t.t.v.u.t.t.w.x.t.t.y.x.t.t.z.v.t.t.A.B.t.t.C.w.t.t.D.E.t.t.F.y.t.t.G.H.t.t.I.z.t.t.J.K.t.t.L.M.t.t.N.A.t.t.O.A.t.t.P.C.t.t.Q.R.t.t.S.D.t.t.T.U.t.t.V.W.t.t.X.F.t.t.Y.Z.t.t.`.G.t.t. +.+t.",
"++@+@+@+#+++@+@+$+%+@+@+&+#+@+@+*+=+@+@+-+=+@+@+;+$+@+@+>+,+@+@+'+)+@+@+!+~+@+@+{+]+@+@+^+*+@+@+/+(+@+@+_+:+@+@+<+[+@+@+}+|+@+@+1+2+@+@+3+4+@+@+5+6+@+@+7+8+@+@+9+'+@+@+0+a+@+@+b+c+@+@+d+{+@+@+",
"e+e+e+f+g+e+e+h+i+e+e+j+f+e+e+k+l+e+e+m+h+e+e+n+j+e+e+o+j+e+e+p+q+e+e+r+s+e+e+t+k+e+e+u+v+e+e+w+m+e+e+x+y+e+e+z+n+e+e+A+B+e+e+C+D+e+e+E+o+e+e+F+G+e+e+H+p+e+e+I+J+e+e+K+r+e+e+L+M+e+e+N+O+e+e+P+",
"Q+Q+R+Q+Q+Q+S+R+Q+Q+T+U+Q+Q+V+S+Q+Q+W+X+Q+Q+Y+Z+Q+Q+`+T+Q+Q+ @.@Q+Q++@@@Q+Q+#@$@Q+Q+%@&@Q+Q+*@W+Q+Q+=@-@Q+Q+;@Y+Q+Q+>@,@Q+Q+'@`+Q+Q+)@!@Q+Q+~@{@Q+Q+]@ @Q+Q+^@/@Q+Q+(@_@Q+Q+:@+@Q+Q+<@[@Q+Q+}@#@",
"|@1@|@|@|@2@3@|@|@4@5@|@|@6@2@|@|@7@2@|@|@8@9@|@|@0@4@|@|@a@b@|@|@c@6@|@|@d@e@|@|@f@7@|@|@g@h@|@|@i@j@|@|@k@8@|@|@l@m@|@|@n@0@|@|@o@p@|@|@q@a@|@|@r@a@|@|@s@t@|@|@u@c@|@|@v@w@|@|@x@d@|@|@y@z@|@",
"A@B@B@B@C@A@B@B@D@E@B@B@F@C@B@B@G@C@B@B@H@I@B@B@J@K@B@B@L@M@B@B@N@O@B@B@P@Q@B@B@R@S@B@B@T@U@B@B@V@W@B@B@X@Y@B@B@Z@`@B@B@ #.#B@B@+#@#B@B@##$#B@B@%#&#B@B@*#&#B@B@=#N@B@B@-#;#B@B@>#,#B@B@'#)#B@B@",
"!#!#!#~#{#!#!#]#^#!#!#/#~#!#!#(#_#!#!#:#]#!#!#<#/#!#!#[#/#!#!#}#|#!#!#1#2#!#!#3#(#!#!#4#(#!#!#5#:#!#!#6#7#!#!#8#<#!#!#9#0#!#!#a#[#!#!#b#[#!#!#c#d#!#!#e#}#!#!#f#g#!#!#h#1#!#!#i#j#!#!#k#l#!#!#m#",
"n#n#o#n#n#n#p#o#n#n#q#r#n#n#s#t#n#n#u#p#n#n#v#w#n#n#x#q#n#n#y#z#n#n#A#B#n#n#C#D#n#n#E#F#n#n#G#H#n#n#I#H#n#n#J#K#n#n#L#M#n#n#N#O#n#n#P#Q#n#n#R#Q#n#n#S#y#n#n#T#U#n#n#V#W#n#n#X#Y#n#n#Z#Y#n#n#`#C#",
" $.$ $ $ $+$@$ $ $#$$$ $ $%$&$ $ $*$+$ $ $=$-$ $ $;$#$ $ $>$,$ $ $'$%$ $ $)$*$ $ $!$*$ $ $~${$ $ $]$^$ $ $/$=$ $ $($_$ $ $:$;$ $ $<$[$ $ $}$>$ $ $|$1$ $ $2$3$ $ $4$'$ $ $5$6$ $ $7$)$ $ $8$9$ $",
"0$a$a$a$b$0$a$a$c$d$a$a$e$b$a$a$f$g$a$a$h$i$a$a$j$k$a$a$l$e$a$a$m$n$a$a$o$p$a$a$q$r$a$a$s$t$a$a$u$v$a$a$w$x$a$a$y$z$a$a$A$B$a$a$C$D$a$a$E$F$a$a$G$H$a$a$I$J$a$a$K$m$a$a$L$M$a$a$N$O$a$a$P$Q$a$a$",
"a$a$a$b$0$a$a$c$d$a$a$e$b$a$a$f$g$a$a$h$i$a$a$j$k$a$a$l$e$a$a$m$n$a$a$o$p$a$a$q$r$a$a$s$t$a$a$u$v$a$a$w$x$a$a$y$z$a$a$A$B$a$a$C$D$a$a$E$F$a$a$G$H$a$a$I$J$a$a$K$m$a$a$L$M$a$a$N$O$a$a$P$Q$a$a$P$",
"R$R$R$R$R$R$R$R$R$R$R$R$R$R$R$R$R$R$R$R$R$R$R$R$R$R$R$R$R$R$R$R$R$R$R$R$R$R$R$R$R$R$R$R$R$R$R$R$R$R$R$R$R$R$R$R$R$R$R$R$R$R$R$R$R$R$R$R$R$R$R$R$R$R$R$R$R$R$R$R$R$R$R$R$R$R$R$R$R$R$R$R$R$R$R$R$"};
