/* XPM */
static char * titleAR_xpm[] = {
"2 19 20 1",
" 	c None",
".	c #F6AC80",
"+	c #66381D",
"@	c #F08C56",
"#	c #DD763E",
"$	c #D7713A",
"%	c #D16C35",
"&	c #C86A33",
"*	c #BC6634",
"=	c #B16034",
"-	c #AC5B2E",
";	c #A55A2F",
">	c #A0562F",
",	c #9B562E",
"'	c #96542E",
")	c #90522F",
"!	c #8A502F",
"~	c #854D2F",
"{	c #824A2D",
"]	c #A6582F",
".+",
"@+",
"#+",
"#+",
"$+",
"%+",
"&+",
"*+",
"=+",
"-+",
";+",
">+",
",+",
"'+",
")+",
"!+",
"~+",
"{+",
"]+"};
