/* XPM */
static char * frameATR_xpm[] = {
"13 13 5 1",
" 	c None",
".	c #5F5354",
"+	c #63595A",
"@	c #FFFFFF",
"#	c #434343",
"............+",
"@@@@@@@@@@@@#",
"##########.@#",
"          .@#",
"          .@#",
"          .@#",
"          .@#",
"          .@#",
"          .@#",
"          .@#",
"          .@#",
"          .@#",
"          .@#"};
