/* XPM */
static char * minimizeI_xpm[] = {
"19 38 22 1",
" 	c None",
".	c #FFFFFF",
"+	c #DBDBDB",
"@	c #DADADA",
"#	c #D9D9D9",
"$	c #D7D7D7",
"%	c #D5D5D5",
"&	c #D4D4D4",
"*	c #D2D2D2",
"=	c #D1D1D1",
"-	c #CFCFCF",
";	c #B7B7B7",
">	c #979797",
",	c #CECECE",
"'	c #969696",
")	c #CCCCCC",
"!	c #CBCBCB",
"~	c #B4B4B4",
"{	c #959595",
"]	c #C9C9C9",
"^	c #C8C8C8",
"/	c #828282",
"...................",
"+++++++++++++++++++",
"+++++++++++++++++++",
"@@@@@@@@@@@@@@@@@@@",
"###################",
"$$$$$$$$$$$$$$$$$$$",
"%%%%%%%%%%%%%%%%%%%",
"%%%%%%%%%%%%%%%%%%%",
"&&&&&&&&&&&&&&&&&&&",
"*******************",
"===================",
"----;>>>>>>>>;-----",
",,,,'''''''''',,,,,",
"))))'''''''''')))))",
"!!!!~{{{{{{{{~!!!!!",
"]]]]]]]]]]]]]]]]]]]",
"]]]]]]]]]]]]]]]]]]]",
"^^^^^^^^^^^^^^^^^^^",
"///////////////////",
"...................",
"+++++++++++++++++++",
"+++++++++++++++++++",
"@@@@@@@@@@@@@@@@@@@",
"###################",
"$$$$$$$$$$$$$$$$$$$",
"%%%%%%%%%%%%%%%%%%%",
"%%%%%%%%%%%%%%%%%%%",
"&&&&&&&&&&&&&&&&&&&",
"*******************",
"===================",
"----;>>>>>>>>;-----",
",,,,'''''''''',,,,,",
"))))'''''''''')))))",
"!!!!~{{{{{{{{~!!!!!",
"]]]]]]]]]]]]]]]]]]]",
"]]]]]]]]]]]]]]]]]]]",
"^^^^^^^^^^^^^^^^^^^",
"///////////////////"};
