/* XPM */
static char * titleAT_xpm[] = {
"1 19 19 1",
" 	c None",
".	c #CEC6EC",
"+	c #B2A7E1",
"@	c #9D91D1",
"#	c #988CCC",
"$	c #9387C7",
"%	c #8F83C3",
"&	c #8A7EBE",
"*	c #8478B9",
"=	c #7D70B8",
"-	c #7B6DB5",
";	c #796BB3",
">	c #7769B0",
",	c #7467AE",
"'	c #7264AB",
")	c #7062A8",
"!	c #6D60A6",
"~	c #695CA5",
"{	c #7B6EB6",
".",
"+",
"@",
"@",
"#",
"$",
"%",
"&",
"*",
"=",
"-",
";",
">",
",",
"'",
")",
"!",
"~",
"{"};
