/* XPM */
static char * titleAM_xpm[] = {
"96 19 544 2",
"  	c None",
". 	c #CEC6EC",
"+ 	c #B2A7E1",
"@ 	c #9D91D1",
"# 	c #9D92D1",
"$ 	c #9F93D2",
"% 	c #A095D3",
"& 	c #9E93D2",
"* 	c #A296D3",
"= 	c #A297D4",
"- 	c #A599D5",
"; 	c #A195D2",
"> 	c #A59AD5",
", 	c #A69CD5",
"' 	c #A196D3",
") 	c #A89DD6",
"! 	c #A99FD6",
"~ 	c #A397D4",
"{ 	c #ABA0D7",
"] 	c #ACA2D8",
"^ 	c #A398D4",
"/ 	c #ADA3D8",
"( 	c #A499D4",
"_ 	c #AEA4D9",
": 	c #AFA6DA",
"< 	c #B1A7DB",
"[ 	c #B2A9DB",
"} 	c #A69BD5",
"| 	c #B3AADB",
"1 	c #B6ACDC",
"2 	c #A89DD5",
"3 	c #B5ADDC",
"4 	c #B8AEDD",
"5 	c #B9B0DD",
"6 	c #A99ED6",
"7 	c #BAB1DE",
"8 	c #BBB2DF",
"9 	c #A99FD7",
"0 	c #998DCC",
"a 	c #988CCC",
"b 	c #9A8ECD",
"c 	c #9C90CE",
"d 	c #998ECC",
"e 	c #9C91CE",
"f 	c #9E93CF",
"g 	c #9B8FCD",
"h 	c #A095D0",
"i 	c #A195D1",
"j 	c #9B90CE",
"k 	c #A398D1",
"l 	c #9D91CE",
"m 	c #A399D1",
"n 	c #9D92CF",
"o 	c #A59AD2",
"p 	c #9E92CF",
"q 	c #A69CD3",
"r 	c #A89DD4",
"s 	c #A99FD4",
"t 	c #9F94D0",
"u 	c #ABA0D5",
"v 	c #ACA2D6",
"w 	c #ADA3D7",
"x 	c #A196D1",
"y 	c #ADA4D7",
"z 	c #B0A7D7",
"A 	c #A297D1",
"B 	c #B0A7D8",
"C 	c #A298D1",
"D 	c #B2A9D9",
"E 	c #A499D1",
"F 	c #B3AAD9",
"G 	c #B4ACDA",
"H 	c #A499D2",
"I 	c #B6AEDB",
"J 	c #A59BD2",
"K 	c #B7AFDC",
"L 	c #9387C7",
"M 	c #968AC8",
"N 	c #9488C7",
"O 	c #968AC9",
"P 	c #9589C8",
"Q 	c #978CC9",
"R 	c #9A8ECA",
"S 	c #9A8FCB",
"T 	c #9C91CC",
"U 	c #988CC9",
"V 	c #9E93CD",
"W 	c #9E94CD",
"X 	c #998DCA",
"Y 	c #9F95CD",
"Z 	c #998ECA",
"` 	c #A298CE",
" .	c #A298CF",
"..	c #9A8ECB",
"+.	c #A49AD0",
"@.	c #A79CD1",
"#.	c #9B90CB",
"$.	c #A79DD2",
"%.	c #A89FD3",
"&.	c #ABA1D3",
"*.	c #9D92CD",
"=.	c #ACA3D3",
"-.	c #ACA3D4",
";.	c #AEA5D5",
">.	c #B0A7D6",
",.	c #B0A8D7",
"'.	c #B2AAD7",
").	c #A196CE",
"!.	c #B3ABD8",
"~.	c #A096CE",
"{.	c #B4ACD9",
"].	c #8F83C3",
"^.	c #9184C3",
"/.	c #9286C4",
"(.	c #9083C3",
"_.	c #9387C5",
":.	c #9285C4",
"<.	c #9489C5",
"[.	c #9185C4",
"}.	c #968AC6",
"|.	c #9386C4",
"1.	c #988DC7",
"2.	c #9A8EC8",
"3.	c #9A8FC9",
"4.	c #9488C5",
"5.	c #9D91C9",
"6.	c #9589C5",
"7.	c #9E93CA",
"8.	c #9F94CB",
"9.	c #A196CC",
"0.	c #978BC7",
"a.	c #A298CD",
"b.	c #968BC7",
"c.	c #A399CE",
"d.	c #988CC7",
"e.	c #A49BCE",
"f.	c #988DC8",
"g.	c #A69CCF",
"h.	c #998DC8",
"i.	c #A79ECF",
"j.	c #998EC8",
"k.	c #A99FD0",
"l.	c #ABA2D1",
"m.	c #ADA3D2",
"n.	c #9C91C9",
"o.	c #ADA4D3",
"p.	c #AEA6D4",
"q.	c #9D92CA",
"r.	c #B1A8D5",
"s.	c #B2A9D5",
"t.	c #8A7EBE",
"u.	c #8B7FBE",
"v.	c #8D81C0",
"w.	c #8E82C0",
"x.	c #8C80BF",
"y.	c #9084C0",
"z.	c #9286C1",
"A.	c #9488C3",
"B.	c #9489C3",
"C.	c #958AC4",
"D.	c #8F83C0",
"E.	c #988DC5",
"F.	c #998EC6",
"G.	c #9085C1",
"H.	c #9B90C6",
"I.	c #9D92C8",
"J.	c #9286C2",
"K.	c #9D93C8",
"L.	c #9387C2",
"M.	c #9F94C9",
"N.	c #A197CB",
"O.	c #A298CB",
"P.	c #A49ACB",
"Q.	c #9589C4",
"R.	c #A59BCC",
"S.	c #A79ECE",
"T.	c #968BC5",
"U.	c #A89ECE",
"V.	c #978CC5",
"W.	c #A9A0CF",
"X.	c #AAA2D0",
"Y.	c #998DC5",
"Z.	c #ADA4D1",
"`.	c #AEA5D1",
" +	c #9A8FC6",
".+	c #8579B9",
"++	c #8478B9",
"@+	c #887BBA",
"#+	c #897DBB",
"$+	c #867ABA",
"%+	c #8A7EBC",
"&+	c #8B80BD",
"*+	c #877BBB",
"=+	c #8D82BE",
"-+	c #887CBB",
";+	c #8E83BF",
">+	c #887DBC",
",+	c #9085C0",
"'+	c #9287C1",
")+	c #9389C1",
"!+	c #8B7FBC",
"~+	c #958AC2",
"{+	c #8B80BC",
"]+	c #978CC3",
"^+	c #8C81BD",
"/+	c #988EC4",
"(+	c #8D82BD",
"_+	c #9990C5",
":+	c #8E82BE",
"<+	c #9C92C6",
"[+	c #8E83BE",
"}+	c #9D93C7",
"|+	c #8F84BF",
"1+	c #9F95C7",
"2+	c #8F85BF",
"3+	c #A197C9",
"4+	c #A399CA",
"5+	c #9186C0",
"6+	c #9186C1",
"7+	c #A59CCC",
"8+	c #A69ECC",
"9+	c #9489C1",
"0+	c #A79FCD",
"a+	c #A9A1CE",
"b+	c #7D70B8",
"c+	c #8073B7",
"d+	c #7E71B7",
"e+	c #8276B7",
"f+	c #7F72B8",
"g+	c #8478B7",
"h+	c #877BB8",
"i+	c #8175B8",
"j+	c #887DB9",
"k+	c #8A7EBA",
"l+	c #8B81BB",
"m+	c #8D82BC",
"n+	c #8579B8",
"o+	c #8E84BD",
"p+	c #857AB8",
"q+	c #9186BE",
"r+	c #9288BF",
"s+	c #877CB8",
"t+	c #9489C0",
"u+	c #958CC1",
"v+	c #897EB9",
"w+	c #978DC2",
"x+	c #988FC3",
"y+	c #8A7FBA",
"z+	c #9B91C4",
"A+	c #8B80BB",
"B+	c #9C93C5",
"C+	c #9E94C6",
"D+	c #8D81BC",
"E+	c #9F96C7",
"F+	c #A198C8",
"G+	c #8E83BD",
"H+	c #A29AC8",
"I+	c #A39BC9",
"J+	c #9085BD",
"K+	c #A69DCA",
"L+	c #A79ECB",
"M+	c #7B6DB5",
"N+	c #7D70B5",
"O+	c #7F72B5",
"P+	c #7E70B5",
"Q+	c #8276B6",
"R+	c #7E71B5",
"S+	c #8478B6",
"T+	c #8072B5",
"U+	c #877CB6",
"V+	c #8073B5",
"W+	c #887DB6",
"X+	c #8275B5",
"Y+	c #8A7FB7",
"Z+	c #8C81B8",
"`+	c #8377B5",
" @	c #8D83BA",
".@	c #8478B5",
"+@	c #9085BA",
"@@	c #8579B5",
"#@	c #9187BB",
"$@	c #867AB5",
"%@	c #9288BC",
"&@	c #958BBE",
"*@	c #978CBF",
"=@	c #988EBF",
"-@	c #897EB7",
";@	c #9A90C0",
">@	c #9B92C2",
",@	c #8B80B8",
"'@	c #9D93C3",
")@	c #9E96C4",
"!@	c #A097C4",
"~@	c #8C82B9",
"{@	c #A199C5",
"]@	c #8E83BA",
"^@	c #A29AC6",
"/@	c #8E84BA",
"(@	c #A59DC8",
"_@	c #8F84BA",
":@	c #A59DC9",
"<@	c #796BB3",
"[@	c #796CB3",
"}@	c #7C70B3",
"|@	c #7B6EB3",
"1@	c #8073B3",
"2@	c #7B6FB3",
"3@	c #8276B3",
"4@	c #7D70B3",
"5@	c #8478B3",
"6@	c #867CB3",
"7@	c #7F72B3",
"8@	c #887EB3",
"9@	c #8980B5",
"0@	c #8175B3",
"a@	c #8C82B6",
"b@	c #8D83B7",
"c@	c #8277B3",
"d@	c #8F85B7",
"e@	c #9187B9",
"f@	c #8479B3",
"g@	c #9289BA",
"h@	c #857BB3",
"i@	c #938ABB",
"j@	c #958DBC",
"k@	c #867CB4",
"l@	c #978EBD",
"m@	c #9890BE",
"n@	c #897FB4",
"o@	c #9992BF",
"p@	c #9C94C1",
"q@	c #8B80B5",
"r@	c #9E95C1",
"s@	c #8B81B6",
"t@	c #9F97C2",
"u@	c #A199C3",
"v@	c #A29BC5",
"w@	c #A59DC6",
"x@	c #8E84B7",
"y@	c #776AB0",
"z@	c #7769B0",
"A@	c #7A6EB0",
"B@	c #7C70B0",
"C@	c #786BB0",
"D@	c #7E72B0",
"E@	c #8276B1",
"F@	c #8378B1",
"G@	c #7B6FB1",
"H@	c #857BB1",
"I@	c #7E71B1",
"J@	c #887EB2",
"K@	c #7D71B1",
"L@	c #8A80B2",
"M@	c #8074B1",
"N@	c #8B82B3",
"O@	c #7F74B1",
"P@	c #8C83B4",
"Q@	c #8075B1",
"R@	c #8E86B5",
"S@	c #8277B1",
"T@	c #9087B7",
"U@	c #928AB8",
"V@	c #847AB1",
"W@	c #948BB8",
"X@	c #978DBA",
"Y@	c #867CB1",
"Z@	c #988FBB",
"`@	c #877DB1",
" #	c #9A91BD",
".#	c #877DB2",
"+#	c #9B93BD",
"@#	c #897FB2",
"##	c #9D95BE",
"$#	c #9E96BF",
"%#	c #A098C1",
"&#	c #8C82B3",
"*#	c #A19AC2",
"=#	c #8C83B3",
"-#	c #A39CC2",
";#	c #8D83B4",
">#	c #7467AE",
",#	c #776AAE",
"'#	c #7468AE",
")#	c #796DAE",
"!#	c #7669AE",
"~#	c #7A6FAE",
"{#	c #7D73AE",
"]#	c #796DAD",
"^#	c #7F75AE",
"/#	c #8278AE",
"(#	c #7B6FAE",
"_#	c #857BAF",
":#	c #887EAF",
"<#	c #7C71AE",
"[#	c #8A80B0",
"}#	c #7E73AE",
"|#	c #8C83B0",
"1#	c #8D85B2",
"2#	c #7F74AE",
"3#	c #8F86B3",
"4#	c #9189B5",
"5#	c #8176AF",
"6#	c #928AB5",
"7#	c #938CB6",
"8#	c #8379AF",
"9#	c #968EB8",
"0#	c #9790B9",
"a#	c #9891BA",
"b#	c #867CAF",
"c#	c #9A93BB",
"d#	c #9D95BD",
"e#	c #877EB0",
"f#	c #9E97BE",
"g#	c #A199BF",
"h#	c #8980B0",
"i#	c #A29BBF",
"j#	c #8A82B0",
"k#	c #A29BC0",
"l#	c #7264AB",
"m#	c #7467AB",
"n#	c #786BAB",
"o#	c #796DAB",
"p#	c #7568AB",
"q#	c #7C71AC",
"r#	c #7669AB",
"s#	c #7E73AC",
"t#	c #776BAB",
"u#	c #8177AC",
"v#	c #786CAC",
"w#	c #8379AC",
"x#	c #857BAD",
"y#	c #7A6EAC",
"z#	c #877EAD",
"A#	c #7B70AB",
"B#	c #8981AE",
"C#	c #7B71AC",
"D#	c #8B83AE",
"E#	c #7D72AC",
"F#	c #8C85AF",
"G#	c #8E87B1",
"H#	c #7F74AC",
"I#	c #9089B2",
"J#	c #8075AC",
"K#	c #938BB3",
"L#	c #8077AC",
"M#	c #948CB5",
"N#	c #8278AD",
"O#	c #978FB6",
"P#	c #847AAD",
"Q#	c #9890B6",
"R#	c #9A93B8",
"S#	c #9B94B9",
"T#	c #857CAD",
"U#	c #9D96BB",
"V#	c #867DAD",
"W#	c #9E97BB",
"X#	c #8980AE",
"Y#	c #A09ABD",
"Z#	c #8880AE",
"`#	c #A39BBE",
" $	c #7062A8",
".$	c #7164A8",
"+$	c #7669A8",
"@$	c #7265A8",
"#$	c #786BA8",
"$$	c #7366A9",
"%$	c #7A6EA9",
"&$	c #7467A8",
"*$	c #7B70A9",
"=$	c #7F74AA",
"-$	c #766AA9",
";$	c #8076AA",
">$	c #8278AA",
",$	c #786CA9",
"'$	c #857CAB",
")$	c #877EAB",
"!$	c #7A6FA9",
"~$	c #8A81AB",
"{$	c #8C84AC",
"]$	c #7C71A9",
"^$	c #8E86AE",
"/$	c #7D72A9",
"($	c #8F88AE",
"_$	c #928AB0",
":$	c #7F75A9",
"<$	c #938BB1",
"[$	c #958DB3",
"}$	c #8177AA",
"|$	c #968FB3",
"1$	c #9891B5",
"2$	c #8379AA",
"3$	c #9993B6",
"4$	c #857CAA",
"5$	c #9C95B7",
"6$	c #9D96B8",
"7$	c #867DAB",
"8$	c #A099BA",
"9$	c #A19ABB",
"0$	c #877FAB",
"a$	c #6E62A5",
"b$	c #6D60A6",
"c$	c #7166A5",
"d$	c #7368A6",
"e$	c #6F63A5",
"f$	c #756BA6",
"g$	c #786EA6",
"h$	c #7367A6",
"i$	c #7A71A7",
"j$	c #7267A6",
"k$	c #7E74A7",
"l$	c #7569A5",
"m$	c #7F76A8",
"n$	c #766BA6",
"o$	c #837AA8",
"p$	c #766CA6",
"q$	c #847CA8",
"r$	c #786DA6",
"s$	c #867EA9",
"t$	c #776DA6",
"u$	c #8981A9",
"v$	c #7A6FA7",
"w$	c #8B84AA",
"x$	c #7B71A6",
"y$	c #8C86AB",
"z$	c #7C72A7",
"A$	c #8E88AC",
"B$	c #7D73A7",
"C$	c #908AAE",
"D$	c #938CAF",
"E$	c #7F75A7",
"F$	c #958EB0",
"G$	c #8076A8",
"H$	c #9690B2",
"I$	c #8178A8",
"J$	c #9892B3",
"K$	c #8279A8",
"L$	c #9993B4",
"M$	c #9C96B6",
"N$	c #847BA9",
"O$	c #9D97B7",
"P$	c #867DA9",
"Q$	c #9E99B8",
"R$	c #857DA9",
"S$	c #7B6EB6",
". . . . . . . . . . . . . . . . . . . . . . . . . . . . . . . . . . . . . . . . . . . . . . . . . . . . . . . . . . . . . . . . . . . . . . . . . . . . . . . . . . . . . . . . . . . . . . . . ",
"+ + + + + + + + + + + + + + + + + + + + + + + + + + + + + + + + + + + + + + + + + + + + + + + + + + + + + + + + + + + + + + + + + + + + + + + + + + + + + + + + + + + + + + + + + + + + + + + + ",
"@ @ # @ @ @ $ # @ @ % & @ @ * $ @ @ = $ @ @ - ; @ @ > % @ @ , ' @ @ ) * @ @ ! ~ @ @ { = @ @ ] ^ @ @ / ( @ @ _ - @ @ : - @ @ < > @ @ [ } @ @ | , @ @ 1 2 @ @ 3 ) @ @ 4 ) @ @ 5 6 @ @ 7 ! @ @ 8 9 ",
"@ # @ @ @ $ # @ @ % & @ @ * $ @ @ = $ @ @ - ; @ @ > % @ @ , ' @ @ ) * @ @ ! ~ @ @ { = @ @ ] ^ @ @ / ( @ @ _ - @ @ : - @ @ < > @ @ [ } @ @ | , @ @ 1 2 @ @ 3 ) @ @ 4 ) @ @ 5 6 @ @ 7 ! @ @ 8 9 @ ",
"0 a a a b 0 a a c d a a e b a a f g a a h g a a i j a a k l a a m n a a o p a a q p a a r f a a s t a a u h a a v h a a w x a a y x a a z A a a B C a a D E a a F m a a G H a a I J a a K J a a ",
"L L L M N L L O P L L Q M L L R M L L S O L L T U L L V Q L L W X L L Y Z L L ` R L L  ...L L +.S L L @.#.L L $.T L L %.T L L &.*.L L =.V L L -.V L L ;.W L L >.Y L L ,.Y L L '.).L L !.~.L L {.",
"].].^.].].]./.(.].]._.:.].].<.[.].].}.|.].].1./.].].2._.].].3.4.].].5.6.].].7.}.].].8.}.].].9.0.].].a.b.].].c.d.].].e.f.].].g.h.].].i.j.].].k.3.].].l.3.].].m.n.].].o.n.].].p.q.].].r.q.].].s.7.",
"t.u.t.t.t.v.u.t.t.w.x.t.t.y.x.t.t.z.v.t.t.A.w.t.t.B.w.t.t.C.D.t.t.E.y.t.t.F.G.t.t.H.z.t.t.I.J.t.t.K.L.t.t.M.A.t.t.N.A.t.t.O.B.t.t.P.Q.t.t.R.C.t.t.S.T.t.t.U.V.t.t.W.E.t.t.X.Y.t.t.Z.F.t.t.`. +t.",
".+++++++@+.+++++#+$+++++%+@+++++&+*+++++=+-+++++;+>+++++,+%+++++'+%+++++)+!+++++~+{+++++]+^+++++/+(+++++_+:+++++<+[+++++}+|+++++1+2+++++3+,+++++4+5+++++P.6+++++7+'+++++8+9+++++0+9+++++a+~+++++",
"b+b+b+c+d+b+b+e+f+b+b+g+c+b+b+h+i+b+b+j+e+b+b+k+g+b+b+l+g+b+b+m+n+b+b+o+p+b+b+q+h+b+b+r+s+b+b+t+j+b+b+u+v+b+b+w+k+b+b+x+y+b+b+z+A+b+b+B+l+b+b+C+D+b+b+E+m+b+b+F+G+b+b+H+o+b+b+I+J+b+b+K+J+b+b+L+",
"M+M+N+M+M+M+O+P+M+M+Q+R+M+M+S+T+M+M+U+V+M+M+W+X+M+M+Y+Q+M+M+Z+`+M+M+ @.@M+M++@@@M+M+#@$@M+M+%@U+M+M+&@W+M+M+*@W+M+M+=@-@M+M+;@Y+M+M+>@,@M+M+'@,@M+M+)@Z+M+M+!@~@M+M+{@]@M+M+^@/@M+M+(@_@M+M+:@+@",
"<@[@<@<@<@}@|@<@<@1@2@<@<@3@4@<@<@5@}@<@<@6@7@<@<@8@1@<@<@9@0@<@<@a@3@<@<@b@c@<@<@d@5@<@<@e@f@<@<@g@h@<@<@i@6@<@<@j@k@<@<@l@8@<@<@m@n@<@<@o@9@<@<@p@q@<@<@r@s@<@<@t@a@<@<@u@b@<@<@v@b@<@<@w@x@<@",
"y@z@z@z@A@y@z@z@B@C@z@z@D@A@z@z@E@A@z@z@F@G@z@z@H@I@z@z@J@K@z@z@L@M@z@z@N@O@z@z@P@Q@z@z@R@S@z@z@T@S@z@z@U@V@z@z@W@V@z@z@X@Y@z@z@Z@`@z@z@ #.#z@z@+#@#z@z@##@#z@z@$#L@z@z@%#&#z@z@*#=#z@z@-#;#z@z@",
">#>#>#,#'#>#>#)#!#>#>#~#,#>#>#{#]#>#>#^#)#>#>#/#(#>#>#_#~#>#>#:#<#>#>#[#}#>#>#|#{#>#>#1#2#>#>#3#^#>#>#4#5#>#>#6#/#>#>#7#8#>#>#9#_#>#>#0#_#>#>#a#b#>#>#c#:#>#>#d#e#>#>#f#[#>#>#g#h#>#>#i#j#>#>#k#",
"l#l#m#l#l#l#n#m#l#l#o#p#l#l#q#r#l#l#s#t#l#l#u#v#l#l#w#o#l#l#x#y#l#l#z#A#l#l#B#C#l#l#D#E#l#l#F#s#l#l#G#H#l#l#I#J#l#l#K#L#l#l#M#N#l#l#O#P#l#l#Q#P#l#l#R#x#l#l#S#T#l#l#U#V#l#l#W#X#l#l#Y#Z#l#l#`#B#",
" $.$ $ $ $+$@$ $ $#$$$ $ $%$&$ $ $*$+$ $ $=$-$ $ $;$#$ $ $>$,$ $ $'$%$ $ $)$!$ $ $~$*$ $ ${$]$ $ $^$/$ $ $($=$ $ $_$:$ $ $<$;$ $ $[$}$ $ $|$>$ $ $1$2$ $ $3$4$ $ $5$'$ $ $6$7$ $ $8$)$ $ $9$0$ $",
"a$b$b$b$c$a$b$b$d$e$b$b$f$c$b$b$g$h$b$b$i$j$b$b$k$l$b$b$m$n$b$b$o$p$b$b$q$r$b$b$s$t$b$b$u$v$b$b$w$x$b$b$y$z$b$b$A$B$b$b$C$k$b$b$D$E$b$b$F$G$b$b$H$I$b$b$J$K$b$b$L$o$b$b$M$N$b$b$O$P$b$b$Q$R$b$b$",
"b$b$b$c$a$b$b$d$e$b$b$f$c$b$b$g$h$b$b$i$j$b$b$k$l$b$b$m$n$b$b$o$p$b$b$q$r$b$b$s$t$b$b$u$v$b$b$w$x$b$b$y$z$b$b$A$B$b$b$C$k$b$b$D$E$b$b$F$G$b$b$H$I$b$b$J$K$b$b$L$o$b$b$M$N$b$b$O$P$b$b$Q$R$b$b$Q$",
"S$S$S$S$S$S$S$S$S$S$S$S$S$S$S$S$S$S$S$S$S$S$S$S$S$S$S$S$S$S$S$S$S$S$S$S$S$S$S$S$S$S$S$S$S$S$S$S$S$S$S$S$S$S$S$S$S$S$S$S$S$S$S$S$S$S$S$S$S$S$S$S$S$S$S$S$S$S$S$S$S$S$S$S$S$S$S$S$S$S$S$S$S$S$S$S$"};
