/* XPM */
static char * titleIT_xpm[] = {
"1 19 19 1",
" 	c None",
".	c #FFFFFF",
"+	c #D7D7D7",
"@	c #D6D6D6",
"#	c #D5D5D5",
"$	c #D4D4D4",
"%	c #D2D2D2",
"&	c #D1D1D1",
"*	c #D0D0D0",
"=	c #CFCFCF",
"-	c #CECECE",
";	c #CCCCCC",
">	c #CBCBCB",
",	c #CACACA",
"'	c #C9C9C9",
")	c #C7C7C7",
"!	c #C6C6C6",
"~	c #C5C5C5",
"{	c #828282",
".",
"+",
"+",
"@",
"#",
"$",
"%",
"&",
"*",
"=",
"-",
";",
">",
",",
"'",
")",
"!",
"~",
"{"};
