/* XPM */
static char * linux5_xpm[] = {
"48 21 665 2",
"  	c None",
". 	c #5C6CCC",
"+ 	c #5A6ACA",
"@ 	c #5D6DCC",
"# 	c #5F6ECD",
"$ 	c #6170CD",
"% 	c #6372CE",
"& 	c #6171CD",
"* 	c #5F6FCD",
"= 	c #5B6AC8",
"- 	c #5968C6",
"; 	c #5968C5",
"> 	c #5968C4",
", 	c #5968C3",
"' 	c #5A69C4",
") 	c #5D6CC6",
"! 	c #6270C9",
"~ 	c #6775CA",
"{ 	c #6E7BCE",
"] 	c #6B79CD",
"^ 	c #6674CB",
"/ 	c #616FCA",
"( 	c #5D6CC8",
"_ 	c #5766C2",
": 	c #5766C1",
"< 	c #5766C0",
"[ 	c #5766BF",
"} 	c #5966C1",
"| 	c #5966C2",
"1 	c #5968C2",
"2 	c #5968C1",
"3 	c #5968C0",
"4 	c #5968BF",
"5 	c #5968BE",
"6 	c #5966BE",
"7 	c #5A69BF",
"8 	c #606DC1",
"9 	c #6976C5",
"0 	c #7581CB",
"a 	c #7E89CF",
"b 	c #828DD1",
"c 	c #7C88CF",
"d 	c #717ECC",
"e 	c #6774C8",
"f 	c #5F6DC6",
"g 	c #5564BD",
"h 	c #5564BB",
"i 	c #5564BA",
"j 	c #5664B9",
"k 	c #5766BA",
"l 	c #5865BA",
"m 	c #5867BD",
"n 	c #5866BE",
"o 	c #5766BE",
"p 	c #5A67BD",
"q 	c #5A68BA",
"r 	c #5C69B9",
"s 	c #5D69B9",
"t 	c #5A68B8",
"u 	c #5A67B7",
"v 	c #5D6AB8",
"w 	c #6572BC",
"x 	c #727EC2",
"y 	c #4F5785",
"z 	c #0C0E17",
"A 	c #090A10",
"B 	c #393F60",
"C 	c #7C86C7",
"D 	c #707DC9",
"E 	c #6270C4",
"F 	c #5B6AC1",
"G 	c #5867C0",
"H 	c #5361B7",
"I 	c #5261B4",
"J 	c #5461B3",
"K 	c #5664B1",
"L 	c #5764B0",
"M 	c #5967B1",
"N 	c #5A68B7",
"O 	c #5B69B9",
"P 	c #5B69BA",
"Q 	c #5968BA",
"R 	c #5968BB",
"S 	c #5B68BB",
"T 	c #5C6ABB",
"U 	c #5D6ABA",
"V 	c #5E6BB7",
"W 	c #5E6BB4",
"X 	c #606DB4",
"Y 	c #636FB5",
"Z 	c #6470B5",
"` 	c #646FB2",
" .	c #646EB1",
"..	c #6571B4",
"+.	c #6672B5",
"@.	c #6570B1",
"#.	c #6670B0",
"$.	c #6570AE",
"%.	c #646FAF",
"&.	c #6571B3",
"*.	c #636EB1",
"=.	c #5F6AAD",
"-.	c #616CAC",
";.	c #6B75B3",
">.	c #7782B9",
",.	c #080910",
"'.	c #020204",
").	c #060507",
"!.	c #19191A",
"~.	c #3A4065",
"{.	c #7A86C9",
"].	c #6774C3",
"^.	c #5C6ABE",
"/.	c #5765BC",
"(.	c #5564BC",
"_.	c #515EB0",
":.	c #5260AF",
"<.	c #5863AC",
"[.	c #5963A5",
"}.	c #56609B",
"|.	c #5963A2",
"1.	c #616DB0",
"2.	c #6370B8",
"3.	c #636FB9",
"4.	c #626EB9",
"5.	c #606DBA",
"6.	c #616DBB",
"7.	c #616EBA",
"8.	c #6570B9",
"9.	c #6672B6",
"0.	c #656FAE",
"a.	c #6069A3",
"b.	c #626BA1",
"c.	c #6A73AA",
"d.	c #6B73A7",
"e.	c #656D9C",
"f.	c #636B99",
"g.	c #6A72A3",
"h.	c #6E77AA",
"i.	c #6B73A4",
"j.	c #666E9C",
"k.	c #646B97",
"l.	c #616993",
"m.	c #6B73A3",
"n.	c #6E76AB",
"o.	c #676FA0",
"p.	c #5C6393",
"q.	c #5D6593",
"r.	c #6E77A6",
"s.	c #7178A4",
"t.	c #3B3B3B",
"u.	c #151416",
"v.	c #4E4E4E",
"w.	c #2D2D2E",
"x.	c #17192C",
"y.	c #838DCA",
"z.	c #6D79C2",
"A.	c #5E6BBC",
"B.	c #5462B8",
"C.	c #4F5BAC",
"D.	c #525EA9",
"E.	c #5B67A6",
"F.	c #8188B7",
"G.	c #FFFFFF",
"H.	c #8991BA",
"I.	c #656EA4",
"J.	c #6B76B2",
"K.	c #6B74B2",
"L.	c #6872B2",
"M.	c #6873B5",
"N.	c #6A75B8",
"O.	c #6A76B9",
"P.	c #6A75B6",
"Q.	c #6B76B4",
"R.	c #6E78B4",
"S.	c #6E78B2",
"T.	c #6870A2",
"U.	c #E5E7F3",
"V.	c #D5D8EA",
"W.	c #686E95",
"X.	c #676D91",
"Y.	c #E7E9F3",
"Z.	c #848BAD",
"`.	c #6D7295",
" +	c #9AA0C1",
".+	c #979CBA",
"++	c #858AAD",
"@+	c #6F7599",
"#+	c #777DA1",
"$+	c #9DA3C2",
"%+	c #777FA4",
"&+	c #4D4C4C",
"*+	c #6E5F35",
"=+	c #635D4A",
"-+	c #626262",
";+	c #0F111F",
">+	c #8891C9",
",+	c #717CC1",
"'+	c #606CBA",
")+	c #5664B7",
"!+	c #5260B5",
"~+	c #4C59A6",
"{+	c #515DA3",
"]+	c #5F68A2",
"^+	c #8288B1",
"/+	c #878EB1",
"(+	c #656B96",
"_+	c #6A719E",
":+	c #656D9A",
"<+	c #636B98",
"[+	c #676F9F",
"}+	c #6D76AA",
"|+	c #6F77AB",
"1+	c #686F9C",
"2+	c #6A719C",
"3+	c #6E769F",
"4+	c #696F95",
"5+	c #BABFD8",
"6+	c #F8F8FB",
"7+	c #626781",
"8+	c #6F738F",
"9+	c #A8ACC7",
"0+	c #64687E",
"a+	c #BBBFD7",
"b+	c #F3F4F9",
"c+	c #76798F",
"d+	c #FDFDFE",
"e+	c #A8ADC8",
"f+	c #656980",
"g+	c #9CA0BC",
"h+	c #9DA3BD",
"i+	c #7D83A5",
"j+	c #7D6224",
"k+	c #DAB414",
"l+	c #E1C117",
"m+	c #7A6217",
"n+	c #06070E",
"o+	c #8A93C4",
"p+	c #7781C1",
"q+	c #5764B4",
"r+	c #525FB1",
"s+	c #4A56A1",
"t+	c #505B9D",
"u+	c #60689D",
"v+	c #8188AD",
"w+	c #878CAA",
"x+	c #5E6381",
"y+	c #9CA1C0",
"z+	c #EEEFF6",
"A+	c #C9CCE1",
"B+	c #6E759B",
"C+	c #AAAFCB",
"D+	c #F4F5F9",
"E+	c #F0F1F7",
"F+	c #9BA0BF",
"G+	c #686C88",
"H+	c #959AB6",
"I+	c #757991",
"J+	c #9398B1",
"K+	c #FCFDFE",
"L+	c #D3D6E6",
"M+	c #D2D4E5",
"N+	c #5A5D6C",
"O+	c #E0E2EE",
"P+	c #C9CCDF",
"Q+	c #777A8E",
"R+	c #DBDDEA",
"S+	c #D6D8E7",
"T+	c #C8CBDE",
"U+	c #DCDEEB",
"V+	c #9FA3BA",
"W+	c #7B819D",
"X+	c #655A46",
"Y+	c #B08B18",
"Z+	c #B8923D",
"`+	c #8D8575",
" @	c #212122",
".@	c #535980",
"+@	c #7F88C1",
"@@	c #6A75B9",
"#@	c #5B67B2",
"$@	c #535FAE",
"%@	c #48549C",
"&@	c #4F5A99",
"*@	c #60689A",
"=@	c #8288AB",
"-@	c #8489A5",
";@	c #7A7E99",
">@	c #A8ADC6",
",@	c #8388A6",
"'@	c #A9ADCA",
")@	c #8C91AE",
"!@	c #989CB6",
"~@	c #969BB4",
"{@	c #7D819C",
"]@	c #73778F",
"^@	c #9397AE",
"/@	c #BFC2D6",
"(@	c #D7D9E7",
"_@	c #9B9FB6",
":@	c #F9F9FC",
"<@	c #5D606F",
"[@	c #A2A6BD",
"}@	c #7D8094",
"|@	c #AEB2C6",
"1@	c #FCFCFD",
"2@	c #595A67",
"3@	c #AFB2C6",
"4@	c #A1A5B8",
"5@	c #535666",
"6@	c #B7B7B6",
"7@	c #BDBCBB",
"8@	c #E2E2E0",
"9@	c #F5F5F3",
"0@	c #242425",
"a@	c #0E0F1A",
"b@	c #7F87B6",
"c@	c #737DBA",
"d@	c #606BB2",
"e@	c #5461AC",
"f@	c #465298",
"g@	c #4E5895",
"h@	c #5E6797",
"i@	c #8187A8",
"j@	c #8387A1",
"k@	c #A4A8C0",
"l@	c #61647C",
"m@	c #6B6F8A",
"n@	c #6F7490",
"o@	c #656981",
"p@	c #B7BBD1",
"q@	c #4A4D5C",
"r@	c #4C4F5F",
"s@	c #EFF0F6",
"t@	c #ABAEC7",
"u@	c #606376",
"v@	c #B7BACE",
"w@	c #EEEFF5",
"x@	c #A9ACC3",
"y@	c #75788B",
"z@	c #A3A6BB",
"A@	c #808398",
"B@	c #808399",
"C@	c #84879A",
"D@	c #A4A8BC",
"E@	c #838698",
"F@	c #8D8F9D",
"G@	c #5D5D5E",
"H@	c #D3D3D3",
"I@	c #E0E0DF",
"J@	c #EFEFEE",
"K@	c #E3E3E2",
"L@	c #696969",
"M@	c #050507",
"N@	c #1F2339",
"O@	c #7E87BC",
"P@	c #6772B3",
"Q@	c #5763AB",
"R@	c #445195",
"S@	c #4B5693",
"T@	c #5C6595",
"U@	c #8086A7",
"V@	c #82869F",
"W@	c #A3A7BF",
"X@	c #686D86",
"Y@	c #7D83A0",
"Z@	c #6E728D",
"`@	c #B8BCD0",
" #	c #B2B5CC",
".#	c #64687C",
"+#	c #C3C7D9",
"@#	c #F4F4F9",
"##	c #81849C",
"$#	c #616374",
"%#	c #F1F2F7",
"&#	c #F0F1F6",
"*#	c #F9FAFC",
"=#	c #646779",
"-#	c #81859D",
";#	c #76798C",
">#	c #E0E2EC",
",#	c #F5F6FA",
"'#	c #656877",
")#	c #7A7A80",
"!#	c #9A9A9A",
"~#	c #DADAD8",
"{#	c #E5E5E4",
"]#	c #F1F1EF",
"^#	c #F7F7F5",
"/#	c #DFDFDE",
"(#	c #060608",
"_#	c #5F6690",
":#	c #6E79B3",
"<#	c #5A66AA",
"[#	c #454F93",
"}#	c #4B5593",
"|#	c #596194",
"1#	c #7E84A7",
"2#	c #8286A3",
"3#	c #777B96",
"4#	c #AEB1C9",
"5#	c #8287A3",
"6#	c #B1B5CD",
"7#	c #8D91AB",
"8#	c #797C93",
"9#	c #6F7289",
"0#	c #B8BCD1",
"a#	c #7E84A1",
"b#	c #6A6F8A",
"c#	c #9B9FB9",
"d#	c #F9F9FB",
"e#	c #666A82",
"f#	c #696D84",
"g#	c #C2C5D8",
"h#	c #D2D4E3",
"i#	c #64677D",
"j#	c #8084A0",
"k#	c #787C92",
"l#	c #B2B6CA",
"m#	c #C7C9DA",
"n#	c #6C6E80",
"o#	c #828282",
"p#	c #D0D0CE",
"q#	c #DDDDDC",
"r#	c #E8E8E6",
"s#	c #F4F4F2",
"t#	c #FAFAF8",
"u#	c #FDFDFB",
"v#	c #545455",
"w#	c #0B0B0D",
"x#	c #2F334F",
"y#	c #747DB5",
"z#	c #5D68A9",
"A#	c #434F92",
"B#	c #475291",
"C#	c #535B91",
"D#	c #7B81A8",
"E#	c #848AA9",
"F#	c #575D7C",
"G#	c #9A9EBA",
"H#	c #C7CADC",
"I#	c #656B8B",
"J#	c #5F6382",
"K#	c #AAAEC7",
"L#	c #F2F3F7",
"M#	c #F6F7FA",
"N#	c #BEC1D6",
"O#	c #6C7195",
"P#	c #6A7195",
"Q#	c #797E9E",
"R#	c #CED0E0",
"S#	c #676D8D",
"T#	c #6B7192",
"U#	c #959AB7",
"V#	c #A7ABC5",
"W#	c #656B8A",
"X#	c #7F84A5",
"Y#	c #7B809D",
"Z#	c #8B8FAA",
"`#	c #A1A5BC",
" $	c #767C92",
".$	c #9F9F9F",
"+$	c #D9D9D7",
"@$	c #E1E1DF",
"#$	c #EBEBE9",
"$$	c #666667",
"%$	c #09090A",
"&$	c #1C1F34",
"*$	c #747EB6",
"=$	c #5E69A8",
"-$	c #414D90",
";$	c #434E8F",
">$	c #49548E",
",$	c #4F578A",
"'$	c #4D5683",
")$	c #535A87",
"!$	c #5A618E",
"~$	c #59608A",
"{$	c #555C84",
"]$	c #565C83",
"^$	c #5A6189",
"/$	c #606692",
"($	c #606892",
"_$	c #5D638C",
":$	c #585F84",
"<$	c #585F85",
"[$	c #5C638D",
"}$	c #616998",
"|$	c #636A9A",
"1$	c #5D6491",
"2$	c #595F88",
"3$	c #5B628B",
"4$	c #626A96",
"5$	c #646C98",
"6$	c #5D658F",
"7$	c #5A6188",
"8$	c #5D648D",
"9$	c #626A95",
"0$	c #606893",
"a$	c #5E658D",
"b$	c #60688E",
"c$	c #62698E",
"d$	c #656C8E",
"e$	c #6A7194",
"f$	c #6D7599",
"g$	c #73633D",
"h$	c #7C745A",
"i$	c #E0E0E0",
"j$	c #E6E6E5",
"k$	c #F0F0EF",
"l$	c #F8F8F6",
"m$	c #FBFBF9",
"n$	c #FAF3DA",
"o$	c #635C40",
"p$	c #383A48",
"q$	c #6F7BB6",
"r$	c #404C8F",
"s$	c #404C8C",
"t$	c #434E8C",
"u$	c #47518B",
"v$	c #49538B",
"w$	c #4E588E",
"x$	c #515B91",
"y$	c #535D92",
"z$	c #535D91",
"A$	c #535D90",
"B$	c #545D92",
"C$	c #555F94",
"D$	c #575F95",
"E$	c #565E93",
"F$	c #555D91",
"G$	c #545D90",
"H$	c #555E93",
"I$	c #545F94",
"J$	c #545D95",
"K$	c #535E93",
"L$	c #545D93",
"M$	c #555F95",
"N$	c #555F96",
"O$	c #545E92",
"P$	c #565F95",
"Q$	c #596294",
"R$	c #5E6798",
"S$	c #66709E",
"T$	c #7C7881",
"U$	c #B2923D",
"V$	c #D6A81F",
"W$	c #C89F18",
"X$	c #5A564E",
"Y$	c #F4F4F3",
"Z$	c #E5CD8B",
"`$	c #8A6507",
" %	c #3D2C05",
".%	c #C1991C",
"+%	c #6776B6",
"@%	c #5B68A7",
"#%	c #3F4A8C",
"$%	c #3F4A8B",
"%%	c #3F4A89",
"&%	c #414C89",
"*%	c #444D8A",
"=%	c #454F8B",
"-%	c #47528B",
";%	c #48528D",
">%	c #49538D",
",%	c #48538E",
"'%	c #4A538E",
")%	c #4A538D",
"!%	c #48538D",
"~%	c #48528E",
"{%	c #4C5690",
"]%	c #555E94",
"^%	c #5D689F",
"/%	c #82766C",
"(%	c #E6B317",
"_%	c #E6B413",
":%	c #E9B410",
"<%	c #856A0A",
"[%	c #818181",
"}%	c #B9A065",
"|%	c #E9B00B",
"1%	c #EAB00B",
"2%	c #F5BD0C",
"3%	c #A58D4E",
"4%	c #5965A2",
"5%	c #3D4888",
"6%	c #3D4887",
"7%	c #3F4A87",
"8%	c #404A87",
"9%	c #404B87",
"0%	c #404A88",
"a%	c #414B87",
"b%	c #444E8A",
"c%	c #4C5790",
"d%	c #57639A",
"e%	c #897556",
"f%	c #ECB50F",
"g%	c #EDB70E",
"h%	c #EEB80C",
"i%	c #E9B50C",
"j%	c #C3B699",
"k%	c #E9E9E7",
"l%	c #D2D1D0",
"m%	c #626263",
"n%	c #644706",
"o%	c #F3BB0C",
"p%	c #F3BA0C",
"q%	c #BE962E",
"r%	c #58629B",
"s%	c #3B4685",
"t%	c #3D4685",
"u%	c #414A87",
"v%	c #46518C",
"w%	c #505B95",
"x%	c #6E6770",
"y%	c #9D7A35",
"z%	c #BD8A10",
"A%	c #DCA40B",
"B%	c #DBA20A",
"C%	c #51380C",
"D%	c #141727",
"E%	c #16192A",
"F%	c #64460E",
"G%	c #E3A90B",
"H%	c #CD9812",
"I%	c #787073",
"J%	c #5967A4",
"K%	c #505B97",
"L%	c #3C4683",
"M%	c #3A4481",
"N%	c #3E4884",
"O%	c #434D88",
"P%	c #4B558E",
"Q%	c #535E97",
"R%	c #5A67A1",
"S%	c #5F6CA7",
"T%	c #605F78",
"U%	c #60524C",
"V%	c #636A93",
"W%	c #6D77A6",
"X%	c #6E78A5",
"Y%	c #6E78A8",
"Z%	c #616384",
"`%	c #6C5948",
" &	c #606387",
".&	c #5A66A0",
"+&	c #525D96",
"@&	c #3A447F",
"#&	c #3D4781",
"$&	c #424C85",
"%&	c #485289",
"&&	c #4E598F",
"*&	c #545E95",
"=&	c #586298",
"-&	c #5A6499",
";&	c #5B6597",
">&	c #5A6496",
",&	c #5A6395",
"'&	c #5B6496",
")&	c #5A6497",
"!&	c #586297",
"~&	c #545E94",
"{&	c #4E588F",
"]&	c #475188",
"^&	c #414A84",
". . . . . . . . . . . . . . . . . . . . . . . . . . . + + + . . . . . . @ # $ % % & * @ . . . . ",
"= = - - - - - = = = = = = = = = - - ; ; ; > > > > > > > , , , > > > > ' ) ! ~ { { ] ^ / ( = = = ",
"_ : < [ : } } | 1 1 1 > 1 1 1 1 2 2 3 4 4 4 4 4 5 5 5 5 5 5 5 5 6 6 6 7 8 9 0 a b c d e f ' > > ",
"g h i j k l m m n o o o o o n m m p q q q r r r r r r s s s s r r t u v w x y z A B C D E F G < ",
"H I J K L M N O P Q Q R R R S T U V W X Y Z `  ...+...@.#.$.%.&...*.=.-.;.>.,.'.).!.~.{.].^./.(.",
"_.:.<.[.}.|.1.2.3.4.5.6.6.7.3.8.9.0.a.b.c.d.e.f.g.h.i.j.k.l.k.m.n.o.p.q.r.s.t.u.v.w.x.y.z.A.j B.",
"C.D.E.F.G.H.I.J.K.L.M.N.O.P.Q.R.S.T.U.V.W.X.Y.G.Z.`. +G..+G.G.++@+#+G.G.$+%+&+*+=+-+;+>+,+'+)+!+",
"~+{+]+^+G./+(+_+:+<+[+}+|+m.1+2+3+4+5+6+7+8+G.G.9+0+a+b+c+G.d+e+f+g+d+G.h+i+j+k+l+m+n+o+p+3.q+r+",
"s+t+u+v+G.w+x+y+z+6+A+B+X.C+D+E+F+G+H+G.I+J+K+L+M+N+O+P+Q+G.R+S+N+T+U+G.V+W+X+Y+Z+`+ @.@+@@@#@$@",
"%@&@*@=@G.-@;@G.>@,@b+'@)@G.!@~@G.{@]@G.^@/@(@_@:@<@d+[@}@G.|@1@2@D+3@G.4@5@6@7@8@9@0@a@b@c@d@e@",
"f@g@h@i@G.j@k@G.l@m@n@o@p@D+q@r@s@t@u@s@v@w@x@y@G.z@G.A@B@G.C@G.D@G.E@G.F@G@H@I@J@K@L@M@N@O@P@Q@",
"R@S@T@U@G.V@W@G.l@X@Y@Z@`@d+w@w@w@ #.#+#@#G.##$#%#&#*#=#-#G.;#>#,#%#'#G.)#!#~#{#]#^#/#0@(#_#:#<#",
"[#}#|#1#G.2#3#G.4#5#@#6#7#1@8#9#0#a#b#c#G.d#e#f#g#G.h#i#j#G.k#l#G.m#n#G.o#p#q#r#s#t#u#v#w#x#y#z#",
"A#B#C#D#G.E#F#G#w@*#H#I#J#K#L#M#N#O#P#Q#G.R#S#T#U#G.V#W#X#G.Y#Z#G.`# $G..$+$@$#$9@t#u#$$%$&$*$=$",
"-$;$>$,$'$)$!$~${$]$^$/$($_$:$<$[$}$|$1$2$3$4$5$6$7$8$9$0$a$b$c$d$e$f$g$h$i$j$k$l$m$n$o$%$p$q$=$",
"r$s$t$u$v$w$x$y$z$A$B$C$D$E$F$G$H$I$J$K$y$L$M$N$H$O$H$P$C$H$Q$R$S$T$U$V$W$X$8@Y$t#u#Z$`$ %.%+%@%",
"#%$%%%&%*%=%-%;%>%>%>%,%'%)%)%)%!%~%~%;%;%;%;%~%;%;%!%!%!%>%{%]%^%/%(%_%:%<%[%t#m$u#}%|%1%2%3%4%",
"5%5%6%6%7%7%8%8%9%9%8%9%9%9%9%9%9%9%0%0%9%9%9%9%9%9%9%9%9%a%b%c%d%e%f%g%h%i%j%k%l%m%n%o%2%p%q%r%",
"6%6%s%s%s%s%t%t%t%t%t%t%t%t%t%t%t%t%t%t%t%t%t%t%t%t%t%t%t%t%u%v%w%x%y%z%A%B%C%D%E%D%F%G%H%I%J%K%",
"L%L%L%L%L%L%L%L%M%M%M%L%L%L%M%L%L%L%L%L%L%L%L%L%L%L%L%L%L%L%N%O%P%Q%R%S%T%U%V%W%X%Y%Z%`% &.&+&>%",
"@&@&@&@&@&@&@&@&@&@&@&@&@&@&@&@&@&@&@&@&@&@&@&@&@&@&@&@&@&@&@&#&$&%&&&*&=&-&;&>&,&'&)&!&~&{&]&^&"};
