/* XPM */
static char * icewm_xpm[] = {
"48 21 445 2",
"  	c None",
". 	c #662371",
"+ 	c #64236F",
"@ 	c #63256D",
"# 	c #61256B",
"$ 	c #60256A",
"% 	c #602569",
"& 	c #5F2668",
"* 	c #5E2567",
"= 	c #5D2666",
"- 	c #5C2665",
"; 	c #5F2667",
"> 	c #5E2667",
", 	c #5D2667",
"' 	c #5D2766",
") 	c #5C2765",
"! 	c #5B2764",
"~ 	c #5C2764",
"{ 	c #5C2664",
"] 	c #592762",
"^ 	c #592761",
"/ 	c #582760",
"( 	c #582860",
"_ 	c #582861",
": 	c #592861",
"< 	c #5A2763",
"[ 	c #5C2864",
"} 	c #592961",
"| 	c #592A61",
"1 	c #5A2A61",
"2 	c #582960",
"3 	c #57295F",
"4 	c #56295E",
"5 	c #56285E",
"6 	c #57285F",
"7 	c #5B2663",
"8 	c #582761",
"9 	c #55275D",
"0 	c #53285B",
"a 	c #54285B",
"b 	c #532A5A",
"c 	c #532A59",
"d 	c #532B5A",
"e 	c #582961",
"f 	c #592862",
"g 	c #5A2962",
"h 	c #5A2A62",
"i 	c #582B60",
"j 	c #562C5D",
"k 	c #562C5E",
"l 	c #582D5F",
"m 	c #562E5D",
"n 	c #562E5C",
"o 	c #572E5E",
"p 	c #582E5F",
"q 	c #562F5C",
"r 	c #542F5A",
"s 	c #542F5B",
"t 	c #562E5E",
"u 	c #522D58",
"v 	c #502C56",
"w 	c #512B58",
"x 	c #522959",
"y 	c #57275F",
"z 	c #56275E",
"A 	c #55275C",
"B 	c #522858",
"C 	c #512958",
"D 	c #512B57",
"E 	c #4E2D53",
"F 	c #492B4E",
"G 	c #4C2D51",
"H 	c #542E5B",
"I 	c #592C61",
"J 	c #5A2C62",
"K 	c #5A2B62",
"L 	c #5C2B63",
"M 	c #5B2D62",
"N 	c #592E60",
"O 	c #4D2F52",
"P 	c #4C3051",
"Q 	c #533258",
"R 	c #513356",
"S 	c #4A324E",
"T 	c #49324D",
"U 	c #4F3353",
"V 	c #533458",
"W 	c #4F3454",
"X 	c #4A334E",
"Y 	c #48324C",
"Z 	c #46314A",
"` 	c #4F3453",
" .	c #543459",
"..	c #4D3351",
"+.	c #452D49",
"@.	c #442B48",
"#.	c #4B2E50",
"$.	c #4F2C55",
"%.	c #4F2955",
"&.	c #53285A",
"*.	c #522859",
"=.	c #4F2756",
"-.	c #4D2D53",
";.	c #B081B7",
">.	c #FFFFFF",
",.	c #B289BA",
"'.	c #4E3153",
").	c #57315E",
"!.	c #58315E",
"~.	c #57305D",
"{.	c #592F60",
"].	c #5B2F62",
"^.	c #5B2F63",
"/.	c #5A2F61",
"(.	c #58305F",
"_.	c #593160",
":.	c #58325E",
"<.	c #4E3352",
"[.	c #F1E5F3",
"}.	c #E7D5EA",
"|.	c #8F6895",
"1.	c #8B6791",
"2.	c #F1E7F3",
"3.	c #A684AD",
"4.	c #906D95",
"5.	c #BB9AC1",
"6.	c #B597BA",
"7.	c #A885AD",
"8.	c #936F99",
"9.	c #9B77A1",
"0.	c #B78FBD",
"a.	c #4E2A53",
"b.	c #4E2755",
"c.	c #512858",
"d.	c #52275A",
"e.	c #502756",
"f.	c #4C2652",
"g.	c #4C2952",
"h.	c #4D2F51",
"i.	c #AB82B1",
"j.	c #AA87B1",
"k.	c #48334B",
"l.	c #4C3450",
"m.	c #49334D",
"n.	c #4C3350",
"o.	c #533358",
"p.	c #4B334F",
"q.	c #4B344F",
"r.	c #4C3651",
"s.	c #48354B",
"t.	c #D3BAD8",
"u.	c #FBF8FB",
"v.	c #7C6281",
"w.	c #8B6F8F",
"x.	c #C3A8C7",
"y.	c #7A647E",
"z.	c #D3BBD7",
"A.	c #F8F3F9",
"B.	c #8C768F",
"C.	c #FEFDFE",
"D.	c #C3A8C8",
"E.	c #7C6580",
"F.	c #B89CBC",
"G.	c #B18FB7",
"H.	c #4B314F",
"I.	c #4B2950",
"J.	c #4B2652",
"K.	c #4F2755",
"L.	c #502757",
"M.	c #502857",
"N.	c #4E2754",
"O.	c #4A2550",
"P.	c #49284F",
"Q.	c #4B304F",
"R.	c #A681AD",
"S.	c #A587AA",
"T.	c #7C5E81",
"U.	c #BB9CC0",
"V.	c #F5EEF6",
"W.	c #DEC9E1",
"X.	c #946E9B",
"Y.	c #C6AACB",
"Z.	c #F8F4F9",
"`.	c #F6F0F7",
" +	c #BA9BBF",
".+	c #846888",
"++	c #B195B6",
"@+	c #8D7591",
"#+	c #AC93B1",
"$+	c #FDFCFE",
"%+	c #E3D3E6",
"&+	c #E3D2E5",
"*+	c #695A6C",
"=+	c #ECE0EE",
"-+	c #DCC9DF",
";+	c #8B778E",
">+	c #E8DBEA",
",+	c #E5D6E7",
"'+	c #D9C7DD",
")+	c #E8DAEA",
"!+	c #AF90B4",
"~+	c #49294E",
"{+	c #49254F",
"]+	c #4D2653",
"^+	c #4E2654",
"/+	c #4D2654",
"(+	c #48244E",
"_+	c #47284D",
":+	c #49304D",
"<+	c #A582AB",
"[+	c #A084A5",
"}+	c #957A99",
"|+	c #C1A8C6",
"1+	c #A183A6",
"2+	c #C6A9CA",
"3+	c #A98CAE",
"4+	c #B298B6",
"5+	c #AF96B4",
"6+	c #987D9C",
"7+	c #8B738F",
"8+	c #AA93AE",
"9+	c #D3BFD6",
"0+	c #E5D7E7",
"a+	c #B29BB6",
"b+	c #FCF9FC",
"c+	c #6C5D6F",
"d+	c #B9A2BD",
"e+	c #917D94",
"f+	c #C2AEC6",
"g+	c #FDFCFD",
"h+	c #655867",
"i+	c #C1ACC4",
"j+	c #AD8FB3",
"k+	c #47284C",
"l+	c #47244D",
"m+	c #4B2551",
"n+	c #4C2653",
"o+	c #4C2552",
"p+	c #4B2552",
"q+	c #46234C",
"r+	c #46274B",
"s+	c #472F4C",
"t+	c #A281A8",
"u+	c #9D83A1",
"v+	c #BCA4C0",
"w+	c #79617C",
"x+	c #866B8A",
"y+	c #8B6F90",
"z+	c #7D6581",
"A+	c #CDB7D1",
"B+	c #594A5C",
"C+	c #5C4C5F",
"D+	c #F5EFF6",
"E+	c #C4ABC7",
"F+	c #736076",
"G+	c #CBB7CE",
"H+	c #F4EEF5",
"I+	c #C0A9C3",
"J+	c #88758B",
"K+	c #B8A3BB",
"L+	c #958098",
"M+	c #968099",
"N+	c #97849A",
"O+	c #B8A4BC",
"P+	c #917D95",
"Q+	c #AE8FB2",
"R+	c #47314B",
"S+	c #45274A",
"T+	c #45234B",
"U+	c #49244F",
"V+	c #4A2551",
"W+	c #4A2450",
"X+	c #492450",
"Y+	c #44224A",
"Z+	c #44264A",
"`+	c #462E4B",
" @	c #A180A7",
".@	c #9B829F",
"+@	c #BBA3BF",
"@@	c #816886",
"#@	c #9A7DA0",
"$@	c #896E8D",
"%@	c #CCB8D0",
"&@	c #C9B2CC",
"*@	c #78647C",
"=@	c #D5C3D9",
"-@	c #F9F4F9",
";@	c #99819C",
">@	c #726174",
",@	c #F6F1F7",
"'@	c #F5F0F6",
")@	c #FBF9FC",
"!@	c #766479",
"~@	c #99819D",
"{@	c #89768C",
"]@	c #EBE0EC",
"^@	c #F8F5F9",
"/@	c #705E73",
"(@	c #AB8DB1",
"_@	c #47304A",
":@	c #452749",
"<@	c #47234D",
"[@	c #48244F",
"}@	c #45234A",
"|@	c #45264A",
"1@	c #462D4A",
"2@	c #A17EA7",
"3@	c #9F82A3",
"4@	c #927796",
"5@	c #C6AEC9",
"6@	c #9E82A3",
"7@	c #C9B1CD",
"8@	c #A78DAB",
"9@	c #907993",
"0@	c #866F89",
"a@	c #CDB8D1",
"b@	c #9B7EA1",
"c@	c #856A8A",
"d@	c #B59BB9",
"e@	c #FBF9FB",
"f@	c #7E6682",
"g@	c #806984",
"h@	c #D5C2D8",
"i@	c #E1D2E3",
"j@	c #7A647D",
"k@	c #9C80A0",
"l@	c #8E7892",
"m@	c #C7B2CA",
"n@	c #D4C2D7",
"o@	c #76607A",
"p@	c #AB8BB1",
"q@	c #462E4A",
"r@	c #442649",
"s@	c #48234E",
"t@	c #46224C",
"u@	c #432249",
"v@	c #432449",
"w@	c #452A49",
"x@	c #A27BA8",
"y@	c #A384A9",
"z@	c #76577C",
"A@	c #B69ABA",
"B@	c #D9C7DC",
"C@	c #85658B",
"D@	c #7E5F82",
"E@	c #C3AAC7",
"F@	c #F6F2F7",
"G@	c #F9F6FA",
"H@	c #D3BED6",
"I@	c #906C95",
"J@	c #8E6A95",
"K@	c #99799E",
"L@	c #DECEE0",
"M@	c #87678D",
"N@	c #8C6B92",
"O@	c #B295B7",
"P@	c #C1A7C5",
"Q@	c #84658A",
"R@	c #A07FA5",
"S@	c #977A9D",
"T@	c #A589AA",
"U@	c #B197B6",
"V@	c #846689",
"W@	c #AB88B1",
"X@	c #442A49",
"Y@	c #432448",
"Z@	c #442249",
"`@	c #45224B",
" #	c #422148",
".#	c #422248",
"+#	c #422547",
"@#	c #412845",
"##	c #3D2742",
"$#	c #402A44",
"%#	c #442D47",
"&#	c #422D45",
"*#	c #3F2B42",
"=#	c #412D45",
"-#	c #463049",
";#	c #453049",
">#	c #432F46",
",#	c #3F2C42",
"'#	c #3F2C43",
")#	c #432E47",
"!#	c #48314C",
"~#	c #4A324D",
"{#	c #452F49",
"]#	c #412D44",
"^#	c #422E46",
"/#	c #442F48",
"(#	c #432F47",
"_#	c #46304A",
":#	c #443047",
"<#	c #422F46",
"[#	c #412E44",
"}#	c #402D44",
"|#	c #402B43",
"1#	c #3F2842",
"2#	c #402845",
"3#	c #432647",
"4#	c #422247",
"5#	c #432149",
"6#	c #44214A",
"7#	c #412047",
"8#	c #402046",
"9#	c #412246",
"0#	c #412446",
"a#	c #412546",
"b#	c #422747",
"c#	c #442949",
"d#	c #432A48",
"e#	c #452B4A",
"f#	c #472C4B",
"g#	c #462B4A",
"h#	c #452B49",
"i#	c #442A48",
"j#	c #452A4A",
"k#	c #462A4B",
"l#	c #442A4A",
"m#	c #462B4B",
"n#	c #422847",
"o#	c #402445",
"p#	c #402245",
"q#	c #412046",
"r#	c #422048",
"s#	c #422147",
"t#	c #3F2045",
"u#	c #3F2145",
"v#	c #412245",
"w#	c #412346",
"x#	c #402446",
"y#	c #422447",
"z#	c #432547",
"A#	c #412447",
"B#	c #412445",
"C#	c #402045",
"D#	c #3F1F44",
"E#	c #3E1F44",
"F#	c #3E2044",
"G#	c #3F2044",
"H#	c #3D1E43",
"I#	c #3E1F43",
"J#	c #3D1E42",
"K#	c #3C1D41",
"L#	c #3A1D40",
". . . . . . . . . . . . . . . . . . . . . . . . . . . . . . . + + + . . . . . . . . . . . . . . ",
"@ @ @ @ @ @ # # # # # @ @ @ @ @ @ @ @ @ # # $ $ $ % % % % % % % & & & % % % % % $ # # @ @ @ @ @ ",
"% % % % * = - - = ; ; ; > > > % > > > > , , ' ) ) ) ) ) ! ! ! ! ! ! ! ! ~ ~ ~ ! ~ - = * % % % % ",
"- - - { ] ^ / ( _ : < < ~ ! ! ! ! ! ~ < < [ } } } | | | | | | 1 1 1 1 | | 2 3 4 5 6 / ^ 7 - - - ",
"] ] 8 / 9 0 a b c d 3 e } _ _ f f f g g h i j k l l m n o p o q q r s t o n u v w x 0 9 y / ] ] ",
"y y z A B C D E F G H I J J K L L K J M N r O P Q R S T U V W X Y Z Y `  ...+.@.#.$.%.B &.9 y y ",
"A A &.*.=.%.-.;.>.,.'.).!.~.{.].^./.(._.:.<.[.}.|.1.2.>.3.4.5.>.6.>.>.7.8.9.>.>.0.O a.b.c.d.A A ",
"*.*.c.e.f.g.h.i.>.j.k.l.m.Y n.o. .` p.q.r.s.t.u.v.w.>.>.x.y.z.A.B.>.C.D.E.F.C.>.G.H.I.J.K.L.*.*.",
"M.e.=.N.O.P.Q.R.>.S.T.U.V.u.W.X.1.Y.Z.`. +.+++>.@+#+$+%+&+*+=+-+;+>.>+,+*+'+)+>.!+S ~+{+]+b.=.M.",
"b.^+/+f.(+_+:+<+>.[+}+>.|+1+A.2+3+>.4+5+>.6+7+>.8+9+0+a+b+c+C.d+e+>.f+g+h+Z.i+>.j+Y k+l+m+n+/+b.",
"n+o+p+O.q+r+s+t+>.u+v+>.w+x+y+z+A+Z.B+C+D+E+F+D+G+H+I+J+>.K+>.L+M+>.N+>.O+>.P+>.Q+R+S+T+U+V+p+n+",
"V+W+X+(+Y+Z+`+ @>..@+@>.w+@@#@$@%@C.H+H+H+&@*@=@-@>.;@>@,@'@)@!@~@>.{@]@^@'@/@>.(@_@:@Y+<@[@X+V+",
"U+U+(+<@}@|@1@2@>.3@4@>.5@6@-@7@8@g+9@0@a@b@c@d@>.e@f@g@h@>.i@j@k@>.l@m@>.n@o@>.p@q@r@}@q+s@U+U+",
"<@<@q+t@u@v@w@x@>.y@z@A@H+)@B@C@D@E@F@G@H@I@J@K@>.L@M@N@O@>.P@Q@R@>.S@T@>.U@V@>.W@X@Y@Z@`@t@<@<@",
"`@`@`@Y+ #.#+#@###$#%#&#*#*#=#-#;#>#,#'#)#!#~#{#]#^#R+Y /#]#(#R+_#(#:#<#[#}#|#1#2#3#4# #5#6#`@`@",
"5#5#5# #7#8#9#0#a#b#c#X@X@d#w@e#f#g#h#i#e#j#k#l#X@j#m#m#e#X@e#m#e#e#e#h#h#d#n#a#o#p#q#7#r#5#5#5#",
"s#s#s#7#q#8#t#u#v#w#x#y#+#+#+#y#z#+#+#+#A#y#y#y#y#y#y#y#y#y#A#A#A#A#+#+#+#0#B#p#u#t#t#q#q#s#s#s#",
"C#C#C#C#D#D#E#E#F#F#G#G#F#F#G#F#F#F#F#F#F#F#G#G#F#F#F#F#F#F#F#F#F#G#F#F#G#G#F#F#E#E#D#D#C#C#C#C#",
"E#E#E#E#E#E#H#H#H#H#I#I#I#I#I#I#I#I#I#I#I#I#I#I#I#I#I#I#I#I#I#I#I#I#I#I#I#I#H#H#H#H#E#E#E#E#E#E#",
"J#J#J#J#J#J#J#J#J#J#J#J#K#K#K#J#J#J#K#J#J#J#J#J#J#J#J#J#J#J#J#J#J#J#J#J#J#J#J#J#J#J#J#J#J#J#J#J#",
"L#L#L#L#L#L#L#L#L#L#L#L#L#L#L#L#L#L#L#L#L#L#L#L#L#L#L#L#L#L#L#L#L#L#L#L#L#L#L#L#L#L#L#L#L#L#L#L#"};
