/* XPM */
static char * frameAB_xpm[] = {
"10 3 4 1",
" 	c None",
".	c #5F5354",
"+	c #FFFFFF",
"@	c #434343",
"..........",
"++++++++++",
"@@@@@@@@@@"};
