/* XPM */
static char * menuButtonA_xpm[] = {
"19 38 139 2",
"  	c None",
". 	c #FFFFFF",
"+ 	c #D6D6D6",
"@ 	c #D4D4D4",
"# 	c #D7D7D7",
"$ 	c #D9D9D9",
"% 	c #DADADA",
"& 	c #DCDCDC",
"* 	c #DDDDDD",
"= 	c #DEDEDE",
"- 	c #E0E0E0",
"; 	c #E1E1E1",
"> 	c #E3E3E3",
", 	c #E4E4E4",
"' 	c #E6E6E6",
") 	c #E7E7E7",
"! 	c #D3D3D3",
"~ 	c #E9E9E9",
"{ 	c #E5E5E5",
"] 	c #EAEAEA",
"^ 	c #424242",
"/ 	c #434343",
"( 	c #464646",
"_ 	c #ECECEC",
": 	c #E2E2E2",
"< 	c #444444",
"[ 	c #474747",
"} 	c #EDEDED",
"| 	c #454545",
"1 	c #484848",
"2 	c #EEEEEE",
"3 	c #DFDFDF",
"4 	c #F0F0F0",
"5 	c #F1F1F1",
"6 	c #F3F3F3",
"7 	c #DBDBDB",
"8 	c #F4F4F4",
"9 	c #F6F6F6",
"0 	c #F7F7F7",
"a 	c #D8D8D8",
"b 	c #F9F9F9",
"c 	c #FAFAFA",
"d 	c #D5D5D5",
"e 	c #FCFCFC",
"f 	c #FDFDFD",
"g 	c #919191",
"h 	c #F2F2F2",
"i 	c #EBEBEB",
"j 	c #D1D1D1",
"k 	c #CBCBCB",
"l 	c #C4C4C4",
"m 	c #BEBEBE",
"n 	c #B7B7B7",
"o 	c #B1B1B1",
"p 	c #AAAAAA",
"q 	c #CCCCCC",
"r 	c #C8C8C8",
"s 	c #C0C0C0",
"t 	c #BBBBBB",
"u 	c #B6B6B6",
"v 	c #B2B2B2",
"w 	c #ADADAD",
"x 	c #A9A9A9",
"y 	c #A4A4A4",
"z 	c #9F9F9F",
"A 	c #9A9A9A",
"B 	c #D2D2D2",
"C 	c #CECECE",
"D 	c #C9C9C9",
"E 	c #C6C6C6",
"F 	c #C1C1C1",
"G 	c #BCBCBC",
"H 	c #B8B8B8",
"I 	c #B3B3B3",
"J 	c #AFAFAF",
"K 	c #A5A5A5",
"L 	c #A0A0A0",
"M 	c #999999",
"N 	c #CFCFCF",
"O 	c #C2C2C2",
"P 	c #B9B9B9",
"Q 	c #B4B4B4",
"R 	c #B0B0B0",
"S 	c #ABABAB",
"T 	c #A6A6A6",
"U 	c #A1A1A1",
"V 	c #C7C7C7",
"W 	c #C3C3C3",
"X 	c #BFBFBF",
"Y 	c #BABABA",
"Z 	c #B5B5B5",
"` 	c #ACACAC",
" .	c #A7A7A7",
"..	c #A2A2A2",
"+.	c #979797",
"@.	c #404040",
"#.	c #CDCDCD",
"$.	c #363636",
"%.	c #343434",
"&.	c #A8A8A8",
"*.	c #A3A3A3",
"=.	c #414141",
"-.	c #3F3F3F",
";.	c #CACACA",
">.	c #383838",
",.	c #353535",
"'.	c #333333",
").	c #969696",
"!.	c #3E3E3E",
"~.	c #3A3A3A",
"{.	c #959595",
"].	c #3C3C3C",
"^.	c #3B3B3B",
"/.	c #949494",
"(.	c #3D3D3D",
"_.	c #373737",
":.	c #939393",
"<.	c #393939",
"[.	c #BDBDBD",
"}.	c #929292",
"|.	c #AEAEAE",
"1.	c #C5C5C5",
"2.	c #909090",
"3.	c #D0D0D0",
"4.	c #8F8F8F",
"5.	c #8E8E8E",
"6.	c #8D8D8D",
"7.	c #8A8A8A",
"8.	c #868686",
"9.	c #828282",
"0.	c #7F7F7F",
"a.	c #7B7B7B",
"b.	c #777777",
"c.	c #737373",
"d.	c #707070",
"e.	c #6C6C6C",
"f.	c #686868",
"g.	c #656565",
"h.	c #616161",
". . . . . . . . . . . . . . . . . . . ",
". + + + + @ + # $ % & * = - ; > , ' ) ",
". + + + + @ + # $ % & * = - ; > , ' ) ",
". + + ! @ + # $ % & * = - ; > , ' ) ' ",
". + + @ + # $ % & * = - ; > , ' ) ~ { ",
". @ @ + # $ % & * = - ; > , ' ) ~ ] > ",
". + + # $ ^ / = = - ; > , ( ( ] ] _ : ",
". # # $ ^ / / < = ; > , ( ( [ [ } } ; ",
". $ $ % / / < < | = , ( ( [ [ 1 2 2 3 ",
". % % & * < < | | | ( ( [ [ 1 2 2 4 = ",
". & & * = - | | | ( ( [ [ 1 2 2 4 5 * ",
". * * = - ; > | ( ( [ [ 1 2 2 4 5 6 7 ",
". = = - ; > , ' ( [ [ 1 2 2 4 5 6 8 % ",
". - - ; > , ' ) ~ [ 1 2 2 4 5 6 8 9 $ ",
". ; ; > , ' ) ~ ] _ } 2 4 5 6 8 9 0 a ",
". > > , ' ) ~ ] _ } 2 4 5 6 8 9 0 b + ",
". , , ' ) ~ ] _ } 2 4 5 6 8 9 0 b c d ",
". ) ) ~ ] _ } 2 4 5 6 8 9 0 b c e f @ ",
"g g g g g g g g g g g g g g g g g g g ",
". . . . . . b h i { = a j k l m n o p ",
". @ @ ! @ @ j q r l s t u v w x y z A ",
". @ @ ! @ @ j q r l s t u v w x y z A ",
". @ @ ! @ + B C D E F G H I J p K L M ",
". @ @ @ + # @ N k E O m P Q R S T U M ",
". @ @ + # $ d j q V W X Y Z o `  ...+.",
". + + # $ @.@.j #.D l s t $.%.` &.*.+.",
". # # $ ^ =.@.-.#.;.E F >.$.,.'.&.y ).",
". $ $ % / =.@.-.!.;.V ~.>.$.,.%.&.K {.",
". % % & * ^ @.@.!.].^.~.>.$.$.o S T /.",
". & & * = - =.@.!.(.^.~.>._.n o `  .:.",
". * * = - ; * @.-.(.].~.<.[.n I w &.}.",
". = = - ; > = % -.!.].^.l [.P Q |.x g ",
". - - ; > , - 7 # !.(.;.l X Y Z J p g ",
". ; ; > , ' ; * a @ N ;.1.s t u o S 2.",
". > > , ' ) > = % d 3.k E F G n v w 4.",
". , , ' ) ~ , - 7 + j q V O [.H I |.5.",
". ) ) ~ ] _ ) : * $ @ N ;.1.s Y Z R 6.",
"g g g g g g 6.7.8.9.0.a.b.c.d.e.f.g.h."};
