/* XPM */
static char * restoreI_xpm[] = {
"19 38 27 1",
" 	c None",
".	c #FFFFFF",
"+	c #DBDBDB",
"@	c #DADADA",
"#	c #D9D9D9",
"$	c #D7D7D7",
"%	c #B8B8B8",
"&	c #D5D5D5",
"*	c #B7B7B7",
"=	c #D4D4D4",
"-	c #989898",
";	c #B6B6B6",
">	c #D2D2D2",
",	c #979797",
"'	c #B5B5B5",
")	c #D1D1D1",
"!	c #B4B4B4",
"~	c #CFCFCF",
"{	c #B3B3B3",
"]	c #CECECE",
"^	c #969696",
"/	c #CCCCCC",
"(	c #CBCBCB",
"_	c #959595",
":	c #C9C9C9",
"<	c #C8C8C8",
"[	c #828282",
"...................",
"+++++++++++++++++++",
"+++++++++++++++++++",
"@@@@@@@@@@@@@@@@@@@",
"###################",
"$$$$$$%%%%%%%%$$$$$",
"&&&&&&********&&&&&",
"&&&&&&&&&&&&&*&&&&&",
"====--------=;=====",
">>>>,,,,,,,,>'>>>>>",
")))),,,,,,,,)!)))))",
"~~~~,~~~~~~,~{~~~~~",
"]]]]^]]]]]]^]]]]]]]",
"////^//////^///////",
"((((________(((((((",
":::::::::::::::::::",
":::::::::::::::::::",
"<<<<<<<<<<<<<<<<<<<",
"[[[[[[[[[[[[[[[[[[[",
"...................",
"+++++++++++++++++++",
"+++++++++++++++++++",
"@@@@@@@@@@@@@@@@@@@",
"###################",
"$$$$$$%%%%%%%%$$$$$",
"&&&&&&********&&&&&",
"&&&&&&&&&&&&&*&&&&&",
"====--------=;=====",
">>>>,,,,,,,,>'>>>>>",
")))),,,,,,,,)!)))))",
"~~~~,~~~~~~,~{~~~~~",
"]]]]^]]]]]]^]]]]]]]",
"////^//////^///////",
"((((________(((((((",
":::::::::::::::::::",
":::::::::::::::::::",
"<<<<<<<<<<<<<<<<<<<",
"[[[[[[[[[[[[[[[[[[["};
