/* XPM */
static char * restoreA_xpm[] = {
"19 38 93 2",
"  	c None",
". 	c #FFFFFF",
"+ 	c #A1A1A1",
"@ 	c #CFCFCF",
"# 	c #D0D0D0",
"$ 	c #D1D1D1",
"% 	c #D3D3D3",
"& 	c #D4D4D4",
"* 	c #D6D6D6",
"= 	c #D7D7D7",
"- 	c #D9D9D9",
"; 	c #DADADA",
"> 	c #DCDCDC",
", 	c #DDDDDD",
"' 	c #DEDEDE",
") 	c #E0E0E0",
"! 	c #E1E1E1",
"~ 	c #E3E3E3",
"{ 	c #E4E4E4",
"] 	c #E6E6E6",
"^ 	c #FDFDFD",
"/ 	c #E7E7E7",
"( 	c #FCFCFC",
"_ 	c #E9E9E9",
": 	c #FBFBFB",
"< 	c #8E8E8E",
"[ 	c #8F8F8F",
"} 	c #909090",
"| 	c #919191",
"1 	c #929292",
"2 	c #949494",
"3 	c #EAEAEA",
"4 	c #F9F9F9",
"5 	c #969696",
"6 	c #ECECEC",
"7 	c #F8F8F8",
"8 	c #EDEDED",
"9 	c #F7F7F7",
"0 	c #424242",
"a 	c #434343",
"b 	c #444444",
"c 	c #454545",
"d 	c #989898",
"e 	c #EEEEEE",
"f 	c #F5F5F5",
"g 	c #464646",
"h 	c #F0F0F0",
"i 	c #F4F4F4",
"j 	c #9A9A9A",
"k 	c #F1F1F1",
"l 	c #F3F3F3",
"m 	c #474747",
"n 	c #F2F2F2",
"o 	c #484848",
"p 	c #F6F6F6",
"q 	c #EFEFEF",
"r 	c #FAFAFA",
"s 	c #EBEBEB",
"t 	c #AAAAAA",
"u 	c #6B6B6B",
"v 	c #8A8A8A",
"w 	c #8B8B8B",
"x 	c #8D8D8D",
"y 	c #939393",
"z 	c #959595",
"A 	c #979797",
"B 	c #999999",
"C 	c #A9A9A9",
"D 	c #A8A8A8",
"E 	c #9B9B9B",
"F 	c #A7A7A7",
"G 	c #5F5F5F",
"H 	c #606060",
"I 	c #616161",
"J 	c #636363",
"K 	c #9C9C9C",
"L 	c #A6A6A6",
"M 	c #646464",
"N 	c #9D9D9D",
"O 	c #A5A5A5",
"P 	c #9E9E9E",
"Q 	c #2C2C2C",
"R 	c #2D2D2D",
"S 	c #2E2E2E",
"T 	c #656565",
"U 	c #9F9F9F",
"V 	c #A3A3A3",
"W 	c #2F2F2F",
"X 	c #A0A0A0",
"Y 	c #676767",
"Z 	c #A2A2A2",
"` 	c #303030",
" .	c #A4A4A4",
". . . . . . . . . . . . . . . . . . + ",
". @ # $ % & * = - ; > , ' ) ! ~ { ] + ",
". @ # $ % & * = - ; > , ' ) ! ~ { ] + ",
"^ # $ % & * = - ; > , ' ) ! ~ { ] / + ",
"( $ % & * = - ; > , ' ) ! ~ { ] / _ + ",
": % & * = - < [ } | 1 1 2 2 ] / _ 3 + ",
"4 & * = - ; [ } | 1 1 2 2 5 / _ 3 6 + ",
"7 * = - ; > , ' ) ! ~ { ] 5 _ 3 6 8 + ",
"9 = - ; 0 a a b b c c c / d 3 6 8 e + ",
"f - ; > a a b b c c c g _ d 6 8 e h + ",
"i ; > , a b b c c c g g 3 j 8 e h k + ",
"l > , ' b ! ~ { ] / _ m 6 j e h k l + ",
"n , ' ) b ~ { ] / _ 3 m 8 e h k l i + ",
"h ' ) ! c { ] / _ 3 6 o e h k l i p + ",
"q ) ! ~ c c g g m m o o h k l i p 9 + ",
"e ! ~ { ] / _ 3 6 8 e h k l i p 9 4 + ",
"6 ~ { ] / _ 3 6 8 e h k l i p 9 4 r + ",
"s ] / _ 3 6 8 e h k l i p 9 4 r ( ^ + ",
"| | | | | | | | | | | | | | | | | | + ",
"t t t t t t t t t t t t t t t t t t u ",
"t v w w x x [ [ | | y y 2 z 5 A d B u ",
"t v w w x x [ [ | | y y 2 z 5 A d B u ",
"C w w x x [ [ | | y y 2 z 5 A d B j u ",
"D w x x [ [ | | y y 2 z 5 A d B j E u ",
"F x x [ [ | G G H I I I J J B j E K u ",
"L x [ [ | | G H I I I J J M j E K N u ",
"O [ [ | | y y 2 z 5 A d B M E K N P u ",
"O [ | | Q R R R R S S S j T K N P U u ",
"V | | y R R R R S S S W E T N P U X u ",
"V | y y R R R S S S W W K Y P U X + u ",
"Z y y 2 R 5 A d B j E W N Y U X + Z u ",
"+ y 2 z R A d B j E K W P U X + Z V u ",
"X 2 z 5 S d B j E K N ` U X + Z V  .u ",
"U z 5 A S S W W W W ` ` X + Z V  .O u ",
"U 5 A d B j E K N P U X + Z V  .O L u ",
"N A d B j E K N P U X + Z V  .O L F u ",
"N B j E K N P U X + Z V  .O L F D C u ",
"I I I I I I I I I I I I I I I I I I u "};
