/* XPM */
static char * titleAB_xpm[] = {
"4 19 37 1",
" 	c None",
".	c #686868",
"+	c #585858",
"@	c #525252",
"#	c #5E5E5E",
"$	c #555555",
"%	c #4F4F4F",
"&	c #5C5C5C",
"*	c #4C4C4C",
"=	c #505050",
"-	c #494949",
";	c #5A5A5A",
">	c #464646",
",	c #575757",
"'	c #4D4D4D",
")	c #434343",
"!	c #4B4B4B",
"~	c #535353",
"{	c #484848",
"]	c #404040",
"^	c #454545",
"/	c #3D3D3D",
"(	c #515151",
"_	c #3B3B3B",
":	c #444444",
"<	c #3A3A3A",
"[	c #4E4E4E",
"}	c #414141",
"|	c #383838",
"1	c #373737",
"2	c #353535",
"3	c #3F3F3F",
"4	c #343434",
"5	c #4A4A4A",
"6	c #3C3C3C",
"7	c #323232",
"8	c #313131",
"....",
"++++",
"@@#$",
"%#$%",
"&@**",
"=--;",
">>,'",
")$!)",
"~{]]",
"^//(",
"__=:",
"<%)<",
"[}||",
"]11'",
"22*3",
"4!/4",
"5677",
"6886",
"____"};
