/* XPM */
static char * titleAM_xpm[] = {
"96 19 47 1",
" 	c None",
".	c #686868",
"+	c #5B5B5B",
"@	c #4F4F4F",
"#	c #505050",
"$	c #515151",
"%	c #525252",
"&	c #535353",
"*	c #545454",
"=	c #555555",
"-	c #565656",
";	c #575757",
">	c #585858",
",	c #595959",
"'	c #5A5A5A",
")	c #5C5C5C",
"!	c #5D5D5D",
"~	c #5E5E5E",
"{	c #4C4C4C",
"]	c #4D4D4D",
"^	c #4E4E4E",
"/	c #494949",
"(	c #4A4A4A",
"_	c #4B4B4B",
":	c #464646",
"<	c #474747",
"[	c #484848",
"}	c #434343",
"|	c #444444",
"1	c #454545",
"2	c #404040",
"3	c #414141",
"4	c #424242",
"5	c #3D3D3D",
"6	c #3E3E3E",
"7	c #3F3F3F",
"8	c #3B3B3B",
"9	c #3C3C3C",
"0	c #3A3A3A",
"a	c #383838",
"b	c #393939",
"c	c #373737",
"d	c #353535",
"e	c #363636",
"f	c #343434",
"g	c #323232",
"h	c #333333",
"................................................................................................",
"++++++++++++++++++++++++++++++++++++++++++++++++++++++++++++++++++++++++++++++++++++++++++++++++",
"@@@@@@#@@@$#@@$#@@%#@@&#@@&$@@*$@@*$@@=%@@-%@@-%@@;%@@;&@@>&@@,&@@,&@@'*@@+*@@+*@@)*@@)=@@!=@@~=",
"@@@@@#@@@$#@@$#@@%#@@&#@@&$@@*$@@*$@@=%@@-%@@-%@@;%@@;&@@>&@@,&@@,&@@'*@@+*@@+*@@)*@@)=@@!=@@~=@",
"{{{{]{{{^{{{^]{{@]{{#]{{#^{{$^{{$^{{%@{{&@{{*@{{*@{{=#{{-#{{-#{{;#{{>${{>${{,${{,${{'%{{+%{{)%{{",
"///(///((//_(//{(//{(//]_//^_//@_//@{//#{//${//${//%]//&]//*]//=^//=^//-^//-@//;@//>@//>#//,#//'",
"::<:::<:::[<::/<::/[::([::_[::{[::]/::]/::^/::@(::#(::#(::$_::%_::%_::&{::*{::={::={::-]::;]::;]",
"}}}}}|}}}1|}}:|}}:|}}[1}}[1}}/1}}(:}}(:}}_:}}{<}}]<}}][}}@[}}@[}}#[}}$/}}%/}}%/}}&(}}*(}}=(}}=_}",
"2222322242224322}322|3221422:422<}22<}22[}22/|22(|22_|22{122{122]122^:22@:22#:22$<22$<22%[22&[22",
"555655565557655265536554755}755|255|255:255:355<355[355/455(455_}55{}55{}55]|55^|55@|55#155$155$",
"8898885988698875882588258836884688}688|7881788:288<288[288[388/388(488_488{488]}88^}88^}88#|88#|",
"00000800098005800680079002900350045004500}600|6001700:700<700[200/200/300_300_300{400]400^400@}0",
"aaaa0aaa0baa80aa90aa50aa68aa78aa29aa39aa49aa}5aa|5aa16aa16aa<6aa<7aa/7aa/2aa(2aa_2aa{3aa]3aa^3aa",
"cccacccbcccbacc8acc8bcc9bcc5bcc60cc70cc28cc38cc48cc}9cc|9cc15cc:5cc<5cc[6cc/6cc(7cc_7cc{7cc{2cc]",
"ddedddceddaeddbcdd0cdd8add9add5add6bdd7bdd20dd20dd40dd}8dd|8dd19dd:9dd:9dd[5dd[5dd/6dd(6dd_6dd{7",
"fffffefffedffcdffaeffbeff0eff8cff9cff5aff6aff7aff2bff3bff40ff}0ff|8ff18ff:8ff<9ff[9ff/5ff(5ff_5f",
"ggggfgggdhggdfggcfggafggbdgg0dgg8egg9egg5egg6cgg7cgg7agg3agg4bgg}bgg|0gg10gg:0gg<8gg[8gg/9gg/9gg",
"gggfgggdhggdfggcfggafggbdgg0dgg8egg9egg5egg6cgg7cgg7agg3agg4bgg}bgg|0gg10gg:0gg<8gg[8gg/9gg/9gg/",
"888888888888888888888888888888888888888888888888888888888888888888888888888888888888888888888888"};
