/* XPM */
static char * icewm_xpm[] = {
"48 21 476 2",
"  	c None",
". 	c #9081D2",
"+ 	c #8F7FD0",
"@ 	c #9080CF",
"# 	c #8E7FCD",
"$ 	c #8E7FCC",
"% 	c #8D7ECC",
"& 	c #8D7ECB",
"* 	c #8C7DCA",
"= 	c #8B7DC9",
"- 	c #8B7DC8",
"; 	c #8E7EC9",
"> 	c #8E7ECA",
", 	c #8D7ECA",
"' 	c #8D7EC9",
") 	c #8C7EC8",
"! 	c #8C7EC7",
"~ 	c #8D7EC7",
"{ 	c #8B7DC7",
"] 	c #8A7CC8",
"^ 	c #897BC5",
"/ 	c #887BC4",
"( 	c #897CC3",
"_ 	c #8A7DC4",
": 	c #8B7DC4",
"< 	c #8B7DC6",
"[ 	c #8C7DC7",
"} 	c #8D7FC6",
"| 	c #8C7FC4",
"1 	c #8D80C3",
"2 	c #8F81C3",
"3 	c #8B7FC2",
"4 	c #8B7EC2",
"5 	c #8A7DC1",
"6 	c #897CC1",
"7 	c #897BC2",
"8 	c #887AC4",
"9 	c #8A7BC7",
"0 	c #8679C1",
"a 	c #8579BF",
"b 	c #877ABE",
"c 	c #877BBD",
"d 	c #887CBC",
"e 	c #897EBD",
"f 	c #8C80C3",
"g 	c #8C80C4",
"h 	c #8B7EC4",
"i 	c #8B7EC5",
"j 	c #8D80C5",
"k 	c #8E81C4",
"l 	c #8E82C2",
"m 	c #8D82C0",
"n 	c #8E83C0",
"o 	c #9185C1",
"p 	c #9186C1",
"q 	c #9186BE",
"r 	c #9187C0",
"s 	c #9288C1",
"t 	c #9187BE",
"u 	c #9288BD",
"v 	c #9087BB",
"w 	c #9086BC",
"x 	c #9187BF",
"y 	c #9085BD",
"z 	c #8C81B9",
"A 	c #897EB8",
"B 	c #897DBA",
"C 	c #867ABC",
"D 	c #8578BE",
"E 	c #8779C3",
"F 	c #877AC4",
"G 	c #887AC2",
"H 	c #8779C1",
"I 	c #8679C0",
"J 	c #8578BB",
"K 	c #897DB9",
"L 	c #887DB4",
"M 	c #8278AF",
"N 	c #877CB3",
"O 	c #8E84BD",
"P 	c #9186C3",
"Q 	c #9286C4",
"R 	c #9185C4",
"S 	c #9083C4",
"T 	c #9184C5",
"U 	c #9084C4",
"V 	c #9387C4",
"W 	c #9187BB",
"X 	c #8C82B3",
"Y 	c #8D84B1",
"Z 	c #938AB8",
"` 	c #948BB6",
" .	c #8D86AE",
"..	c #8B84AC",
"+.	c #928AB3",
"@.	c #958DB9",
"#.	c #938BB4",
"$.	c #8E87AE",
"%.	c #8C84AA",
"&.	c #8881A8",
"*.	c #938BB3",
"=.	c #968DB9",
"-.	c #9088B1",
";.	c #837AA9",
">.	c #8076A8",
",.	c #877EB0",
"'.	c #877DB7",
").	c #8477B8",
"!.	c #8477BD",
"~.	c #8174BA",
"{.	c #887FB5",
"].	c #A49CC3",
"^.	c #FFFFFF",
"/.	c #A9A3C6",
"(.	c #8F86B4",
"_.	c #958BBF",
":.	c #968BBF",
"<.	c #9489BE",
"[.	c #9489C1",
"}.	c #968BC3",
"|.	c #958BC4",
"1.	c #958BC2",
"2.	c #958CC0",
"3.	c #978EC0",
"4.	c #978EBF",
"5.	c #9189B2",
"6.	c #EDEBF5",
"7.	c #E1DEED",
"8.	c #8E88A9",
"9.	c #8C86A6",
"0.	c #EEECF5",
"a.	c #A39EBC",
"b.	c #928CA9",
"c.	c #B5B0CC",
"d.	c #B2ADC6",
"e.	c #A59FBC",
"f.	c #938DAC",
"g.	c #9A94B2",
"h.	c #AEA7C8",
"i.	c #8A81B3",
"j.	c #8477B5",
"k.	c #7F72B9",
"l.	c #8376BB",
"m.	c #8274BA",
"n.	c #7D6FB7",
"o.	c #8074B5",
"p.	c #8B82B2",
"q.	c #A49DBF",
"r.	c #A6A1BF",
"s.	c #8D85AA",
"t.	c #918AAF",
"u.	c #8D86AC",
"v.	c #8B84AB",
"w.	c #8F88B0",
"x.	c #978EB9",
"y.	c #9088AE",
"z.	c #918AAE",
"A.	c #938DB0",
"B.	c #8F89A9",
"C.	c #CDC9DF",
"D.	c #FAFAFC",
"E.	c #85809C",
"F.	c #928DA4",
"G.	c #BFBBD1",
"H.	c #868299",
"I.	c #CECADE",
"J.	c #F6F6FA",
"K.	c #9692A4",
"L.	c #FEFDFE",
"M.	c #BFBBD2",
"N.	c #87839B",
"O.	c #B6B1C8",
"P.	c #ACA7C4",
"Q.	c #8C84AF",
"R.	c #8175B3",
"S.	c #7B6EB6",
"T.	c #8072B9",
"U.	c #8274BB",
"V.	c #8375BA",
"W.	c #8072B8",
"X.	c #7A6CB5",
"Y.	c #7E72B2",
"Z.	c #8B82AF",
"`.	c #A19CBC",
" +	c #A5A0BA",
".+	c #827C9C",
"++	c #B6B1CB",
"@+	c #F3F2F7",
"#+	c #D8D5E6",
"$+	c #938DAD",
"%+	c #C1BCD4",
"&+	c #F7F6FA",
"*+	c #F4F3F8",
"=+	c #B5B0CA",
"-+	c #8B86A0",
";+	c #B0ACC3",
">+	c #9692A6",
",+	c #ADAABF",
"'+	c #FDFDFE",
")+	c #DFDDEA",
"!+	c #DFDCE9",
"~+	c #7B788C",
"{+	c #E9E7F1",
"]+	c #D8D5E5",
"^+	c #9693A4",
"/+	c #E5E3EE",
"(+	c #E2DFEB",
"_+	c #D5D3E3",
":+	c #E4E2EE",
"<+	c #ADA8C2",
"[+	c #8D85AD",
"}+	c #8074B0",
"|+	c #796CB4",
"1+	c #7F70B7",
"2+	c #8072BA",
"3+	c #7E70B9",
"4+	c #7E70B8",
"5+	c #7D6EB7",
"6+	c #7769B3",
"7+	c #7C70B0",
"8+	c #8A81AD",
"9+	c #A29DBA",
"0+	c #A29EB6",
"a+	c #9A96AC",
"b+	c #BEBBD0",
"c+	c #A29DB6",
"d+	c #C1BCD3",
"e+	c #A9A4BD",
"f+	c #B2AEC3",
"g+	c #B0ACC2",
"h+	c #9D98AF",
"i+	c #9490A4",
"j+	c #ADAABD",
"k+	c #D0CDDD",
"l+	c #E2E0EB",
"m+	c #B4B0C4",
"n+	c #FBFAFC",
"o+	c #7E7B8E",
"p+	c #B9B6C9",
"q+	c #9B98A8",
"r+	c #C2BFD0",
"s+	c #FDFDFD",
"t+	c #7A7688",
"u+	c #C1BECF",
"v+	c #ABA7C1",
"w+	c #8B84AA",
"x+	c #7D71AE",
"y+	c #7668B2",
"z+	c #7C6CB6",
"A+	c #7C6FB7",
"B+	c #7D6FB8",
"C+	c #7B6DB7",
"D+	c #7A6BB5",
"E+	c #7365B2",
"F+	c #7A6EAE",
"G+	c #877FAB",
"H+	c #A19CB8",
"I+	c #A19DB3",
"J+	c #BBB7CB",
"K+	c #847F98",
"L+	c #8E89A1",
"M+	c #918DA5",
"N+	c #CAC6D9",
"O+	c #6E6A81",
"P+	c #706B83",
"Q+	c #F3F2F8",
"R+	c #C1BDD1",
"S+	c #827E94",
"T+	c #CAC6D7",
"U+	c #BFBBCE",
"V+	c #9591A1",
"W+	c #BAB6C8",
"X+	c #9E9AAC",
"Y+	c #A19DAD",
"Z+	c #BAB7C8",
"`+	c #9B98A9",
" @	c #ACA7C0",
".@	c #8981A9",
"+@	c #7A6EAD",
"@@	c #7365B1",
"#@	c #7869B4",
"$@	c #796BB6",
"%@	c #7A6CB7",
"&@	c #786AB6",
"*@	c #776AB5",
"=@	c #7668B4",
"-@	c #7162B1",
";@	c #766AAD",
">@	c #857CAA",
",@	c #A09BB7",
"'@	c #A09CB1",
")@	c #BAB7CB",
"!@	c #8A869F",
"~@	c #9C98B2",
"{@	c #918CA3",
"]@	c #CAC7D8",
"^@	c #C7C2D5",
"/@	c #858298",
"(@	c #D2D0E0",
"_@	c #F8F6FA",
":@	c #A09BAF",
"<@	c #837F92",
"[@	c #F5F4F8",
"}@	c #858295",
"|@	c #9F9BAF",
"1@	c #9592A2",
"2@	c #E9E7EF",
"3@	c #F7F7FA",
"4@	c #807C91",
"5@	c #AAA5BF",
"6@	c #887FA9",
"7@	c #796CAC",
"8@	c #7062B0",
"9@	c #7566B3",
"0@	c #7768B6",
"a@	c #7869B5",
"b@	c #7363B0",
"c@	c #776AAD",
"d@	c #8379AA",
"e@	c #9F99B7",
"f@	c #A19CB4",
"g@	c #9893AA",
"h@	c #C4BFD3",
"i@	c #C6C2D6",
"j@	c #A9A5BB",
"k@	c #9995A8",
"l@	c #918CA0",
"m@	c #CAC7D9",
"n@	c #9D99B2",
"o@	c #8C88A1",
"p@	c #B5B0C6",
"q@	c #88849C",
"r@	c #8B879D",
"s@	c #D2CFDF",
"t@	c #DEDCE8",
"u@	c #868298",
"v@	c #9F9BB2",
"w@	c #9794A7",
"x@	c #C6C2D4",
"y@	c #D2CFDE",
"z@	c #827E97",
"A@	c #A9A4BF",
"B@	c #857CA9",
"C@	c #7364B2",
"D@	c #7566B4",
"E@	c #7263B2",
"F@	c #7060AF",
"G@	c #7365AE",
"H@	c #7E73AA",
"I@	c #9E97B8",
"J@	c #A39EB9",
"K@	c #7B759A",
"L@	c #B4AFC7",
"M@	c #D6D3E2",
"N@	c #8984A2",
"O@	c #847D9D",
"P@	c #C0BCD1",
"Q@	c #F5F5F8",
"R@	c #F8F8FB",
"S@	c #D0CCDD",
"T@	c #918BA9",
"U@	c #8F8AA8",
"V@	c #9B95B0",
"W@	c #DBD9E5",
"X@	c #8B86A4",
"Y@	c #8F8AA6",
"Z@	c #B0ACC4",
"`@	c #BEBACF",
" #	c #8983A2",
".#	c #A09AB5",
"+#	c #9A96AF",
"@#	c #A6A2BA",
"##	c #B1ADC3",
"$#	c #8A84A1",
"%#	c #A7A1BF",
"&#	c #7E74AA",
"*#	c #7366AD",
"=#	c #7160AF",
"-#	c #7061B2",
";#	c #7163B2",
">#	c #7061B1",
",#	c #6D5EB0",
"'#	c #6F60AE",
")#	c #7367AB",
"!#	c #786DA6",
"~#	c #736AA2",
"{#	c #7B71A3",
"]#	c #8279A6",
"^#	c #8078A4",
"/#	c #7B73A1",
"(#	c #7D74A0",
"_#	c #8079A3",
":#	c #8880A8",
"<#	c #8780A8",
"[#	c #847CA4",
"}#	c #7D76A0",
"|#	c #7E76A1",
"1#	c #837BA5",
"2#	c #8A82AB",
"3#	c #8C84AC",
"4#	c #857DA8",
"5#	c #8078A2",
"6#	c #827AA4",
"7#	c #8A82AA",
"8#	c #8C85AB",
"9#	c #847DA6",
"0#	c #8079A2",
"a#	c #847CA5",
"b#	c #8982A9",
"c#	c #857DA5",
"d#	c #877FA5",
"e#	c #847DA3",
"f#	c #817BA2",
"g#	c #7F77A2",
"h#	c #7D73A1",
"i#	c #796DA1",
"j#	c #776DA6",
"k#	c #7669AA",
"l#	c #6E60AD",
"m#	c #6E5FB0",
"n#	c #6F60B1",
"o#	c #6B5CAF",
"p#	c #6A5CAE",
"q#	c #6D5FAC",
"r#	c #7164AA",
"s#	c #7366A9",
"t#	c #776DA9",
"u#	c #7B70AA",
"v#	c #7C73AA",
"w#	c #7C72A9",
"x#	c #7F75AB",
"y#	c #8277AB",
"z#	c #8176AA",
"A#	c #7F75A9",
"B#	c #7D73A9",
"C#	c #7D74AB",
"D#	c #7F74AC",
"E#	c #7C73AB",
"F#	c #7E74AB",
"G#	c #7F75AC",
"H#	c #7F76AC",
"I#	c #7D74AA",
"J#	c #8176AC",
"K#	c #8076AA",
"L#	c #7F76AA",
"M#	c #796FA8",
"N#	c #7368A9",
"O#	c #7164A9",
"P#	c #6D5FAB",
"Q#	c #6B5CAE",
"R#	c #6D5DAE",
"S#	c #6A5AAE",
"T#	c #695AAC",
"U#	c #6B5CAB",
"V#	c #6F60AB",
"W#	c #7062AB",
"X#	c #7064AA",
"Y#	c #7366AB",
"Z#	c #7367AA",
"`#	c #7266AB",
" $	c #7568AB",
".$	c #7568AA",
"+$	c #7265AA",
"@$	c #7264A9",
"#$	c #6F60AA",
"$$	c #695AAD",
"%$	c #6757AD",
"&$	c #6657AC",
"*$	c #6859AB",
"=$	c #6A5BAB",
"-$	c #695BAB",
";$	c #6454AC",
">$	c #6856AB",
",$	c #6555AA",
"'$	c #6353A9",
")$	c #6353A7",
". . . . . . . . . . . . . . . . . . . . . . . . . . . . . . . + + + . . . . . . . . . . . . . . ",
"@ @ @ @ @ @ # # # # # @ @ @ @ @ @ @ @ @ # # $ $ $ % % % % % % % & & & % % % % % $ # # @ @ @ @ @ ",
"% % % % * = - - = ; ; > , , , % , , , , ' ' ) ) ) ) ) ) ! ! ! ! ! ! ! ! ~ ~ ~ { { - = * % % % % ",
"- - - ] ^ ^ / ( _ : < < [ { { { { { [ < < } | | | 1 1 1 1 1 1 2 2 2 2 1 1 3 4 5 6 7 8 ^ 9 - - - ",
"^ ^ 8 8 0 a b c d e 3 f g h h i i i j j k l m n o p q q r s r t u v w x r y z A B C D 0 E F ^ ^ ",
"G G H I J J K L M N O P Q R S T T U Q V s W X Y Z `  ...+.@.#.$.%.&.%.*.=.-.;.>.,.'.).J D H G G ",
"I I D !.~.).{.].^./.(._.:.<.[.}.|.1.2.3.4.5.6.7.8.9.0.^.a.b.c.^.d.^.^.e.f.g.^.^.h.i.j.k.l.!.I I ",
"!.!.l.m.n.o.p.q.^.r.s.t.u.v.w.@.x.*.y.z.A.B.C.D.E.F.^.^.G.H.I.J.K.^.L.M.N.O.L.^.P.Q.R.S.T.U.!.!.",
"V.m.~.W.X.Y.Z.`.^. +.+++@+D.#+$+9.%+&+*+=+-+;+^.>+,+'+)+!+~+{+]+^+^./+(+~+_+:+^.<+[+}+|+1+T.2+V.",
"T.3+4+5+6+7+8+9+^.0+a+^.b+c+J.d+e+^.f+g+^.h+i+^.j+k+l+m+n+o+L.p+q+^.r+s+t+&+u+^.v+w+x+y+z+A+B+T.",
"A+C+C+D+E+F+G+H+^.I+J+^.K+L+M+N.N+&+O+P+Q+R+S+Q+T+@+U+V+^.W+^.X+X+^.Y+^.Z+^.`+^. @.@+@@@#@$@%@A+",
"$@&@*@=@-@;@>@,@^.'@)@^.K+!@~@{@]@L.@+@+@+^@/@(@_@^.:@<@[@*+D.}@|@^.1@2@3@*+4@^.5@6@7@8@9@=@0@$@",
"a@a@=@9@b@c@d@e@^.f@g@^.h@f@_@i@j@s+k@l@m@n@o@p@^.n+q@r@s@^.t@u@v@^.w@x@^.y@z@^.A@B@c@b@C@D@a@a@",
"9@9@C@E@F@G@H@I@^.J@K@L@@+D.M@N@O@P@Q@R@S@T@U@V@^.W@X@Y@Z@^.`@ #.#^.+#@#^.##$#^.%#&#*#=#-#E@9@9@",
";#;#-#>#,#'#)#!#~#{#]#^#/#(#_#:#<#[#}#|#1#2#3#4#5#6#7#8#9#0#a#b#<#c#d#e#f#g#h#i#j#k#l#,#m#n#;#;#",
"m#m#m#,#o#p#q#r#s#t#u#v#v#w#&#x#y#z#A#B#x#C#D#E#v#F#G#H#x#I#x#J#x#x#K#L#K#w#M#N#O#P#Q#p#o#m#m#m#",
"R#R#R#Q#S#S#T#U#V#W#X#Y#Z#Z#Z#`# $.$.$.$`#Y#Y#Y#Y#Y#Y#Y#Y#Y#`#`#`#`#Z#Z#Z#+$@$#$U#T#T#S#S#R#R#R#",
"$$$$$$$$%$%$&$&$*$*$=$=$-$-$=$-$-$-$-$-$-$-$=$=$-$-$-$-$-$-$-$-$-$=$-$-$=$=$*$*$&$&$%$%$$$$$$$$$",
"&$&$&$&$&$&$;$;$;$;$>$>$>$>$>$>$>$>$>$>$>$>$>$>$>$>$>$>$>$>$>$>$>$>$>$>$>$>$;$;$;$;$&$&$&$&$&$&$",
",$,$,$,$,$,$,$,$,$,$,$,$'$'$'$,$,$,$'$,$,$,$,$,$,$,$,$,$,$,$,$,$,$,$,$,$,$,$,$,$,$,$,$,$,$,$,$,$",
")$)$)$)$)$)$)$)$)$)$)$)$)$)$)$)$)$)$)$)$)$)$)$)$)$)$)$)$)$)$)$)$)$)$)$)$)$)$)$)$)$)$)$)$)$)$)$)$"};
