/* XPM */
static char * icewm_hexley_xpm[] = {
"48 21 677 2",
"  	c None",
". 	c #5C6CCC",
"+ 	c #5A6ACA",
"@ 	c #5D6DCC",
"# 	c #5E6ECC",
"$ 	c #5B6AC8",
"% 	c #5968C6",
"& 	c #5968C5",
"* 	c #5968C4",
"= 	c #5968C3",
"- 	c #5A69C4",
"; 	c #5D6CC5",
"> 	c #5F6DC5",
", 	c #6270C7",
"' 	c #606FC5",
") 	c #5F6DC7",
"! 	c #5D6BC6",
"~ 	c #5D6CC7",
"{ 	c #606EC9",
"] 	c #6270CA",
"^ 	c #616FCA",
"/ 	c #5F6EC9",
"( 	c #5D6CC8",
"_ 	c #5766C2",
": 	c #5766C1",
"< 	c #5766C0",
"[ 	c #5766BF",
"} 	c #5966C1",
"| 	c #5966C2",
"1 	c #5968C2",
"2 	c #5968C1",
"3 	c #5968C0",
"4 	c #5968BF",
"5 	c #5968BE",
"6 	c #5A69BE",
"7 	c #5D6ABF",
"8 	c #6470C1",
"9 	c #6976C3",
"0 	c #6E71B4",
"a 	c #6C78C5",
"b 	c #6876C4",
"c 	c #6572C4",
"d 	c #6573C6",
"e 	c #6876C7",
"f 	c #6F7CCC",
"g 	c #707DCC",
"h 	c #6E7BCB",
"i 	c #6976C9",
"j 	c #6371C7",
"k 	c #5E6DC6",
"l 	c #5564BD",
"m 	c #5564BB",
"n 	c #5564BA",
"o 	c #5664B9",
"p 	c #5766BA",
"q 	c #5865BA",
"r 	c #5867BD",
"s 	c #5866BE",
"t 	c #5766BE",
"u 	c #5A67BD",
"v 	c #5A68BA",
"w 	c #5C69B9",
"x 	c #5D69B9",
"y 	c #5F6CBA",
"z 	c #6571BB",
"A 	c #707BBF",
"B 	c #7A72A9",
"C 	c #9E577D",
"D 	c #7A78B0",
"E 	c #796A9F",
"F 	c #727EC2",
"G 	c #7781C7",
"H 	c #808BCB",
"I 	c #8991CE",
"J 	c #9C6C9F",
"K 	c #8B95D3",
"L 	c #818CCF",
"M 	c #7481CB",
"N 	c #6775C5",
"O 	c #5F6DC3",
"P 	c #5361B7",
"Q 	c #5261B4",
"R 	c #5461B3",
"S 	c #5664B1",
"T 	c #5764B0",
"U 	c #5967B1",
"V 	c #5A68B7",
"W 	c #5B69B9",
"X 	c #5B69BA",
"Y 	c #5968BA",
"Z 	c #5968BB",
"` 	c #5B68BB",
" .	c #5C6ABB",
"..	c #5D6ABA",
"+.	c #5E6BB7",
"@.	c #5E6BB4",
"#.	c #606DB4",
"$.	c #636FB5",
"%.	c #6470B5",
"&.	c #646FB2",
"*.	c #646EB1",
"=.	c #6571B4",
"-.	c #6672B5",
";.	c #6570B1",
">.	c #6670B0",
",.	c #6570AE",
"'.	c #6974B1",
").	c #737DB8",
"!.	c #8674A0",
"~.	c #B05B78",
"{.	c #A65775",
"].	c #89688E",
"^.	c #BA4559",
"/.	c #7E7DAE",
"(.	c #8880B2",
"_.	c #BF476B",
":.	c #CF3E5D",
"<.	c #DB3956",
"[.	c #BA557D",
"}.	c #B85984",
"|.	c #8E81B6",
"1.	c #7B86CA",
"2.	c #6976C4",
"3.	c #5D6BBF",
"4.	c #515EB0",
"5.	c #5260AF",
"6.	c #5863AC",
"7.	c #5963A5",
"8.	c #56609B",
"9.	c #5963A2",
"0.	c #616DB0",
"a.	c #6370B8",
"b.	c #636FB9",
"c.	c #626EB9",
"d.	c #606DBA",
"e.	c #616DBB",
"f.	c #616EBA",
"g.	c #6570B9",
"h.	c #6672B6",
"i.	c #656FAE",
"j.	c #6069A3",
"k.	c #626BA1",
"l.	c #6A73AA",
"m.	c #6B73A7",
"n.	c #656D9C",
"o.	c #636B99",
"p.	c #6A72A3",
"q.	c #6E77AA",
"r.	c #6B73A4",
"s.	c #666E9C",
"t.	c #646B97",
"u.	c #636993",
"v.	c #686F98",
"w.	c #777EA8",
"x.	c #937696",
"y.	c #837794",
"z.	c #816681",
"A.	c #796C88",
"B.	c #857293",
"C.	c #976589",
"D.	c #966F95",
"E.	c #DA3C53",
"F.	c #AA4442",
"G.	c #AC4D41",
"H.	c #DD4054",
"I.	c #F93F5F",
"J.	c #EE4061",
"K.	c #917CAE",
"L.	c #7A85C7",
"M.	c #6572BF",
"N.	c #4F5BAC",
"O.	c #525EA9",
"P.	c #5B67A6",
"Q.	c #8188B7",
"R.	c #FFFFFF",
"S.	c #8991BA",
"T.	c #656EA4",
"U.	c #6B76B2",
"V.	c #6B74B2",
"W.	c #6872B2",
"X.	c #6873B5",
"Y.	c #6A75B8",
"Z.	c #6A76B9",
"`.	c #6A75B6",
" +	c #6B76B4",
".+	c #6E78B4",
"++	c #6E78B2",
"@+	c #6870A2",
"#+	c #E5E7F3",
"$+	c #D5D8EA",
"%+	c #686E95",
"&+	c #676D91",
"*+	c #E7E9F3",
"=+	c #848BAD",
"-+	c #6D7295",
";+	c #9AA0C1",
">+	c #979CBA",
",+	c #8E93B1",
"'+	c #917185",
")+	c #8D8A9F",
"!+	c #ADAEC3",
"~+	c #A65B75",
"{+	c #A1A1C0",
"]+	c #966667",
"^+	c #A46141",
"/+	c #90563B",
"(+	c #9A543C",
"_+	c #EA3C59",
":+	c #FC4061",
"<+	c #B94465",
"[+	c #9172A4",
"}+	c #6D78C0",
"|+	c #4C59A6",
"1+	c #515DA3",
"2+	c #5F68A2",
"3+	c #8288B1",
"4+	c #878EB1",
"5+	c #656B96",
"6+	c #6A719E",
"7+	c #656D9A",
"8+	c #636B98",
"9+	c #676F9F",
"0+	c #6D76AA",
"a+	c #6F77AB",
"b+	c #6B73A3",
"c+	c #686F9C",
"d+	c #6A719C",
"e+	c #6E769F",
"f+	c #696F95",
"g+	c #BABFD8",
"h+	c #F8F8FB",
"i+	c #626781",
"j+	c #6F738F",
"k+	c #A8ACC7",
"l+	c #64687E",
"m+	c #BBBFD7",
"n+	c #F3F4F9",
"o+	c #76798F",
"p+	c #FDFDFE",
"q+	c #AFB3CA",
"r+	c #766978",
"s+	c #BF9AA7",
"t+	c #FEFDFE",
"u+	c #B88F9F",
"v+	c #986F88",
"w+	c #867C8F",
"x+	c #8B7770",
"y+	c #AB7E68",
"z+	c #F4F3F3",
"A+	c #A27560",
"B+	c #EC3F5A",
"C+	c #EC3C59",
"D+	c #FF4062",
"E+	c #CE496F",
"F+	c #6F7ABE",
"G+	c #4A56A1",
"H+	c #505B9D",
"I+	c #60689D",
"J+	c #8188AD",
"K+	c #878CAA",
"L+	c #5E6381",
"M+	c #9CA1C0",
"N+	c #EEEFF6",
"O+	c #C9CCE1",
"P+	c #6E759B",
"Q+	c #AAAFCB",
"R+	c #F4F5F9",
"S+	c #F0F1F7",
"T+	c #9BA0BF",
"U+	c #686C88",
"V+	c #959AB6",
"W+	c #757991",
"X+	c #9398B1",
"Y+	c #FCFDFE",
"Z+	c #D3D6E6",
"`+	c #D2D4E5",
" @	c #5A5D6C",
".@	c #E0E2EE",
"+@	c #C9CCDF",
"@@	c #777A8E",
"#@	c #DCDEEB",
"$@	c #D8DBE8",
"%@	c #60626E",
"&@	c #D6CCD7",
"*@	c #EBDAE1",
"=@	c #AD9EAF",
"-@	c #6C6A7B",
";@	c #785750",
">@	c #6E4D4A",
",@	c #BEA59A",
"'@	c #A4A4A4",
")@	c #945540",
"!@	c #F73E5E",
"~@	c #CE3E5A",
"{@	c #8981B4",
"]@	c #6B76BA",
"^@	c #48549C",
"/@	c #4F5A99",
"(@	c #60689A",
"_@	c #8288AB",
":@	c #8489A5",
"<@	c #7A7E99",
"[@	c #A8ADC6",
"}@	c #8388A6",
"|@	c #A9ADCA",
"1@	c #8C91AE",
"2@	c #989CB6",
"3@	c #969BB4",
"4@	c #7D819C",
"5@	c #73778F",
"6@	c #9397AE",
"7@	c #BFC2D6",
"8@	c #D7D9E7",
"9@	c #9B9FB6",
"0@	c #F9F9FC",
"a@	c #5D606F",
"b@	c #A2A6BD",
"c@	c #7D8094",
"d@	c #AFB2C6",
"e@	c #FCFCFD",
"f@	c #5C5E69",
"g@	c #F6F7FA",
"h@	c #B8B9C7",
"i@	c #ACAFC1",
"j@	c #8A8DA4",
"k@	c #5F576C",
"l@	c #5F5366",
"m@	c #74626D",
"n@	c #836761",
"o@	c #AE4E43",
"p@	c #FE4062",
"q@	c #F63F5F",
"r@	c #996088",
"s@	c #7882BE",
"t@	c #606CB2",
"u@	c #465298",
"v@	c #4E5895",
"w@	c #5E6797",
"x@	c #8187A8",
"y@	c #8387A1",
"z@	c #A4A8C0",
"A@	c #61647C",
"B@	c #6B6F8A",
"C@	c #6F7490",
"D@	c #656981",
"E@	c #B7BBD1",
"F@	c #4A4D5C",
"G@	c #4C4F5F",
"H@	c #EFF0F6",
"I@	c #ABAEC7",
"J@	c #606376",
"K@	c #B7BACE",
"L@	c #EEEFF5",
"M@	c #A9ACC3",
"N@	c #75788B",
"O@	c #A3A6BB",
"P@	c #808398",
"Q@	c #808399",
"R@	c #84879A",
"S@	c #A7ABBE",
"T@	c #8A8C9A",
"U@	c #ABAFC0",
"V@	c #9497AE",
"W@	c #878AA2",
"X@	c #745561",
"Y@	c #755968",
"Z@	c #644F5A",
"`@	c #B14649",
" #	c #D44466",
".#	c #937DA4",
"+#	c #8089BE",
"@#	c #6570B2",
"##	c #5460A9",
"$#	c #445195",
"%#	c #4B5693",
"&#	c #5C6595",
"*#	c #8086A7",
"=#	c #82869F",
"-#	c #A3A7BF",
";#	c #686D86",
">#	c #7D83A0",
",#	c #6E728D",
"'#	c #B8BCD0",
")#	c #B2B5CC",
"!#	c #64687C",
"~#	c #C3C7D9",
"{#	c #F4F4F9",
"]#	c #81849C",
"^#	c #616374",
"/#	c #F1F2F7",
"(#	c #F0F1F6",
"_#	c #F9FAFC",
":#	c #646779",
"<#	c #81859D",
"[#	c #76798C",
"}#	c #E0E2EC",
"|#	c #F6F6FA",
"1#	c #F2F3F7",
"2#	c #686871",
"3#	c #A7A3AF",
"4#	c #9B9FB3",
"5#	c #7F798C",
"6#	c #825C61",
"7#	c #8E6558",
"8#	c #816B73",
"9#	c #AF5E80",
"0#	c #D04A6F",
"a#	c #8C94C3",
"b#	c #5763A8",
"c#	c #4D59A3",
"d#	c #454F93",
"e#	c #4B5593",
"f#	c #596194",
"g#	c #7E84A7",
"h#	c #8286A3",
"i#	c #777B96",
"j#	c #AEB1C9",
"k#	c #8287A3",
"l#	c #B1B5CD",
"m#	c #8D91AB",
"n#	c #797C93",
"o#	c #6F7289",
"p#	c #B8BCD1",
"q#	c #7E84A1",
"r#	c #6A6F8A",
"s#	c #9B9FB9",
"t#	c #F9F9FB",
"u#	c #666A82",
"v#	c #696D84",
"w#	c #C2C5D8",
"x#	c #D2D4E3",
"y#	c #64677D",
"z#	c #8084A0",
"A#	c #787C92",
"B#	c #B2B5CA",
"C#	c #C8CADA",
"D#	c #6D6F7D",
"E#	c #B1968A",
"F#	c #886F6C",
"G#	c #A57C5D",
"H#	c #E9CF99",
"I#	c #C08C64",
"J#	c #A26143",
"K#	c #9B5867",
"L#	c #D24465",
"M#	c #797AAD",
"N#	c #5E69A9",
"O#	c #4F5BA2",
"P#	c #49559E",
"Q#	c #434F92",
"R#	c #475291",
"S#	c #535B91",
"T#	c #7B81A8",
"U#	c #848AA9",
"V#	c #575D7C",
"W#	c #9A9EBA",
"X#	c #C7CADC",
"Y#	c #656B8B",
"Z#	c #5F6382",
"`#	c #AAAEC7",
" $	c #BEC1D6",
".$	c #6C7195",
"+$	c #6A7195",
"@$	c #797E9E",
"#$	c #CED0E0",
"$$	c #676D8D",
"%$	c #6B7192",
"&$	c #959AB7",
"*$	c #A7ABC5",
"=$	c #656B8A",
"-$	c #7F84A5",
";$	c #7A809D",
">$	c #8A8EAA",
",$	c #A0A4BB",
"'$	c #7A7E93",
")$	c #AF958E",
"!$	c #9B6952",
"~$	c #D2B88A",
"{$	c #EDD29D",
"]$	c #BE8F66",
"^$	c #995A3C",
"/$	c #A36246",
"($	c #898BAF",
"_$	c #707AB1",
":$	c #5661A3",
"<$	c #4B569C",
"[$	c #46529A",
"}$	c #414D90",
"|$	c #434E8F",
"1$	c #49548E",
"2$	c #4F578A",
"3$	c #4D5683",
"4$	c #535A87",
"5$	c #5A618E",
"6$	c #59608A",
"7$	c #555C84",
"8$	c #565C83",
"9$	c #5A6189",
"0$	c #606692",
"a$	c #606892",
"b$	c #5D638C",
"c$	c #585F84",
"d$	c #585F85",
"e$	c #5C638D",
"f$	c #616998",
"g$	c #636A9A",
"h$	c #5D6491",
"i$	c #595F88",
"j$	c #5B628B",
"k$	c #626A96",
"l$	c #646C98",
"m$	c #5D658F",
"n$	c #5A6188",
"o$	c #5D648D",
"p$	c #626A95",
"q$	c #606893",
"r$	c #5E658D",
"s$	c #60668E",
"t$	c #5E658B",
"u$	c #5E6589",
"v$	c #646A8D",
"w$	c #6F7593",
"x$	c #985065",
"y$	c #848092",
"z$	c #8C7E7E",
"A$	c #E9D19B",
"B$	c #F1D69E",
"C$	c #DAB080",
"D$	c #95573A",
"E$	c #A26041",
"F$	c #7F7A9A",
"G$	c #6A73AB",
"H$	c #535E9E",
"I$	c #485498",
"J$	c #445096",
"K$	c #404C8F",
"L$	c #404C8C",
"M$	c #434E8C",
"N$	c #47518B",
"O$	c #49538B",
"P$	c #4E588E",
"Q$	c #515B91",
"R$	c #535D92",
"S$	c #535D91",
"T$	c #535D90",
"U$	c #545D92",
"V$	c #555F94",
"W$	c #575F95",
"X$	c #565E93",
"Y$	c #555D91",
"Z$	c #545D90",
"`$	c #555E93",
" %	c #545F94",
".%	c #545D95",
"+%	c #535E93",
"@%	c #545D93",
"#%	c #555F95",
"$%	c #555F96",
"%%	c #545E92",
"&%	c #565F95",
"*%	c #565F93",
"=%	c #565F92",
"-%	c #5A6192",
";%	c #606797",
">%	c #6F759F",
",%	c #A8526F",
"'%	c #8B86A2",
")%	c #9D9AA2",
"!%	c #EFD59E",
"~%	c #F4D9A1",
"{%	c #EFCE97",
"]%	c #AB6544",
"^%	c #806770",
"/%	c #8D94BC",
"(%	c #6B74A9",
"_%	c #56609D",
":%	c #4A5697",
"<%	c #445093",
"[%	c #3F4A8C",
"}%	c #3F4A8B",
"|%	c #3F4A89",
"1%	c #414C89",
"2%	c #444D8A",
"3%	c #454F8B",
"4%	c #47528B",
"5%	c #48528D",
"6%	c #49538D",
"7%	c #48538E",
"8%	c #4A538E",
"9%	c #4A538D",
"0%	c #48538D",
"a%	c #48528E",
"b%	c #4C568E",
"c%	c #565D93",
"d%	c #A54F70",
"e%	c #8C7896",
"f%	c #7D6A71",
"g%	c #E8CC96",
"h%	c #F9DDA3",
"i%	c #E6C692",
"j%	c #A96443",
"k%	c #8E6159",
"l%	c #949ABF",
"m%	c #767EAD",
"n%	c #616AA1",
"o%	c #515B97",
"p%	c #465190",
"q%	c #3D4888",
"r%	c #3D4887",
"s%	c #3F4A87",
"t%	c #404A87",
"u%	c #404B87",
"v%	c #404A88",
"w%	c #434D89",
"x%	c #4C568F",
"y%	c #5E6799",
"z%	c #9C4F74",
"A%	c #906B8D",
"B%	c #875542",
"C%	c #AF7854",
"D%	c #DCBE8C",
"E%	c #A96E4C",
"F%	c #7F5A54",
"G%	c #83666C",
"H%	c #905F51",
"I%	c #845A52",
"J%	c #48528F",
"K%	c #3B4685",
"L%	c #3D4685",
"M%	c #404886",
"N%	c #565F94",
"O%	c #925077",
"P%	c #804057",
"Q%	c #654847",
"R%	c #8F5A44",
"S%	c #7E5C59",
"T%	c #9A5D42",
"U%	c #A56141",
"V%	c #805951",
"W%	c #805751",
"X%	c #845E5D",
"Y%	c #645D7B",
"Z%	c #525C94",
"`%	c #454F8C",
" &	c #3C4683",
".&	c #3A4481",
"+&	c #3D4783",
"@&	c #424C87",
"#&	c #4E578E",
"$&	c #645F8D",
"%&	c #6B648B",
"&&	c #6C7197",
"*&	c #888EB1",
"=&	c #646483",
"-&	c #574A59",
";&	c #675059",
">&	c #7D7FA0",
",&	c #737AA5",
"'&	c #636B9C",
")&	c #555D93",
"!&	c #49528B",
"~&	c #414B86",
"{&	c #3A447F",
"]&	c #3D4681",
"^&	c #424B83",
"/&	c #4A548A",
"(&	c #525B8E",
"_&	c #596192",
":&	c #69719E",
"<&	c #6D749F",
"[&	c #656C94",
"}&	c #636B9A",
"|&	c #565E91",
"1&	c #4C558B",
"2&	c #444E86",
"3&	c #3F4982",
"4&	c #3B4580",
". . . . . . . . . . . . . . . . . . . . . . . . . . . + + + . . . @ # @ @ . . . . @ . . . . . . ",
"$ $ % % % % % $ $ $ $ $ $ $ $ $ % % & & & * * * * * * * = = = - ; > , ' ) ! ~ { ] ] ^ / ( $ $ $ ",
"_ : < [ : } } | 1 1 1 * 1 1 1 1 2 2 3 4 4 4 4 4 5 5 5 5 5 5 6 7 8 9 0 a b c d e f g h i j k - * ",
"l m n o p q r r s t t t t t s r r u v v v w w w w w w x x x y z A B C D E F G H I J K L M N O 3 ",
"P Q R S T U V W X Y Y Z Z Z `  ...+.@.#.$.%.&.*.=.-.=.;.>.,.'.).!.~.{.].^./.(._.:.<.[.}.|.1.2.3.",
"4.5.6.7.8.9.0.a.b.c.d.e.e.f.b.g.h.i.j.k.l.m.n.o.p.q.r.s.t.u.v.w.x.y.z.A.B.C.D.E.F.G.H.I.J.K.L.M.",
"N.O.P.Q.R.S.T.U.V.W.X.Y.Z.`. +.+++@+#+$+%+&+*+R.=+-+;+R.>+R.R.,+'+)+R.R.!+~+{+]+^+/+(+_+:+<+[+}+",
"|+1+2+3+R.4+5+6+7+8+9+0+a+b+c+d+e+f+g+h+i+j+R.R.k+l+m+n+o+R.p+q+r+s+t+R.u+v+w+x+y+z+A+B+C+D+E+F+",
"G+H+I+J+R.K+L+M+N+h+O+P+&+Q+R+S+T+U+V+R.W+X+Y+Z+`+ @.@+@@@R.#@$@%@&@*@R.=@-@;@>@,@'@)@:+!@~@{@]@",
"^@/@(@_@R.:@<@R.[@}@n+|@1@R.2@3@R.4@5@R.6@7@8@9@0@a@p+b@c@R.d@e@f@g@h@R.i@j@k@l@m@n@o@p@q@r@s@t@",
"u@v@w@x@R.y@z@R.A@B@C@D@E@R+F@G@H@I@J@H@K@L@M@N@R.O@R.P@Q@R.R@R.S@R.T@R.U@V@W@X@Y@Z@`@ #.#+#@###",
"$#%#&#*#R.=#-#R.A@;#>#,#'#p+L@L@L@)#!#~#{#R.]#^#/#(#_#:#<#R.[#}#|#1#2#R.3#4#5#6#7#8#9#0#a#U.b#c#",
"d#e#f#g#R.h#i#R.j#k#{#l#m#e@n#o#p#q#r#s#R.t#u#v#w#R.x#y#z#R.A#B#R.C#D#R.E#F#G#H#I#J#K#L#M#N#O#P#",
"Q#R#S#T#R.U#V#W#L@_#X#Y#Z#`#1#g@ $.$+$@$R.#$$$%$&$R.*$=$-$R.;$>$R.,$'$R.)$!$~${$]$^$/$($_$:$<$[$",
"}$|$1$2$3$4$5$6$7$8$9$0$a$b$c$d$e$f$g$h$i$j$k$l$m$n$o$p$q$r$s$t$u$v$w$x$y$z$A$B$C$D$E$F$G$H$I$J$",
"K$L$M$N$O$P$Q$R$S$T$U$V$W$X$Y$Z$`$ %.%+%R$@%#%$%`$%%`$&%V$`$*%=%-%;%>%,%'%)%!%~%{%]%^%/%(%_%:%<%",
"[%}%|%1%2%3%4%5%6%6%6%7%8%9%9%9%0%a%a%5%5%5%5%a%5%5%0%0%0%0%6%6%b%c%n.d%e%f%g%h%i%j%k%l%m%n%o%p%",
"q%q%r%r%s%s%t%t%u%u%t%u%u%u%u%u%u%u%v%v%u%u%u%u%u%u%u%u%u%t%u%u%w%x%y%z%A%B%C%D%E%]%F%G%H%I%@%J%",
"r%r%K%K%K%K%L%L%L%L%L%L%L%L%L%L%L%L%L%L%L%L%L%L%L%L%L%L%L%L%L%L%M%3%N%O%P%Q%R%S%T%U%V%W%X%Y%Z%`%",
" & & & & & & & &.&.&.& & & &.& & & & & & & & & & & & & & & & & &+&@&#&$&%&&&*&=&-&;&>&,&'&)&!&~&",
"{&{&{&{&{&{&{&{&{&{&{&{&{&{&{&{&{&{&{&{&{&{&{&{&{&{&{&{&{&{&{&{&{&]&^&/&(&_&f$:&<&[&}&|&1&2&3&4&"};
