/* XPM */
static char * icewm_xpm[] = {
"48 21 516 2",
"  	c None",
". 	c #D44559",
"+ 	c #D24357",
"@ 	c #D04458",
"# 	c #CE4356",
"$ 	c #CD4356",
"% 	c #CC4356",
"& 	c #CA4356",
"* 	c #CA4154",
"= 	c #C84255",
"- 	c #C74255",
"; 	c #C64255",
"> 	c #C84454",
", 	c #C94354",
"' 	c #C94357",
") 	c #C84457",
"! 	c #C74457",
"~ 	c #C64457",
"{ 	c #C54457",
"] 	c #C54455",
"^ 	c #C54255",
"/ 	c #C54254",
"( 	c #C64154",
"_ 	c #C34053",
": 	c #C24154",
"< 	c #C14154",
"[ 	c #BF4254",
"} 	c #C04356",
"| 	c #C04454",
"1 	c #C44356",
"2 	c #C54355",
"3 	c #C44656",
"4 	c #C04658",
"5 	c #BF4859",
"6 	c #BF4A59",
"7 	c #BE4658",
"8 	c #BD4656",
"9 	c #BC4556",
"0 	c #BC4354",
"a 	c #BE4153",
"b 	c #C14053",
"c 	c #C54053",
"d 	c #C23F52",
"e 	c #BB4053",
"f 	c #B74154",
"g 	c #B74353",
"h 	c #B44657",
"i 	c #B34757",
"j 	c #B54859",
"k 	c #BD4758",
"l 	c #BF4759",
"m 	c #C04759",
"n 	c #C04558",
"o 	c #C14558",
"p 	c #C14758",
"q 	c #C1485A",
"r 	c #C0495A",
"s 	c #BC4B5C",
"t 	c #B94C5C",
"u 	c #B84E5E",
"v 	c #B95160",
"w 	c #B95261",
"x 	c #B65260",
"y 	c #B5535F",
"z 	c #B85362",
"A 	c #B95463",
"B 	c #B45462",
"C 	c #B35562",
"D 	c #B15462",
"E 	c #B25361",
"F 	c #B75363",
"G 	c #B55260",
"H 	c #AF4D5B",
"I 	c #AB4C59",
"J 	c #AF4958",
"K 	c #B24556",
"L 	c #B64254",
"M 	c #C03F52",
"N 	c #C13F52",
"O 	c #BE4052",
"P 	c #BC4052",
"Q 	c #B94152",
"R 	c #B04451",
"S 	c #B04454",
"T 	c #AD4A57",
"U 	c #A44D59",
"V 	c #9A4B57",
"W 	c #A14E59",
"X 	c #B4505F",
"Y 	c #BD5061",
"Z 	c #BE505F",
"` 	c #BE4F5E",
" .	c #BF4D5D",
"..	c #C04E5D",
"+.	c #BF4E5E",
"@.	c #BD5260",
"#.	c #BA5463",
"$.	c #B15461",
"%.	c #A2545E",
"&.	c #A05661",
"*.	c #AC5A66",
"=.	c #A85C66",
"-.	c #9A5A63",
";.	c #965962",
">.	c #A45C66",
",.	c #AB5F6A",
"'.	c #A55D67",
").	c #9A5B64",
"!.	c #945A62",
"~.	c #905761",
"{.	c #A45D67",
"].	c #AC5F69",
"^.	c #A05A64",
"/.	c #905059",
"(.	c #8E4C55",
"_.	c #9E505B",
":.	c #A94B59",
"<.	c #AA4653",
"[.	c #B64152",
"}.	c #BB4051",
"|.	c #B24252",
"1.	c #AB4150",
"2.	c #A94653",
"3.	c #A64F5D",
"4.	c #B7717A",
"5.	c #F2F2F2",
"6.	c #B97984",
"7.	c #A55762",
"8.	c #B55A68",
"9.	c #B55A66",
"0.	c #B55764",
"a.	c #B95664",
"b.	c #BC5866",
"c.	c #BD5867",
"d.	c #B95866",
"e.	c #B75A68",
"f.	c #B75D6A",
"g.	c #B45D6A",
"h.	c #A25A64",
"i.	c #EED3D6",
"j.	c #E5C3C8",
"k.	c #925F65",
"l.	c #8E5E65",
"m.	c #EDD5D9",
"n.	c #AB767F",
"o.	c #926369",
"p.	c #BF8B93",
"q.	c #B78990",
"r.	c #AB787E",
"s.	c #97646B",
"t.	c #A06A72",
"u.	c #BC8087",
"v.	c #A2525E",
"w.	c #A54752",
"x.	c #AA4050",
"y.	c #AF4252",
"z.	c #B44152",
"A.	c #AC4150",
"B.	c #A4404E",
"C.	c #A34553",
"D.	c #A1535E",
"E.	c #B0737B",
"F.	c #AF7982",
"G.	c #935B62",
"H.	c #9D5E66",
"I.	c #975B64",
"J.	c #955962",
"K.	c #9E5B64",
"L.	c #AB5E69",
"M.	c #AC606A",
"N.	c #9A5D65",
"O.	c #9B5E67",
"P.	c #9F616B",
"Q.	c #926066",
"R.	c #D4AAB1",
"S.	c #F3E7E7",
"T.	c #7D5A60",
"U.	c #8B666B",
"V.	c #C3999F",
"W.	c #7A5D61",
"X.	c #D3ABB1",
"Y.	c #F2E1E4",
"Z.	c #8B6D71",
"`.	c #F6EBEB",
" +	c #C499A0",
".+	c #7C5D62",
"++	c #B98E94",
"@+	c #B58189",
"#+	c #9C5760",
"$+	c #9F4653",
"%+	c #A33F4E",
"&+	c #A9404E",
"*+	c #AE4151",
"=+	c #AD4251",
"-+	c #A8414E",
";+	c #9F3E4C",
">+	c #9C4551",
",+	c #9B555F",
"'+	c #AC737C",
")+	c #A77A81",
"!+	c #7E565C",
"~+	c #BD8D94",
"{+	c #EFDDDF",
"]+	c #DCB8BD",
"^+	c #9A626B",
"/+	c #C89BA1",
"(+	c #F2E3E6",
"_+	c #F0DFE1",
":+	c #BC8C93",
"<+	c #846064",
"[+	c #B3888E",
"}+	c #8D6C70",
"|+	c #AD868D",
"1+	c #F9E8F0",
"2+	c #E1C2C7",
"3+	c #DFC2C5",
"4+	c #685457",
"5+	c #E8CFD3",
"6+	c #DAB9BD",
"7+	c #8A6E72",
"8+	c #E4CBCE",
"9+	c #E1C6C9",
"0+	c #D8B7BD",
"a+	c #E4C9CD",
"b+	c #B18289",
"c+	c #985A62",
"d+	c #9A4751",
"e+	c #9E3E4C",
"f+	c #A5404C",
"g+	c #A9404F",
"h+	c #AB404F",
"i+	c #A83F4E",
"j+	c #A7404E",
"k+	c #A43F4C",
"l+	c #9B3D4A",
"m+	c #984451",
"n+	c #98565F",
"o+	c #A9757C",
"p+	c #A2787E",
"q+	c #966F74",
"r+	c #C29AA0",
"s+	c #A4777D",
"t+	c #C79A9F",
"u+	c #AB7F86",
"v+	c #B28B90",
"w+	c #B08990",
"x+	c #997277",
"y+	c #8B6A6F",
"z+	c #AA878C",
"A+	c #D1B0B4",
"B+	c #E1C7CA",
"C+	c #B28E94",
"D+	c #F5E7E7",
"E+	c #6B575A",
"F+	c #B9959A",
"G+	c #907377",
"H+	c #C1A0A6",
"I+	c #F4ECEC",
"J+	c #635254",
"K+	c #BF9FA3",
"L+	c #B08289",
"M+	c #945961",
"N+	c #964550",
"O+	c #9A3D4A",
"P+	c #A13E4B",
"Q+	c #A53F4E",
"R+	c #A73F4D",
"S+	c #A43E4D",
"T+	c #A33E4D",
"U+	c #A03D4B",
"V+	c #973B48",
"W+	c #94434F",
"X+	c #95545E",
"Y+	c #A6747C",
"Z+	c #9E777D",
"`+	c #BC969C",
" @	c #785A5D",
".@	c #866367",
"+@	c #8C666C",
"@@	c #7D5D62",
"#@	c #CCA8AE",
"$@	c #594548",
"%@	c #5C464A",
"&@	c #EFDEE0",
"*@	c #C39DA1",
"=@	c #72595D",
"-@	c #C9A9AD",
";@	c #EDDDE0",
">@	c #BE9B9F",
",@	c #866D70",
"'@	c #B6969A",
")@	c #94767A",
"!@	c #957679",
"~@	c #967A7E",
"{@	c #B7979D",
"]@	c #917378",
"^@	c #AF8287",
"/@	c #92575F",
"(@	c #93434F",
"_@	c #963B49",
":@	c #9D3C49",
"<@	c #A13D4C",
"[@	c #A33D4C",
"}@	c #A03C4B",
"|@	c #9F3C4B",
"1@	c #9C3B49",
"2@	c #943947",
"3@	c #92404D",
"4@	c #93525C",
"5@	c #A5737B",
"6@	c #9C777C",
"7@	c #BB959B",
"8@	c #826066",
"9@	c #9E7179",
"0@	c #89666A",
"a@	c #CBA9AF",
"b@	c #C7A4A8",
"c@	c #785D61",
"d@	c #D4B4BA",
"e@	c #F2E3E3",
"f@	c #99767A",
"g@	c #705A5D",
"h@	c #EFE0E3",
"i@	c #EEE0E2",
"j@	c #F5E7EC",
"k@	c #755D60",
"l@	c #9A767B",
"m@	c #876E71",
"n@	c #E5D0D2",
"o@	c #F1E5E8",
"p@	c #6F575B",
"q@	c #AE8087",
"r@	c #92555D",
"s@	c #91434D",
"t@	c #933947",
"u@	c #993B47",
"v@	c #9D3B4A",
"w@	c #9F3B4A",
"x@	c #9E3C4A",
"y@	c #9A3B48",
"z@	c #933A46",
"A@	c #92404C",
"B@	c #924F58",
"C@	c #A57179",
"D@	c #A0767B",
"E@	c #936C71",
"F@	c #C5A0A4",
"G@	c #A0767C",
"H@	c #C9A2A8",
"I@	c #A88186",
"J@	c #906F73",
"K@	c #85676A",
"L@	c #CCA9AF",
"M@	c #9F727A",
"N@	c #866267",
"O@	c #B58E93",
"P@	c #F2E9E9",
"Q@	c #7E5E63",
"R@	c #806166",
"S@	c #D3B3B7",
"T@	c #DDC2C5",
"U@	c #795D60",
"V@	c #9D7479",
"W@	c #8F6E73",
"X@	c #C5A4A8",
"Y@	c #D1B3B7",
"Z@	c #76595D",
"`@	c #AF7D85",
" #	c #91525A",
".#	c #91414C",
"+#	c #983A47",
"@#	c #9B3A48",
"##	c #973946",
"$#	c #913845",
"%#	c #913C49",
"&#	c #904952",
"*#	c #A76D75",
"=#	c #A7777F",
"-#	c #794F56",
";#	c #B78C92",
">#	c #D7B8BC",
",#	c #885C63",
"'#	c #7F575B",
")#	c #C39CA1",
"!#	c #EFE2E4",
"~#	c #F2E5E8",
"{#	c #D1AFB3",
"]#	c #926268",
"^#	c #926169",
"/#	c #9C6D73",
"(#	c #DABFC2",
"_#	c #8A5E65",
":#	c #8E6269",
"<#	c #B4878E",
"[#	c #C1999E",
"}#	c #875C63",
"|#	c #A37279",
"1#	c #9B6E76",
"2#	c #A77D83",
"3#	c #B38A90",
"4#	c #855E63",
"5#	c #AF7A82",
"6#	c #904A54",
"7#	c #903E4A",
"8#	c #913844",
"9#	c #953846",
"0#	c #963946",
"a#	c #943846",
"b#	c #903644",
"c#	c #8F3845",
"d#	c #8D3F4B",
"e#	c #89454F",
"f#	c #82444E",
"g#	c #854A52",
"h#	c #8C5159",
"i#	c #885058",
"j#	c #824C54",
"k#	c #814D54",
"l#	c #875159",
"m#	c #8F565D",
"n#	c #8F5660",
"o#	c #89545B",
"p#	c #824F57",
"q#	c #834F57",
"r#	c #8B535B",
"s#	c #965760",
"t#	c #985961",
"u#	c #8F535B",
"v#	c #865057",
"w#	c #89525A",
"x#	c #935861",
"y#	c #955A63",
"z#	c #8D545D",
"A#	c #865159",
"B#	c #8B545C",
"C#	c #925861",
"D#	c #90565F",
"E#	c #8A555D",
"F#	c #8B575E",
"G#	c #88555D",
"H#	c #85535B",
"I#	c #855058",
"J#	c #834C53",
"K#	c #81474E",
"L#	c #884650",
"M#	c #8D414B",
"N#	c #8E3945",
"O#	c #923745",
"P#	c #943745",
"Q#	c #8E3543",
"R#	c #8C3643",
"S#	c #8C3945",
"T#	c #8B3D48",
"U#	c #8A3F4A",
"V#	c #8D444F",
"W#	c #904752",
"X#	c #914954",
"Y#	c #904954",
"Z#	c #8F4954",
"`#	c #914A54",
" $	c #934B56",
".$	c #934D56",
"+$	c #914C55",
"@$	c #8F4B54",
"#$	c #8F4A54",
"$$	c #924B55",
"%$	c #934A56",
"&$	c #944A54",
"*$	c #924955",
"=$	c #924A54",
"-$	c #944B56",
";$	c #954B56",
">$	c #914A55",
",$	c #944C56",
"'$	c #914C56",
")$	c #904C56",
"!$	c #904C55",
"~$	c #8E4953",
"{$	c #8C4650",
"]$	c #8A404C",
"^$	c #893D48",
"/$	c #8A3945",
"($	c #8C3642",
"_$	c #8D3543",
":$	c #8F3543",
"<$	c #8E3643",
"[$	c #8D3542",
"}$	c #8C3541",
"|$	c #8B3541",
"1$	c #893541",
"2$	c #893743",
"3$	c #8A3A44",
"4$	c #8B3B46",
"5$	c #8B3D4A",
"6$	c #8D3E49",
"7$	c #8C3F4A",
"8$	c #8E3E4A",
"9$	c #8D404A",
"0$	c #8C404A",
"a$	c #8D3E4A",
"b$	c #8E3E49",
"c$	c #8A3E49",
"d$	c #893D47",
"e$	c #893A44",
"f$	c #8A3541",
"g$	c #88333F",
"h$	c #87333F",
"i$	c #873542",
"j$	c #873641",
"k$	c #873643",
"l$	c #883641",
"m$	c #85313E",
"n$	c #85333D",
"o$	c #83323E",
"p$	c #81303C",
"q$	c #7F313C",
". . . . . . . . . . . . . . . . . . . . . . . . . . . . . . . + + + . . . . . . . . . . . . . . ",
"@ @ @ @ @ @ # # # # # @ @ @ @ @ @ @ @ @ # # $ $ $ % % % % % % % & & & % % % % % $ # # @ @ @ @ @ ",
"% % % % * = - ; = > > , ' ' ' % ' ' ' ' ) ) ! ~ ~ ~ ~ ~ { { { { { { { { ] ] ] ^ / ; = * % % % % ",
"- - - ( _ : < [ } | 1 1 2 ^ ^ ^ ^ ^ 2 1 1 3 4 4 4 5 5 5 5 5 5 6 6 6 6 5 5 7 8 9 0 a b : c - - - ",
"_ _ d b e f g h i j k l m n n o o o p q r s t u v w x y z A z B C D E F z G H I J K L e M N _ _ ",
"O O P Q R S T U V W X Y Z `  .....+.Z @.#.$.%.&.*.=.-.;.>.,.'.).!.~.!.{.].^./.(._.:.<.R [.}.O O ",
"Q Q [.|.1.2.3.4.5.6.7.8.9.0.a.b.c.d.e.f.g.h.i.j.k.l.m.5.n.o.p.5.q.5.5.r.s.t.5.5.u.v.w.x.y.z.Q Q ",
"|.|.y.A.B.C.D.E.5.F.G.H.I.J.K.L.M.{.N.O.P.Q.R.S.T.U.5.5.V.W.X.Y.Z.5.`. +.+++`.5.@+#+$+%+&+*+|.|.",
"=+A.1.-+;+>+,+'+5.)+!+~+{+S.]+^+l./+(+_+:+<+[+5.}+|+1+2+3+4+5+6+7+5.8+9+4+0+a+5.b+c+d+e+f+g+h+=+",
"g+i+j+k+l+m+n+o+5.p+q+5.r+s+Y.t+u+5.v+w+5.x+y+5.z+A+B+C+D+E+`.F+G+5.H+I+J+(+K+5.L+M+N+O+P+Q+R+g+",
"Q+S+T+U+V+W+X+Y+5.Z+`+5. @.@+@@@#@(+$@%@&@*@=@&@-@;@>@,@5.'@5.)@!@5.~@5.{@5.]@5.^@/@(@_@:@<@[@Q+",
"<@}@|@1@2@3@4@5@5.6@7@5. @8@9@0@a@`.;@;@;@b@c@d@e@5.f@g@h@i@j@k@l@5.m@n@o@i@p@5.q@r@s@t@u@v@w@<@",
"x@x@1@y@z@A@B@C@5.D@E@5.F@G@e@H@I@I+J@K@L@M@N@O@5.P@Q@R@S@5.T@U@V@5.W@X@5.Y@Z@5.`@ #.#z@+#@#x@x@",
"y@y@+###$#%#&#*#5.=#-#;#;@j@>#,#'#)#!#~#{#]#^#/#5.(#_#:#<#5.[#}#|#5.1#2#5.3#4#5.5#6#7#8#9###y@y@",
"0#0#9#a#b#c#d#e#f#g#h#i#j#k#l#m#n#o#p#q#r#s#t#u#v#w#x#y#z#A#B#C#D#E#F#G#H#I#J#K#L#M#N#b#O#P#0#0#",
"O#O#O#b#Q#R#S#T#U#V#W#X#Y#Z#`# $.$+$@$#$$$%$&$*$X#=$-$;$$$>$$$,$ $$$'$)$!$~${$]$^$/$($_$:$O#O#O#",
"<$<$<$[$}$|$1$2$3$4$5$6$7$7$7$8$9$0$0$0$a$b$b$6$6$6$6$b$6$6$a$a$a$a$7$7$7$c$d$e$2$1$1$}$}$<$<$<$",
"f$f$f$f$g$g$h$h$i$i$j$j$k$k$j$k$k$k$k$k$k$k$l$l$k$k$k$k$k$k$k$k$k$j$k$k$j$j$i$i$h$h$g$g$f$f$f$f$",
"h$h$h$h$h$h$m$m$m$m$n$n$n$n$n$n$n$n$n$n$n$n$n$n$n$n$n$n$n$n$n$n$n$n$n$n$n$n$m$m$m$m$h$h$h$h$h$h$",
"o$o$o$o$o$o$o$o$o$o$o$o$p$p$p$o$o$o$p$o$o$o$o$o$o$o$o$o$o$o$o$o$o$o$o$o$o$o$o$o$o$o$o$o$o$o$o$o$",
"q$q$q$q$q$q$q$q$q$q$q$q$q$q$q$q$q$q$q$q$q$q$q$q$q$q$q$q$q$q$q$q$q$q$q$q$q$q$q$q$q$q$q$q$q$q$q$q$"};
