/* XPM */
static char * maximizeA_xpm[] = {
"19 38 88 1",
" 	c None",
".	c #FFFFFF",
"+	c #A1A1A1",
"@	c #CFCFCF",
"#	c #D0D0D0",
"$	c #D1D1D1",
"%	c #D3D3D3",
"&	c #D4D4D4",
"*	c #D6D6D6",
"=	c #D7D7D7",
"-	c #D9D9D9",
";	c #DADADA",
">	c #DCDCDC",
",	c #DDDDDD",
"'	c #DEDEDE",
")	c #E0E0E0",
"!	c #E1E1E1",
"~	c #E3E3E3",
"{	c #E4E4E4",
"]	c #E6E6E6",
"^	c #FDFDFD",
"/	c #E7E7E7",
"(	c #FCFCFC",
"_	c #E9E9E9",
":	c #FBFBFB",
"<	c #414141",
"[	c #424242",
"}	c #434343",
"|	c #444444",
"1	c #454545",
"2	c #EAEAEA",
"3	c #F9F9F9",
"4	c #ECECEC",
"5	c #F8F8F8",
"6	c #464646",
"7	c #EDEDED",
"8	c #F7F7F7",
"9	c #EEEEEE",
"0	c #F5F5F5",
"a	c #474747",
"b	c #F0F0F0",
"c	c #F4F4F4",
"d	c #F1F1F1",
"e	c #F3F3F3",
"f	c #484848",
"g	c #F2F2F2",
"h	c #F6F6F6",
"i	c #EFEFEF",
"j	c #494949",
"k	c #FAFAFA",
"l	c #EBEBEB",
"m	c #919191",
"n	c #AAAAAA",
"o	c #6B6B6B",
"p	c #8A8A8A",
"q	c #8B8B8B",
"r	c #8D8D8D",
"s	c #8F8F8F",
"t	c #939393",
"u	c #949494",
"v	c #959595",
"w	c #969696",
"x	c #979797",
"y	c #989898",
"z	c #999999",
"A	c #A9A9A9",
"B	c #9A9A9A",
"C	c #A8A8A8",
"D	c #9B9B9B",
"E	c #A7A7A7",
"F	c #2B2B2B",
"G	c #2C2C2C",
"H	c #2D2D2D",
"I	c #2E2E2E",
"J	c #9C9C9C",
"K	c #A6A6A6",
"L	c #9D9D9D",
"M	c #A5A5A5",
"N	c #2F2F2F",
"O	c #9E9E9E",
"P	c #9F9F9F",
"Q	c #A3A3A3",
"R	c #A0A0A0",
"S	c #A2A2A2",
"T	c #303030",
"U	c #A4A4A4",
"V	c #313131",
"W	c #616161",
"..................+",
".@#$%&*=-;>,')!~{]+",
".@#$%&*=-;>,')!~{]+",
"^#$%&*=-;>,')!~{]/+",
"($%&*=-;>,')!~{]/_+",
":%&*<[[[}}||11]/_2+",
"3&*=[[[}}||111/_24+",
"5*=-[[}}||1116_247+",
"8=-;[}}||111662479+",
"0-;>}')!~{]/_a479b+",
"c;>,})!~{]/_2a79bd+",
"e>,'|!~{]/_24f9bde+",
"g,')|~{]/_247fbdec+",
"b')!1{]/_2479fdech+",
"i)!~1166aafffjech8+",
"9!~{]/_2479bdech83+",
"4~{]/_2479bdech83k+",
"l]/_2479bdech83k(^+",
"mmmmmmmmmmmmmmmmmm+",
"nnnnnnnnnnnnnnnnnno",
"npqqrrssmmttuvwxyzo",
"npqqrrssmmttuvwxyzo",
"AqqrrssmmttuvwxyzBo",
"CqrrssmmttuvwxyzBDo",
"ErrsFGGGHHHHIIzBDJo",
"KrssGGGHHHHIIIBDJLo",
"MssmGGHHHHIIINDJLOo",
"MsmmGHHHHIIINNJLOPo",
"QmmtHuvwxyzBDNLOPRo",
"QmttHvwxyzBDJNOPR+o",
"SttuHwxyzBDJLTPR+So",
"+tuvHxyzBDJLOTR+SQo",
"RuvwIyzBDJLOPT+SQUo",
"PvwxIINNNNTTTVSQUMo",
"PwxyzBDJLOPR+SQUMKo",
"LxyzBDJLOPR+SQUMKEo",
"LzBDJLOPR+SQUMKECAo",
"WWWWWWWWWWWWWWWWWWo"};
