/* XPM */
static char * titleAM_xpm[] = {
"96 19 572 2",
"  	c None",
". 	c #B5BCEA",
"+ 	c #8D99DD",
"@ 	c #717ECA",
"# 	c #727FCA",
"$ 	c #7481CB",
"% 	c #7683CC",
"& 	c #7380CB",
"* 	c #7884CC",
"= 	c #7986CD",
"- 	c #7C88CE",
"; 	c #7682CB",
"> 	c #7D89CE",
", 	c #7F8BCF",
"' 	c #7784CC",
") 	c #818DD0",
"! 	c #838ED0",
"~ 	c #7985CD",
"{ 	c #8590D1",
"] 	c #8792D2",
"^ 	c #7A86CD",
"/ 	c #8893D2",
"( 	c #7B87CD",
"_ 	c #8A95D3",
": 	c #8C97D4",
"< 	c #8E98D5",
"[ 	c #909AD5",
"} 	c #7E8ACE",
"| 	c #919BD6",
"1 	c #949DD7",
"2 	c #808BCF",
"3 	c #959FD7",
"4 	c #818CD0",
"5 	c #97A0D8",
"6 	c #99A2D8",
"7 	c #828DD0",
"8 	c #9BA4D9",
"9 	c #9CA5DA",
"0 	c #838FD1",
"a 	c #6C79C4",
"b 	c #6B78C4",
"c 	c #6E7BC5",
"d 	c #707CC6",
"e 	c #6D7AC4",
"f 	c #717EC6",
"g 	c #7480C7",
"h 	c #6F7BC5",
"i 	c #7682C8",
"j 	c #6F7CC5",
"k 	c #7783C9",
"l 	c #707DC6",
"m 	c #7A85CA",
"n 	c #717DC6",
"o 	c #7B87CA",
"p 	c #727EC7",
"q 	c #7D88CB",
"r 	c #737FC7",
"s 	c #7F8ACC",
"t 	c #818CCD",
"u 	c #7481C7",
"v 	c #838ECD",
"w 	c #7581C8",
"x 	c #858FCE",
"y 	c #8791CF",
"z 	c #7783C8",
"A 	c #8993D0",
"B 	c #7884C9",
"C 	c #8A95D0",
"D 	c #8D97D1",
"E 	c #7985C9",
"F 	c #8E98D2",
"G 	c #7A86CA",
"H 	c #909AD3",
"I 	c #7B86CA",
"J 	c #929CD3",
"K 	c #949ED4",
"L 	c #7C88CB",
"M 	c #969FD5",
"N 	c #7E89CB",
"O 	c #98A1D6",
"P 	c #7E8ACB",
"Q 	c #6572BE",
"R 	c #6874BF",
"S 	c #6673BE",
"T 	c #6976C0",
"U 	c #6774BF",
"V 	c #6B78C0",
"W 	c #6E7AC1",
"X 	c #6975BF",
"Y 	c #6F7BC2",
"Z 	c #717DC3",
"` 	c #6B77C0",
" .	c #747FC4",
"..	c #7581C5",
"+.	c #6C78C1",
"@.	c #7783C5",
"#.	c #6D79C1",
"$.	c #7A85C6",
"%.	c #7B87C7",
"&.	c #6E7AC2",
"*.	c #7D88C8",
"=.	c #808AC9",
"-.	c #707CC2",
";.	c #818CCA",
">.	c #838ECB",
",.	c #727EC3",
"'.	c #8690CC",
").	c #737FC4",
"!.	c #8892CC",
"~.	c #8993CD",
"{.	c #7480C4",
"].	c #8B95CE",
"^.	c #8E97CF",
"/.	c #7682C5",
"(.	c #8F99D0",
"_.	c #919AD0",
":.	c #7883C6",
"<.	c #939CD1",
"[.	c #7884C6",
"}.	c #949DD2",
"|.	c #5F6BB8",
"1.	c #616DB9",
"2.	c #636FB9",
"3.	c #606CB8",
"4.	c #6571BB",
"5.	c #626DB9",
"6.	c #6773BB",
"7.	c #626EB9",
"8.	c #6974BC",
"9.	c #646FBA",
"0.	c #6C77BD",
"a.	c #6470BA",
"b.	c #6E78BE",
"c.	c #6F7ABF",
"d.	c #6671BB",
"e.	c #727CC0",
"f.	c #6772BB",
"g.	c #747EC1",
"h.	c #6873BC",
"i.	c #7680C2",
"j.	c #7882C3",
"k.	c #6A75BD",
"l.	c #7A84C4",
"m.	c #6A76BD",
"n.	c #7C86C5",
"o.	c #6B76BD",
"p.	c #7E88C5",
"q.	c #6C77BE",
"r.	c #808AC7",
"s.	c #6D78BE",
"t.	c #828CC7",
"u.	c #6E79BE",
"v.	c #848DC8",
"w.	c #8790C9",
"x.	c #8991CA",
"y.	c #717BC0",
"z.	c #8A93CB",
"A.	c #717CC0",
"B.	c #8C95CC",
"C.	c #737DC0",
"D.	c #8F97CD",
"E.	c #737EC1",
"F.	c #9098CD",
"G.	c #5965B2",
"H.	c #5A66B2",
"I.	c #5D69B4",
"J.	c #5F6BB5",
"K.	c #5C68B3",
"L.	c #616CB5",
"M.	c #636EB6",
"N.	c #6671B8",
"O.	c #5E6AB4",
"P.	c #6772B8",
"Q.	c #6974B9",
"R.	c #606CB5",
"S.	c #6C77BB",
"T.	c #6E78BB",
"U.	c #626EB6",
"V.	c #707ABC",
"W.	c #737DBE",
"X.	c #646FB7",
"Y.	c #747EBE",
"Z.	c #6570B7",
"`.	c #7680BF",
" +	c #7983C1",
".+	c #7B85C2",
"++	c #7D86C2",
"@+	c #6873B9",
"#+	c #7F88C3",
"$+	c #828BC5",
"%+	c #6A75BA",
"&+	c #838CC5",
"*+	c #6B76BA",
"=+	c #858EC6",
"-+	c #8790C7",
";+	c #6D77BB",
">+	c #8A92C8",
",+	c #8C94C9",
"'+	c #6F79BC",
")+	c #5360AC",
"!+	c #525FAC",
"~+	c #5662AD",
"{+	c #5864AE",
"]+	c #5461AD",
"^+	c #5A66AF",
"/+	c #5C69B1",
"(+	c #5663AE",
"_+	c #5E6AB2",
":+	c #5764AE",
"<+	c #606CB3",
"[+	c #5865AF",
"}+	c #636FB4",
"|+	c #5965AF",
"1+	c #6571B5",
"2+	c #5A67B0",
"3+	c #6773B6",
"4+	c #5B67B0",
"5+	c #6974B7",
"6+	c #5C68B0",
"7+	c #6C77B8",
"8+	c #5D69B1",
"9+	c #6E79B9",
"0+	c #5E6AB1",
"a+	c #707BBA",
"b+	c #5F6BB2",
"c+	c #737DBB",
"d+	c #606CB2",
"e+	c #757FBC",
"f+	c #616DB3",
"g+	c #7781BD",
"h+	c #626EB3",
"i+	c #7A84BF",
"j+	c #626EB4",
"k+	c #7C85C0",
"l+	c #646FB4",
"m+	c #7E87C1",
"n+	c #6470B5",
"o+	c #8089C2",
"p+	c #828CC3",
"q+	c #6772B6",
"r+	c #848EC4",
"s+	c #6873B6",
"t+	c #868FC5",
"u+	c #4C59A6",
"v+	c #4F5CA7",
"w+	c #4D5AA6",
"x+	c #515EA8",
"y+	c #4E5BA7",
"z+	c #5360A9",
"A+	c #5662AB",
"B+	c #505DA8",
"C+	c #5864AC",
"D+	c #5A66AD",
"E+	c #535FA9",
"F+	c #5D69AE",
"G+	c #5F6BAF",
"H+	c #5460AA",
"I+	c #616DB0",
"J+	c #5562AA",
"K+	c #646FB2",
"L+	c #6671B3",
"M+	c #5763AB",
"N+	c #6873B4",
"O+	c #6B76B5",
"P+	c #5965AC",
"Q+	c #6D78B6",
"R+	c #6F7AB7",
"S+	c #5B67AD",
"T+	c #727CB9",
"U+	c #5C68AE",
"V+	c #747EBA",
"W+	c #7680BB",
"X+	c #5E69AF",
"Y+	c #7882BC",
"Z+	c #7B85BD",
"`+	c #606BB0",
" @	c #7D87BE",
".@	c #7F89BF",
"+@	c #626DB1",
"@@	c #828BC0",
"#@	c #636EB1",
"$@	c #838CC1",
"%@	c #4B57A1",
"&@	c #4D59A2",
"*@	c #4F5BA3",
"=@	c #4D58A2",
"-@	c #525EA5",
";@	c #4E5AA2",
">@	c #5460A6",
",@	c #4F5AA3",
"'@	c #5762A7",
")@	c #505CA3",
"!@	c #5964A8",
"~@	c #515CA4",
"{@	c #5B66A9",
"]@	c #5E68AA",
"^@	c #535EA5",
"/@	c #606BAC",
"(@	c #545FA5",
"_@	c #636DAD",
":@	c #5560A6",
"<@	c #656FAE",
"[@	c #5661A6",
"}@	c #6771AF",
"|@	c #6A73B1",
"1@	c #5863A8",
"2@	c #6C75B2",
"3@	c #6E77B3",
"4@	c #5A65A9",
"5@	c #717AB4",
"6@	c #737CB6",
"7@	c #5C67AA",
"8@	c #757EB7",
"9@	c #5D68AA",
"0@	c #7881B8",
"a@	c #7A83B9",
"b@	c #5F6AAB",
"c@	c #7C85BA",
"d@	c #606AAC",
"e@	c #7E87BB",
"f@	c #616CAC",
"g@	c #8189BD",
"h@	c #626CAD",
"i@	c #828BBE",
"j@	c #4A569C",
"k@	c #4B579C",
"l@	c #4E5A9E",
"m@	c #4C579D",
"n@	c #515C9F",
"o@	c #4D599D",
"p@	c #535EA1",
"q@	c #4E599E",
"r@	c #5560A2",
"s@	c #5863A3",
"t@	c #505B9F",
"u@	c #5A65A4",
"v@	c #5C67A6",
"w@	c #525DA0",
"x@	c #5F69A7",
"y@	c #616BA8",
"z@	c #545FA1",
"A@	c #636DA9",
"B@	c #6670AB",
"C@	c #5661A2",
"D@	c #6872AC",
"E@	c #5762A3",
"F@	c #6A74AD",
"G@	c #6D77AF",
"H@	c #5863A4",
"I@	c #6F79B0",
"J@	c #717BB1",
"K@	c #5B65A5",
"L@	c #737DB2",
"M@	c #767FB4",
"N@	c #5D67A6",
"O@	c #7881B5",
"P@	c #5E69A7",
"Q@	c #7A83B6",
"R@	c #7D85B7",
"S@	c #606AA8",
"T@	c #7F88B9",
"U@	c #828ABA",
"V@	c #626CA9",
"W@	c #4A5597",
"X@	c #495497",
"Y@	c #4D5899",
"Z@	c #4F5A9A",
"`@	c #4B5698",
" #	c #515C9B",
".#	c #545E9D",
"+#	c #56609E",
"@#	c #4E599A",
"##	c #58629F",
"$#	c #505A9B",
"%#	c #5B65A1",
"&#	c #505B9B",
"*#	c #5D67A2",
"=#	c #525C9C",
"-#	c #5F69A4",
";#	c #525D9C",
">#	c #616BA5",
",#	c #535E9D",
"'#	c #646EA6",
")#	c #555F9D",
"!#	c #6670A8",
"~#	c #55609E",
"{#	c #6972A9",
"]#	c #57619F",
"^#	c #6B74AA",
"/#	c #57629F",
"(#	c #6E76AC",
"_#	c #5963A0",
":#	c #7078AD",
"<#	c #5A64A0",
"[#	c #737BAF",
"}#	c #5A64A1",
"|#	c #757DB0",
"1#	c #5C66A2",
"2#	c #777FB1",
"3#	c #7981B2",
"4#	c #7C84B4",
"5#	c #5F68A3",
"6#	c #7E86B5",
"7#	c #606AA4",
"8#	c #8088B6",
"9#	c #616AA4",
"0#	c #485392",
"a#	c #4B5694",
"b#	c #495492",
"c#	c #4D5895",
"d#	c #4A5593",
"e#	c #4F5A96",
"f#	c #525D98",
"g#	c #4D5794",
"h#	c #545F99",
"i#	c #57619A",
"j#	c #4F5996",
"k#	c #59639C",
"l#	c #5C659D",
"m#	c #505B97",
"n#	c #5E679F",
"o#	c #525C97",
"p#	c #616AA0",
"q#	c #636CA2",
"r#	c #535D98",
"s#	c #656EA3",
"t#	c #6871A5",
"u#	c #555F9A",
"v#	c #6A73A6",
"w#	c #6C75A7",
"x#	c #57619B",
"y#	c #6F78A9",
"z#	c #717AAA",
"A#	c #737CAC",
"B#	c #5A649D",
"C#	c #757EAD",
"D#	c #7880AF",
"E#	c #5C669E",
"F#	c #7A82B0",
"G#	c #7D84B1",
"H#	c #5E689F",
"I#	c #7F86B2",
"J#	c #5F69A0",
"K#	c #8088B3",
"L#	c #47518D",
"M#	c #49538E",
"N#	c #4C5590",
"O#	c #4E5891",
"P#	c #4A548F",
"Q#	c #515A93",
"R#	c #4B558F",
"S#	c #535C94",
"T#	c #4C5690",
"U#	c #565F96",
"V#	c #4D5791",
"W#	c #586197",
"X#	c #5A6399",
"Y#	c #4F5992",
"Z#	c #5D669A",
"`#	c #505992",
" $	c #5F689C",
".$	c #515B93",
"+$	c #616A9D",
"@$	c #525B94",
"#$	c #636C9E",
"$$	c #535D95",
"%$	c #666FA0",
"&$	c #545D95",
"*$	c #6871A2",
"=$	c #555E95",
"-$	c #6B73A3",
";$	c #566096",
">$	c #6D75A5",
",$	c #576097",
"'$	c #7077A6",
")$	c #596298",
"!$	c #7279A7",
"~$	c #757CA9",
"{$	c #777EAA",
"]$	c #5B6499",
"^$	c #7980AC",
"/$	c #5C659A",
"($	c #7B82AD",
"_$	c #5E669B",
":$	c #7E85AF",
"<$	c #5E679B",
"[$	c #8086B0",
"}$	c #464F88",
"|$	c #475088",
"1$	c #4B538B",
"2$	c #485189",
"3$	c #4D558C",
"4$	c #49528A",
"5$	c #4F578E",
"6$	c #4A538A",
"7$	c #515A8F",
"8$	c #545C91",
"9$	c #4C558C",
"0$	c #565E92",
"a$	c #586094",
"b$	c #4E578D",
"c$	c #5B6396",
"d$	c #5D6597",
"e$	c #50598F",
"f$	c #606798",
"g$	c #636A9A",
"h$	c #525A8F",
"i$	c #656C9C",
"j$	c #535C90",
"k$	c #676E9D",
"l$	c #6A719F",
"m$	c #555D91",
"n$	c #6C73A0",
"o$	c #6E75A2",
"p$	c #575F93",
"q$	c #7077A3",
"r$	c #737AA5",
"s$	c #596194",
"t$	c #757CA6",
"u$	c #5B6395",
"v$	c #787EA8",
"w$	c #7A80A9",
"x$	c #5C6496",
"y$	c #7D83AB",
"z$	c #7F85AC",
"A$	c #5E6697",
"B$	c #464F83",
"C$	c #454E83",
"D$	c #495285",
"E$	c #4B5487",
"F$	c #475084",
"G$	c #4D5688",
"H$	c #50598A",
"I$	c #4A5286",
"J$	c #525B8C",
"K$	c #4A5386",
"L$	c #555D8D",
"M$	c #4C5487",
"N$	c #57608F",
"O$	c #4D5588",
"P$	c #5A6291",
"Q$	c #4E5789",
"R$	c #5C6492",
"S$	c #4F5789",
"T$	c #5E6694",
"U$	c #4F588A",
"V$	c #616995",
"W$	c #51598B",
"X$	c #636B97",
"Y$	c #525A8B",
"Z$	c #656D98",
"`$	c #535B8C",
" %	c #68709A",
".%	c #545C8D",
"+%	c #6A729C",
"@%	c #555D8E",
"#%	c #6D749D",
"$%	c #565E8E",
"%%	c #70769F",
"&%	c #575F8F",
"*%	c #7279A1",
"=%	c #586090",
"-%	c #747BA2",
";%	c #596190",
">%	c #767DA4",
",%	c #797FA6",
"'%	c #5B6392",
")%	c #7B82A7",
"!%	c #5D6493",
"~%	c #7D84A8",
"{%	c #5D6593",
"]%	c #4B58A2",
". . . . . . . . . . . . . . . . . . . . . . . . . . . . . . . . . . . . . . . . . . . . . . . . . . . . . . . . . . . . . . . . . . . . . . . . . . . . . . . . . . . . . . . . . . . . . . . . ",
"+ + + + + + + + + + + + + + + + + + + + + + + + + + + + + + + + + + + + + + + + + + + + + + + + + + + + + + + + + + + + + + + + + + + + + + + + + + + + + + + + + + + + + + + + + + + + + + + + ",
"@ @ # @ @ @ $ # @ @ % & @ @ * $ @ @ = $ @ @ - ; @ @ > % @ @ , ' @ @ ) * @ @ ! ~ @ @ { = @ @ ] ^ @ @ / ( @ @ _ - @ @ : - @ @ < > @ @ [ } @ @ | , @ @ 1 2 @ @ 3 4 @ @ 5 ) @ @ 6 7 @ @ 8 ! @ @ 9 0 ",
"@ # @ @ @ $ # @ @ % & @ @ * $ @ @ = $ @ @ - ; @ @ > % @ @ , ' @ @ ) * @ @ ! ~ @ @ { = @ @ ] ^ @ @ / ( @ @ _ - @ @ : - @ @ < > @ @ [ } @ @ | , @ @ 1 2 @ @ 3 4 @ @ 5 ) @ @ 6 7 @ @ 8 ! @ @ 9 0 @ ",
"a b b b c a b b d e b b f c b b g h b b i j b b k l b b m n b b o p b b q r b b s r b b t u b b v w b b x i b b y z b b A B b b C B b b D E b b F G b b H I b b J o b b K L b b M N b b O P b b ",
"Q Q Q R S Q Q T U Q Q V R Q Q W X Q Q Y T Q Q Z ` Q Q  .V Q Q ..+.Q Q @.#.Q Q $.W Q Q %.&.Q Q *.Y Q Q =.-.Q Q ;.Z Q Q >.,.Q Q '.).Q Q !. .Q Q ~.{.Q Q ]...Q Q ^./.Q Q (.@.Q Q _.:.Q Q <.[.Q Q }.",
"|.|.1.|.|.|.2.3.|.|.4.5.|.|.6.7.|.|.8.9.|.|.0.a.|.|.b.4.|.|.c.d.|.|.e.f.|.|.g.h.|.|.i.8.|.|.j.k.|.|.l.m.|.|.n.o.|.|.p.q.|.|.r.s.|.|.t.u.|.|.v.c.|.|.w.c.|.|.x.y.|.|.z.A.|.|.B.C.|.|.D.E.|.|.F.g.",
"G.H.G.G.G.I.H.G.G.J.K.G.G.L.K.G.G.M.I.G.G.N.O.G.G.P.J.G.G.Q.R.G.G.S.L.G.G.T.U.G.G.V.M.G.G.W.X.G.G.Y.Z.G.G.`.N.G.G. +N.G.G..+P.G.G.++@+G.G.#+Q.G.G.$+%+G.G.&+*+G.G.=+S.G.G.-+;+G.G.>+T.G.G.,+'+G.",
")+!+!+!+~+)+!+!+{+]+!+!+^+~+!+!+/+(+!+!+_+:+!+!+<+[+!+!+}+|+!+!+1+2+!+!+3+4+!+!+5+6+!+!+7+8+!+!+9+0+!+!+a+b+!+!+c+d+!+!+e+f+!+!+g+h+!+!+i+j+!+!+k+l+!+!+m+n+!+!+o+1+!+!+p+q+!+!+r+s+!+!+t+5+!+!+",
"u+u+u+v+w+u+u+x+y+u+u+z+v+u+u+A+B+u+u+C+x+u+u+D+E+u+u+F+z+u+u+G+H+u+u+I+J+u+u+K+A+u+u+L+M+u+u+N+C+u+u+O+P+u+u+Q+D+u+u+R+S+u+u+T+U+u+u+V+F+u+u+W+X+u+u+Y+G+u+u+Z+`+u+u+ @I+u+u+.@+@u+u+@@#@u+u+$@",
"%@%@&@%@%@%@*@=@%@%@-@;@%@%@>@,@%@%@'@)@%@%@!@~@%@%@{@-@%@%@]@^@%@%@/@(@%@%@_@:@%@%@<@[@%@%@}@'@%@%@|@1@%@%@2@!@%@%@3@4@%@%@5@{@%@%@6@7@%@%@8@9@%@%@0@]@%@%@a@b@%@%@c@d@%@%@e@f@%@%@g@h@%@%@i@_@",
"j@k@j@j@j@l@m@j@j@n@o@j@j@p@q@j@j@r@l@j@j@s@t@j@j@u@n@j@j@v@w@j@j@x@p@j@j@y@z@j@j@A@r@j@j@B@C@j@j@D@E@j@j@F@s@j@j@G@H@j@j@I@u@j@j@J@K@j@j@L@v@j@j@M@N@j@j@O@P@j@j@Q@x@j@j@R@S@j@j@T@y@j@j@U@V@j@",
"W@X@X@X@Y@W@X@X@Z@`@X@X@ #Y@X@X@.#Y@X@X@+#@#X@X@##$#X@X@%#&#X@X@*#=#X@X@-#;#X@X@>#,#X@X@'#)#X@X@!#~#X@X@{#]#X@X@^#/#X@X@(#_#X@X@:#<#X@X@[#}#X@X@|#1#X@X@2#1#X@X@3#*#X@X@4#5#X@X@6#7#X@X@8#9#X@X@",
"0#0#0#a#b#0#0#c#d#0#0#e#a#0#0#f#g#0#0#h#c#0#0#i#j#0#0#k#e#0#0#l#m#0#0#n#o#0#0#p#f#0#0#q#r#0#0#s#h#0#0#t#u#0#0#v#i#0#0#w#x#0#0#y#k#0#0#z#k#0#0#A#B#0#0#C#l#0#0#D#E#0#0#F#n#0#0#G#H#0#0#I#J#0#0#K#",
"L#L#M#L#L#L#N#M#L#L#O#P#L#L#Q#R#L#L#S#T#L#L#U#V#L#L#W#O#L#L#X#Y#L#L#Z#`#L#L# $.$L#L#+$@$L#L##$$$L#L#%$&$L#L#*$=$L#L#-$;$L#L#>$,$L#L#'$)$L#L#!$)$L#L#~$X#L#L#{$]$L#L#^$/$L#L#($_$L#L#:$<$L#L#[$ $",
"}$|$}$}$}$1$2$}$}$3$4$}$}$5$6$}$}$7$1$}$}$8$9$}$}$0$3$}$}$a$b$}$}$c$5$}$}$d$e$}$}$f$7$}$}$g$h$}$}$i$j$}$}$k$8$}$}$l$m$}$}$n$0$}$}$o$p$}$}$q$a$}$}$r$s$}$}$t$u$}$}$v$c$}$}$w$x$}$}$y$d$}$}$z$A$}$",
"B$C$C$C$D$B$C$C$E$F$C$C$G$D$C$C$H$I$C$C$J$K$C$C$L$M$C$C$N$O$C$C$P$Q$C$C$R$S$C$C$T$U$C$C$V$W$C$C$X$Y$C$C$Z$`$C$C$ %.%C$C$+%@%C$C$#%$%C$C$%%&%C$C$*%=%C$C$-%;%C$C$>%P$C$C$,%'%C$C$)%!%C$C$~%{%C$C$",
"C$C$C$D$B$C$C$E$F$C$C$G$D$C$C$H$I$C$C$J$K$C$C$L$M$C$C$N$O$C$C$P$Q$C$C$R$S$C$C$T$U$C$C$V$W$C$C$X$Y$C$C$Z$`$C$C$ %.%C$C$+%@%C$C$#%$%C$C$%%&%C$C$*%=%C$C$-%;%C$C$>%P$C$C$,%'%C$C$)%!%C$C$~%{%C$C$~%",
"]%]%]%]%]%]%]%]%]%]%]%]%]%]%]%]%]%]%]%]%]%]%]%]%]%]%]%]%]%]%]%]%]%]%]%]%]%]%]%]%]%]%]%]%]%]%]%]%]%]%]%]%]%]%]%]%]%]%]%]%]%]%]%]%]%]%]%]%]%]%]%]%]%]%]%]%]%]%]%]%]%]%]%]%]%]%]%]%]%]%]%]%]%]%]%]%"};
