/* XPM */
static char * titleAP_xpm[] = {
"6 19 20 1",
" 	c None",
".	c #2E3563",
"+	c #B5BCEA",
"@	c #8D99DD",
"#	c #717ECA",
"$	c #6B78C4",
"%	c #6572BE",
"&	c #5F6BB8",
"*	c #5965B2",
"=	c #525FAC",
"-	c #4C59A6",
";	c #4B57A1",
">	c #4A569C",
",	c #495497",
"'	c #485392",
")	c #47518D",
"!	c #464F88",
"~	c #454E83",
"{	c #424C80",
"]	c #4B58A2",
".+++++",
".@@@@@",
".#####",
".#####",
".$$$$$",
".%%%%%",
".&&&&&",
".*****",
".=====",
".-----",
".;;;;;",
".>>>>>",
".,,,,,",
".'''''",
".)))))",
".!!!!!",
".~~~~~",
".{{{{{",
".]]]]]"};
