/* XPM */
static char * titleAM_xpm[] = {
"96 19 571 2",
"  	c None",
". 	c #EC9EA9",
"+ 	c #E27686",
"@ 	c #CF5C6D",
"# 	c #CF5D6E",
"$ 	c #D05F70",
"% 	c #D16172",
"& 	c #D05E6F",
"* 	c #D16373",
"= 	c #D26475",
"- 	c #D26777",
"; 	c #D06171",
"> 	c #D26878",
", 	c #D36A7A",
"' 	c #D16273",
") 	c #D46C7C",
"! 	c #D46E7D",
"~ 	c #D26474",
"{ 	c #D5707F",
"] 	c #D67281",
"^ 	c #D26575",
"/ 	c #D57382",
"( 	c #D16676",
"_ 	c #D67584",
": 	c #D77786",
"< 	c #D87987",
"[ 	c #D87B89",
"} 	c #D26979",
"| 	c #D97C8A",
"1 	c #DA7F8B",
"2 	c #D36B7A",
"3 	c #D9808E",
"4 	c #D46C7B",
"5 	c #DA828F",
"6 	c #DA8591",
"7 	c #D46D7C",
"8 	c #DB8693",
"9 	c #DC8794",
"0 	c #D56E7E",
"a 	c #C95868",
"b 	c #C95767",
"c 	c #CA5A6A",
"d 	c #CB5C6B",
"e 	c #C9596A",
"f 	c #CB5D6E",
"g 	c #CB606F",
"h 	c #CA5B6A",
"i 	c #CC6271",
"j 	c #CA5B6C",
"k 	c #CD6372",
"l 	c #CB5C6C",
"m 	c #CE6674",
"n 	c #CB5D6C",
"o 	c #CE6776",
"p 	c #CC5E6D",
"q 	c #CF6977",
"r 	c #CC5F6E",
"s 	c #D06B79",
"t 	c #D16D7B",
"u 	c #CB6071",
"v 	c #D06F7D",
"w 	c #CC6170",
"x 	c #D1717E",
"y 	c #D27380",
"z 	c #CC6372",
"A 	c #D37582",
"B 	c #CD6473",
"C 	c #D37685",
"D 	c #D47986",
"E 	c #CD6574",
"F 	c #D57A87",
"G 	c #CE6675",
"H 	c #D57C89",
"I 	c #CE6775",
"J 	c #D57E8B",
"K 	c #D6808D",
"L 	c #CF6877",
"M 	c #D7828E",
"N 	c #CF6A78",
"O 	c #D88490",
"P 	c #CF6A7A",
"Q 	c #C35162",
"R 	c #C45464",
"S 	c #C35263",
"T 	c #C55566",
"U 	c #C45364",
"V 	c #C55768",
"W 	c #C55A6A",
"X 	c #C45565",
"Y 	c #C65B6B",
"Z 	c #C75D6D",
"` 	c #C55767",
" .	c #C8606F",
"..	c #C96171",
"+.	c #C65868",
"@.	c #C96373",
"#.	c #C65969",
"$.	c #C96775",
"%.	c #CA6777",
"&.	c #C75A6A",
"*.	c #CB6978",
"=.	c #CC6C7A",
"-.	c #C65C6C",
";.	c #CD6D7C",
">.	c #CE6F7E",
",.	c #C75E6E",
"'.	c #CF7280",
").	c #C85F6F",
"!.	c #CE7582",
"~.	c #CF7583",
"{.	c #C86070",
"].	c #D07785",
"^.	c #D17B87",
"/.	c #C96272",
"(.	c #D27B89",
"_.	c #D27E8A",
":.	c #CA6473",
"<.	c #D3808C",
"[.	c #CA6474",
"}.	c #D4808D",
"|.	c #BD4C5B",
"1.	c #BE4E5D",
"2.	c #BE505F",
"3.	c #BD4D5C",
"4.	c #C05261",
"5.	c #BE4F5D",
"6.	c #BF5463",
"7.	c #BE4F5E",
"8.	c #C05664",
"9.	c #BF515F",
"0.	c #C15967",
"a.	c #BF5160",
"b.	c #C25B68",
"c.	c #C35C6A",
"d.	c #C05361",
"e.	c #C45F6C",
"f.	c #BF5462",
"g.	c #C5616E",
"h.	c #C05563",
"i.	c #C56370",
"j.	c #C66572",
"k.	c #C15765",
"l.	c #C76774",
"m.	c #C15766",
"n.	c #C86976",
"o.	c #C15866",
"p.	c #C86B78",
"q.	c #C25967",
"r.	c #CA6D7A",
"s.	c #C25A68",
"t.	c #C96F7C",
"u.	c #C25B69",
"v.	c #CA717D",
"w.	c #CB7480",
"x.	c #CC7681",
"y.	c #C45E6B",
"z.	c #CD7783",
"A.	c #C45E6C",
"B.	c #CE7985",
"C.	c #C4606D",
"D.	c #CE7C87",
"E.	c #C5606E",
"F.	c #CE7D88",
"G.	c #B74756",
"H.	c #B74857",
"I.	c #B94A5A",
"J.	c #BA4C5C",
"K.	c #B84A59",
"L.	c #B94F5D",
"M.	c #BA515F",
"N.	c #BC5462",
"O.	c #B94C5B",
"P.	c #BC5563",
"Q.	c #BD5765",
"R.	c #BA4E5D",
"S.	c #BF5968",
"T.	c #BE5C68",
"U.	c #BA505F",
"V.	c #BF5E6B",
"W.	c #C1616D",
"X.	c #BB5260",
"Y.	c #C1626F",
"Z.	c #BB5361",
"`.	c #C26471",
" +	c #C46673",
".+	c #C56875",
"++	c #C46B76",
"@+	c #BD5564",
"#+	c #C56D78",
"$+	c #C7707B",
"%+	c #BE5766",
"&+	c #C7717C",
"*+	c #BE5967",
"=+	c #C8737E",
"-+	c #C97580",
";+	c #BF5B67",
">+	c #C97882",
",+	c #CA7A84",
"'+	c #BF5D69",
")+	c #AC4655",
"!+	c #AC4554",
"~+	c #AE4856",
"{+	c #B04957",
"]+	c #AE4756",
"^+	c #B24958",
"/+	c #B64A5A",
"(+	c #B04757",
"_+	c #B64C5B",
":+	c #B04858",
"<+	c #B74E5D",
"[+	c #B24858",
"}+	c #B85160",
"|+	c #B24957",
"1+	c #B95362",
"2+	c #B44959",
"3+	c #BA5564",
"4+	c #B44A59",
"5+	c #BB5765",
"6+	c #BB5A68",
"7+	c #B54B5A",
"8+	c #BC5C6A",
"9+	c #B54C5B",
"0+	c #BD5E6C",
"a+	c #B64D5C",
"b+	c #BE616E",
"c+	c #B64E5D",
"d+	c #BF6370",
"e+	c #B74F5E",
"f+	c #C06572",
"g+	c #B7505F",
"h+	c #C16875",
"i+	c #B8505F",
"j+	c #C26A76",
"k+	c #B85260",
"l+	c #C36C78",
"m+	c #B95261",
"n+	c #C46E7A",
"o+	c #C5707D",
"p+	c #BA5563",
"q+	c #C6727F",
"r+	c #BA5664",
"s+	c #C77480",
"t+	c #A6404E",
"u+	c #A74352",
"v+	c #A64150",
"w+	c #A84554",
"x+	c #A74250",
"y+	c #A94756",
"z+	c #AB4957",
"A+	c #A84452",
"B+	c #AD4A58",
"C+	c #AF4B59",
"D+	c #A94754",
"E+	c #B24C5B",
"F+	c #B34E5D",
"G+	c #AA4855",
"H+	c #B4505F",
"I+	c #AA4957",
"J+	c #B65260",
"K+	c #B75462",
"L+	c #AC4A58",
"M+	c #B75664",
"N+	c #B85A68",
"O+	c #AE4A59",
"P+	c #B95C6A",
"Q+	c #BA5E6C",
"R+	c #B04B5A",
"S+	c #BC606D",
"T+	c #B14B5A",
"U+	c #BC626F",
"V+	c #BD6471",
"W+	c #B34C5A",
"X+	c #BE6673",
"Y+	c #BF6976",
"Z+	c #B44E5C",
"`+	c #C06B78",
" @	c #C16D7A",
".@	c #B5505E",
"+@	c #C1717C",
"@@	c #B55260",
"#@	c #C2717D",
"$@	c #A13F4D",
"%@	c #A2414F",
"&@	c #A34351",
"*@	c #A2414E",
"=@	c #A54654",
"-@	c #A24250",
";@	c #A54856",
">@	c #A34350",
",@	c #A64B58",
"'@	c #A34452",
")@	c #A84C59",
"!@	c #A44552",
"~@	c #AA4D5A",
"{@	c #AC4F5B",
"]@	c #A54754",
"^@	c #AF4F5D",
"/@	c #A44855",
"(@	c #B0525F",
"_@	c #A54956",
":@	c #B15461",
"<@	c #A54A57",
"[@	c #B25663",
"}@	c #B45965",
"|@	c #A84C58",
"1@	c #B55B67",
"2@	c #B55D69",
"3@	c #A94D59",
"4@	c #B6606C",
"5@	c #B8626E",
"6@	c #AB4D5B",
"7@	c #B96470",
"8@	c #AC4E5C",
"9@	c #BA6773",
"0@	c #BA6975",
"a@	c #AE4F5D",
"b@	c #BB6B77",
"c@	c #AF4F5C",
"d@	c #BC6D79",
"e@	c #AF505E",
"f@	c #BE707A",
"g@	c #B0515E",
"h@	c #BF717D",
"i@	c #9C3F4C",
"j@	c #9C404D",
"k@	c #9E4350",
"l@	c #9D414D",
"m@	c #9E4652",
"n@	c #9D424F",
"o@	c #A04754",
"p@	c #9E434F",
"q@	c #A14956",
"r@	c #A24C59",
"s@	c #9F4451",
"t@	c #A34E5B",
"u@	c #A64F5C",
"v@	c #9F4653",
"w@	c #A8515D",
"x@	c #AA525E",
"y@	c #A04855",
"z@	c #AB5360",
"A@	c #AD5663",
"B@	c #A14A57",
"C@	c #AE5865",
"D@	c #A24B58",
"E@	c #AF5A67",
"F@	c #B15D6A",
"G@	c #A34C59",
"H@	c #B25F6C",
"I@	c #B3616E",
"J@	c #A44F5B",
"K@	c #B46370",
"L@	c #B56671",
"M@	c #A6505C",
"N@	c #B66873",
"O@	c #A8505E",
"P@	c #B76A75",
"Q@	c #B86D77",
"R@	c #A9515E",
"S@	c #BA6F7A",
"T@	c #BA727C",
"U@	c #AB525F",
"V@	c #973F4C",
"W@	c #973E4A",
"X@	c #99424E",
"Y@	c #994450",
"Z@	c #98404C",
"`@	c #9A4652",
" #	c #9C4954",
".#	c #9D4B56",
"+#	c #9A434F",
"@#	c #9E4D58",
"##	c #9A4550",
"$#	c #A0505B",
"%#	c #9A4551",
"&#	c #A0525D",
"*#	c #9B4752",
"=#	c #A4525E",
"-#	c #9B4753",
";#	c #A55460",
">#	c #9C4854",
",#	c #A75562",
"'#	c #9C4A55",
")#	c #AA5663",
"!#	c #9D4A56",
"~#	c #AB5A65",
"{#	c #9E4C57",
"]#	c #AC5C67",
"^#	c #9E4C58",
"/#	c #AD5E69",
"(#	c #9F4E59",
"_#	c #AE606B",
":#	c #9F4F5A",
"<#	c #B0636E",
"[#	c #A04F5A",
"}#	c #B16570",
"|#	c #A1515C",
"1#	c #B26772",
"2#	c #B36974",
"3#	c #B46C77",
"4#	c #A2535D",
"5#	c #B56E79",
"6#	c #A4535F",
"7#	c #B6707B",
"8#	c #A4545F",
"9#	c #923D4A",
"0#	c #94404D",
"a#	c #923E4B",
"b#	c #94424F",
"c#	c #933F4C",
"d#	c #954451",
"e#	c #974754",
"f#	c #93424E",
"g#	c #984956",
"h#	c #994C58",
"i#	c #954450",
"j#	c #9B4E5A",
"k#	c #9B515B",
"l#	c #964552",
"m#	c #9D535D",
"n#	c #964753",
"o#	c #9F5660",
"p#	c #A25661",
"q#	c #974854",
"r#	c #A35762",
"s#	c #A65965",
"t#	c #994A56",
"u#	c #A75B67",
"v#	c #A85D69",
"w#	c #9A4C58",
"x#	c #AA606C",
"y#	c #AB626E",
"z#	c #AD646F",
"A#	c #9C4F5B",
"B#	c #AE6671",
"C#	c #AF6973",
"D#	c #9C515D",
"E#	c #B06B75",
"F#	c #B16E77",
"G#	c #9D535F",
"H#	c #B27079",
"I#	c #9E545F",
"J#	c #B3717B",
"K#	c #8D3D48",
"L#	c #8D3F4A",
"M#	c #8F424C",
"N#	c #90444F",
"O#	c #8E404B",
"P#	c #924751",
"Q#	c #8E414C",
"R#	c #934953",
"S#	c #8F424D",
"T#	c #954C56",
"U#	c #90434E",
"V#	c #954E58",
"W#	c #97505A",
"X#	c #914550",
"Y#	c #98535D",
"Z#	c #914650",
"`#	c #9A545F",
" $	c #924752",
".$	c #9B5661",
"+$	c #934852",
"@$	c #9C5862",
"#$	c #944954",
"$$	c #9F5A64",
"%$	c #944A54",
"&$	c #A25A65",
"*$	c #944B55",
"=$	c #A45D67",
"-$	c #954C57",
";$	c #A65F69",
">$	c #964D57",
",$	c #A6626B",
"'$	c #964F59",
")$	c #A7646D",
"!$	c #A96770",
"~$	c #AA6972",
"{$	c #97515B",
"]$	c #AC6B73",
"^$	c #98525C",
"/$	c #AD6D76",
"($	c #99545D",
"_$	c #AE6F78",
":$	c #99545E",
"<$	c #AF7179",
"[$	c #873C46",
"}$	c #873D48",
"|$	c #8A414A",
"1$	c #883E48",
"2$	c #8B434C",
"3$	c #893F49",
"4$	c #8D454E",
"5$	c #89404A",
"6$	c #8E4751",
"7$	c #904A53",
"8$	c #8B424C",
"9$	c #904C55",
"0$	c #924E57",
"a$	c #8C444E",
"b$	c #94515A",
"c$	c #95535C",
"d$	c #8E4650",
"e$	c #96565E",
"f$	c #985961",
"g$	c #8E4851",
"h$	c #9A5A62",
"i$	c #8F4953",
"j$	c #9C5B64",
"k$	c #9F5D66",
"l$	c #8F4B54",
"m$	c #A05E67",
"n$	c #A26069",
"o$	c #914D56",
"p$	c #A3626B",
"q$	c #A5656E",
"r$	c #924F58",
"s$	c #A66770",
"t$	c #93515A",
"u$	c #A76A72",
"v$	c #A86C74",
"w$	c #94525B",
"x$	c #AA6F77",
"y$	c #AB7179",
"z$	c #95545D",
"A$	c #823D47",
"B$	c #823C46",
"C$	c #84404A",
"D$	c #86424C",
"E$	c #833E48",
"F$	c #87444E",
"G$	c #894651",
"H$	c #85414A",
"I$	c #8B4853",
"J$	c #85414B",
"K$	c #8B4B55",
"L$	c #86434C",
"M$	c #8D4D58",
"N$	c #87444D",
"O$	c #8F5059",
"P$	c #88444F",
"Q$	c #90525B",
"R$	c #88464F",
"S$	c #92545D",
"T$	c #894550",
"U$	c #925760",
"V$	c #8A4751",
"W$	c #945962",
"X$	c #894852",
"Y$	c #955B64",
"Z$	c #8A4953",
"`$	c #985D67",
" %	c #8B4A54",
".%	c #9B5E68",
"+%	c #8C4B54",
"@%	c #9C6169",
"#%	c #8C4C56",
"$%	c #9F636B",
"%%	c #8D4D56",
"&%	c #A0656E",
"*%	c #8E4E57",
"=%	c #A16770",
"-%	c #8E4F58",
";%	c #A36972",
">%	c #A56C73",
",%	c #90515A",
"'%	c #A66E77",
")%	c #91535B",
"!%	c #A77079",
"~%	c #91535C",
"{%	c #A23F4E",
". . . . . . . . . . . . . . . . . . . . . . . . . . . . . . . . . . . . . . . . . . . . . . . . . . . . . . . . . . . . . . . . . . . . . . . . . . . . . . . . . . . . . . . . . . . . . . . . ",
"+ + + + + + + + + + + + + + + + + + + + + + + + + + + + + + + + + + + + + + + + + + + + + + + + + + + + + + + + + + + + + + + + + + + + + + + + + + + + + + + + + + + + + + + + + + + + + + + + ",
"@ @ # @ @ @ $ # @ @ % & @ @ * $ @ @ = $ @ @ - ; @ @ > % @ @ , ' @ @ ) * @ @ ! ~ @ @ { = @ @ ] ^ @ @ / ( @ @ _ - @ @ : - @ @ < > @ @ [ } @ @ | , @ @ 1 2 @ @ 3 4 @ @ 5 ) @ @ 6 7 @ @ 8 ! @ @ 9 0 ",
"@ # @ @ @ $ # @ @ % & @ @ * $ @ @ = $ @ @ - ; @ @ > % @ @ , ' @ @ ) * @ @ ! ~ @ @ { = @ @ ] ^ @ @ / ( @ @ _ - @ @ : - @ @ < > @ @ [ } @ @ | , @ @ 1 2 @ @ 3 4 @ @ 5 ) @ @ 6 7 @ @ 8 ! @ @ 9 0 @ ",
"a b b b c a b b d e b b f c b b g h b b i j b b k l b b m n b b o p b b q r b b s r b b t u b b v w b b x i b b y z b b A B b b C B b b D E b b F G b b H I b b J o b b K L b b M N b b O P b b ",
"Q Q Q R S Q Q T U Q Q V R Q Q W X Q Q Y T Q Q Z ` Q Q  .V Q Q ..+.Q Q @.#.Q Q $.W Q Q %.&.Q Q *.Y Q Q =.-.Q Q ;.Z Q Q >.,.Q Q '.).Q Q !. .Q Q ~.{.Q Q ]...Q Q ^./.Q Q (.@.Q Q _.:.Q Q <.[.Q Q }.",
"|.|.1.|.|.|.2.3.|.|.4.5.|.|.6.7.|.|.8.9.|.|.0.a.|.|.b.4.|.|.c.d.|.|.e.f.|.|.g.h.|.|.i.8.|.|.j.k.|.|.l.m.|.|.n.o.|.|.p.q.|.|.r.s.|.|.t.u.|.|.v.c.|.|.w.c.|.|.x.y.|.|.z.A.|.|.B.C.|.|.D.E.|.|.F.g.",
"G.H.G.G.G.I.H.G.G.J.K.G.G.L.K.G.G.M.I.G.G.N.O.G.G.P.J.G.G.Q.R.G.G.S.L.G.G.T.U.G.G.V.M.G.G.W.X.G.G.Y.Z.G.G.`.N.G.G. +N.G.G..+P.G.G.++@+G.G.#+Q.G.G.$+%+G.G.&+*+G.G.=+S.G.G.-+;+G.G.>+T.G.G.,+'+G.",
")+!+!+!+~+)+!+!+{+]+!+!+^+~+!+!+/+(+!+!+_+:+!+!+<+[+!+!+}+|+!+!+1+2+!+!+3+4+!+!+5+4+!+!+6+7+!+!+8+9+!+!+0+a+!+!+b+c+!+!+d+e+!+!+f+g+!+!+h+i+!+!+j+k+!+!+l+m+!+!+n+1+!+!+o+p+!+!+q+r+!+!+s+5+!+!+",
"t+t+t+u+v+t+t+w+x+t+t+y+u+t+t+z+A+t+t+B+w+t+t+C+D+t+t+E+y+t+t+F+G+t+t+H+I+t+t+J+z+t+t+K+L+t+t+M+B+t+t+N+O+t+t+P+C+t+t+Q+R+t+t+S+T+t+t+U+E+t+t+V+W+t+t+X+F+t+t+Y+Z+t+t+`+H+t+t+ @.@t+t++@@@t+t+#@",
"$@$@%@$@$@$@&@*@$@$@=@-@$@$@;@>@$@$@,@'@$@$@)@!@$@$@~@=@$@$@{@]@$@$@^@/@$@$@(@_@$@$@:@<@$@$@[@,@$@$@}@|@$@$@1@)@$@$@2@3@$@$@4@~@$@$@5@6@$@$@7@8@$@$@9@{@$@$@0@a@$@$@b@c@$@$@d@e@$@$@f@g@$@$@h@(@",
"i@j@i@i@i@k@l@i@i@m@n@i@i@o@p@i@i@q@k@i@i@r@s@i@i@t@m@i@i@u@v@i@i@w@o@i@i@x@y@i@i@z@q@i@i@A@B@i@i@C@D@i@i@E@r@i@i@F@G@i@i@H@t@i@i@I@J@i@i@K@u@i@i@L@M@i@i@N@O@i@i@P@w@i@i@Q@R@i@i@S@x@i@i@T@U@i@",
"V@W@W@W@X@V@W@W@Y@Z@W@W@`@X@W@W@ #X@W@W@.#+#W@W@@###W@W@$#%#W@W@&#*#W@W@=#-#W@W@;#>#W@W@,#'#W@W@)#!#W@W@~#{#W@W@]#^#W@W@/#(#W@W@_#:#W@W@<#[#W@W@}#|#W@W@1#|#W@W@2#&#W@W@3#4#W@W@5#6#W@W@7#8#W@W@",
"9#9#9#0#a#9#9#b#c#9#9#d#0#9#9#e#f#9#9#g#b#9#9#h#i#9#9#j#d#9#9#k#l#9#9#m#n#9#9#o#e#9#9#p#q#9#9#r#g#9#9#s#t#9#9#u#h#9#9#v#w#9#9#x#j#9#9#y#j#9#9#z#A#9#9#B#k#9#9#C#D#9#9#E#m#9#9#F#G#9#9#H#I#9#9#J#",
"K#K#L#K#K#K#M#L#K#K#N#O#K#K#P#Q#K#K#R#S#K#K#T#U#K#K#V#N#K#K#W#X#K#K#Y#Z#K#K#`# $K#K#.$+$K#K#@$#$K#K#$$%$K#K#&$*$K#K#=$-$K#K#;$>$K#K#,$'$K#K#)$'$K#K#!$W#K#K#~${$K#K#]$^$K#K#/$($K#K#_$:$K#K#<$`#",
"[$}$[$[$[$|$1$[$[$2$3$[$[$4$5$[$[$6$|$[$[$7$8$[$[$9$2$[$[$0$a$[$[$b$4$[$[$c$d$[$[$e$6$[$[$f$g$[$[$h$i$[$[$j$7$[$[$k$l$[$[$m$9$[$[$n$o$[$[$p$0$[$[$q$r$[$[$s$t$[$[$u$b$[$[$v$w$[$[$x$c$[$[$y$z$[$",
"A$B$B$B$C$A$B$B$D$E$B$B$F$C$B$B$G$H$B$B$I$J$B$B$K$L$B$B$M$N$B$B$O$P$B$B$Q$R$B$B$S$T$B$B$U$V$B$B$W$X$B$B$Y$Z$B$B$`$ %B$B$.%+%B$B$@%#%B$B$$%%%B$B$&%*%B$B$=%-%B$B$;%O$B$B$>%,%B$B$'%)%B$B$!%~%B$B$",
"B$B$B$C$A$B$B$D$E$B$B$F$C$B$B$G$H$B$B$I$J$B$B$K$L$B$B$M$N$B$B$O$P$B$B$Q$R$B$B$S$T$B$B$U$V$B$B$W$X$B$B$Y$Z$B$B$`$ %B$B$.%+%B$B$@%#%B$B$$%%%B$B$&%*%B$B$=%-%B$B$;%O$B$B$>%,%B$B$'%)%B$B$!%~%B$B$!%",
"{%{%{%{%{%{%{%{%{%{%{%{%{%{%{%{%{%{%{%{%{%{%{%{%{%{%{%{%{%{%{%{%{%{%{%{%{%{%{%{%{%{%{%{%{%{%{%{%{%{%{%{%{%{%{%{%{%{%{%{%{%{%{%{%{%{%{%{%{%{%{%{%{%{%{%{%{%{%{%{%{%{%{%{%{%{%{%{%{%{%{%{%{%{%{%{%"};
