/* XPM */
static char * titleAB_xpm[] = {
"4 19 48 1",
" 	c None",
".	c #EC9EA9",
"+	c #DB7282",
"@	c #D56171",
"#	c #DC8794",
"$	c #D56E7E",
"%	c #CF5C6D",
"&	c #D88490",
"*	c #CF6A7A",
"=	c #C95767",
"-	c #CA6574",
";	c #C35162",
">	c #D4808D",
",	c #BD4C5B",
"'	c #CE7D88",
")	c #C5616E",
"!	c #B74756",
"~	c #CA7A84",
"{	c #BF5D69",
"]	c #C67581",
"^	c #BB5765",
"/	c #AC4554",
"(	c #B55261",
"_	c #A6404E",
":	c #C2717D",
"<	c #A13F4D",
"[	c #BF717D",
"}	c #B0525F",
"|	c #9C3F4C",
"1	c #BA727C",
"2	c #AB525F",
"3	c #B7717A",
"4	c #A4545F",
"5	c #973E4A",
"6	c #9E555F",
"7	c #923D4A",
"8	c #B3717B",
"9	c #8D3D48",
"0	c #AF7179",
"a	c #9A545F",
"b	c #873C46",
"c	c #AB7179",
"d	c #95545D",
"e	c #A87178",
"f	c #91535C",
"g	c #823C46",
"h	c #7F3944",
"i	c #A23F4E",
"....",
"++++",
"@@#$",
"%#$%",
"&*==",
"-;;>",
",,')",
"!~{!",
"]^//",
"(__:",
"<<[}",
"|12|",
"3455",
"6778",
"990a",
"bcdb",
"efgg",
"fhhf",
"iiii"};
