/* XPM */
static char * icewm_xpm[] = {
"48 21 136 2",
"  	c None",
". 	c #4A4A4A",
"+ 	c #494949",
"@ 	c #484848",
"# 	c #474747",
"$ 	c #464646",
"% 	c #454545",
"& 	c #444444",
"* 	c #434343",
"= 	c #424242",
"- 	c #414141",
"; 	c #404040",
"> 	c #3C3C3C",
", 	c #3F3F3F",
"' 	c #3D3D3D",
") 	c #3B3B3B",
"! 	c #3A3A3A",
"~ 	c #3E3E3E",
"{ 	c #9C9C9C",
"] 	c #FFFFFF",
"^ 	c #A2A2A2",
"/ 	c #ECECEC",
"( 	c #E0E0E0",
"_ 	c #7F7F7F",
": 	c #7C7C7C",
"< 	c #EDEDED",
"[ 	c #999999",
"} 	c #818181",
"| 	c #AEAEAE",
"1 	c #A9A9A9",
"2 	c #848484",
"3 	c #8C8C8C",
"4 	c #A6A6A6",
"5 	c #9A9A9A",
"6 	c #C9C9C9",
"7 	c #FAFAFA",
"8 	c #727272",
"9 	c #B8B8B8",
"0 	c #717171",
"a 	c #F6F6F6",
"b 	c #838383",
"c 	c #FEFEFE",
"d 	c #737373",
"e 	c #ACACAC",
"f 	c #A3A3A3",
"g 	c #979797",
"h 	c #707070",
"i 	c #F2F2F2",
"j 	c #D5D5D5",
"k 	c #858585",
"l 	c #BBBBBB",
"m 	c #F7F7F7",
"n 	c #F4F4F4",
"o 	c #ADADAD",
"p 	c #787878",
"q 	c #FDFDFD",
"r 	c #DDDDDD",
"s 	c #DCDCDC",
"t 	c #636363",
"u 	c #E7E7E7",
"v 	c #D4D4D4",
"w 	c #E3E3E3",
"x 	c #DFDFDF",
"y 	c #D2D2D2",
"z 	c #E2E2E2",
"A 	c #393939",
"B 	c #959595",
"C 	c #8A8A8A",
"D 	c #B7B7B7",
"E 	c #BABABA",
"F 	c #9D9D9D",
"G 	c #A7A7A7",
"H 	c #A5A5A5",
"I 	c #8D8D8D",
"J 	c #A1A1A1",
"K 	c #CBCBCB",
"L 	c #FBFBFB",
"M 	c #666666",
"N 	c #B0B0B0",
"O 	c #898989",
"P 	c #606060",
"Q 	c #373737",
"R 	c #929292",
"S 	c #B2B2B2",
"T 	c #6F6F6F",
"U 	c #7B7B7B",
"V 	c #808080",
"W 	c #C4C4C4",
"X 	c #535353",
"Y 	c #565656",
"Z 	c #F3F3F3",
"` 	c #B9B9B9",
" .	c #6B6B6B",
"..	c #C3C3C3",
"+.	c #B6B6B6",
"@.	c #AFAFAF",
"#.	c #8F8F8F",
"$.	c #363636",
"%.	c #383838",
"&.	c #949494",
"*.	c #919191",
"=.	c #B1B1B1",
"-.	c #777777",
";.	c #7E7E7E",
">.	c #BFBFBF",
",.	c #CECECE",
"'.	c #E6E6E6",
").	c #696969",
"!.	c #9F9F9F",
"~.	c #939393",
"{.	c #878787",
"].	c #BCBCBC",
"^.	c #868686",
"/.	c #C5C5C5",
"(.	c #909090",
"_.	c #7A7A7A",
":.	c #AAAAAA",
"<.	c #747474",
"[.	c #CDCDCD",
"}.	c #DBDBDB",
"|.	c #BEBEBE",
"1.	c #6D6D6D",
"2.	c #9E9E9E",
"3.	c #353535",
"4.	c #6A6A6A",
"5.	c #F5F5F5",
"6.	c #F8F8F8",
"7.	c #CACACA",
"8.	c #D7D7D7",
"9.	c #343434",
"0.	c #333333",
"a.	c #323232",
"b.	c #313131",
"c.	c #303030",
"d.	c #2F2F2F",
"e.	c #2E2E2E",
". . . . . . . . . . . . . . . . . . . . . . . . . . . . . . . + + + . . . . . . . . . . . . . . ",
"+ + + + + + @ @ @ @ @ + + + + + + + + + @ @ @ @ @ # # # # # # # # # # # # # # # @ @ @ + + + + + ",
"# # # # $ $ $ $ $ # # # # # # # # # # # # # $ $ $ $ $ $ $ $ $ $ $ $ $ $ $ $ $ % % $ $ $ # # # # ",
"$ $ $ % & & & & & % % % $ % % % % % $ % % $ % % % % % % % % % $ $ $ $ % % % & & * * & & % $ $ $ ",
"& & & & = = = = = * & % % % % % % % $ $ $ % % % $ $ $ % $ # $ $ $ % % $ $ % = - - - - = * * & & ",
"* * * = ; ; - ; > , & # # # # # # # # @ # % - - % % ; , * $ & - , ' , & $ = ) ! , ; , ; - = * * ",
"= = - ; ~ , ; { ] ^ = # # # # + + @ @ + @ * / ( _ : < ] [ } | ] 1 ] ] [ 2 3 ] ] 4 ; ~ ~ ; - = = ",
"; ; ; , > ' ; 5 ] { , = ; , = $ # & - = * ; 6 7 8 _ ] ] 9 0 6 a b ] c 9 d e c ] f ; ' > ~ , ; ; ",
", , ~ ' ! ) , g ] [ h | i 7 j k : l m n o p 4 ] b ^ q r s t u v b ] w x t y z ] ^ ; ) ! > ~ ~ , ",
"~ ' ' > A ! , g ] B C ] D B a E F ] G H ] I } ] J K x 1 L M c N O ] E q P m 9 ] J , ! A ) > ' ~ ",
"> > ) ! Q A ' B ] R S ] T U V d W m X Y Z `  .Z ..i +.V ] @.] 3 I ] #.] N ] O ] J ~ A Q A ) ) > ",
") ! ! A $.%.> &.] *.=.] T -.#.;.W c i i i >.h ,.m ] #. .n Z L T #.] } '.m Z ).] !.' %.$.%.A ! ) ",
"! ! A %.$.%.) ~.] ~.{.] ].~.m >.{ q ^.: /.(._.:.] 7 <.-.[.] }.0 (.] k |.] [.1.] 2.> Q $.Q %.! ! ",
"%.%.Q Q 3.$.A R ] g 4.:.i L y p 0 ` 5.6.7.} V 3 ] 8._._ 4 ] +.p R ] 3 5 ] G p ] F A $.3.$.Q %.%.",
"Q Q $.$.9.3.$.$.9.Q ! A $.$.A ' ' ! Q Q ! ~ , > %.! ~ , ) A ) ~ ' ) > ! A %.Q 3.$.$.9.9.3.$.Q Q ",
"3.3.3.9.9.0.9.3.3.Q A A A A ! ! ) ! ! A ! ! ! ! A ! ) ) ! ! ! ) ! ! ! ! ! A Q 3.9.0.0.0.9.3.3.3.",
"9.9.9.0.0.0.a.0.9.9.3.3.$.$.$.$.$.$.$.$.3.$.$.3.3.3.3.$.3.3.3.3.3.3.$.$.$.3.9.0.0.a.a.0.0.9.9.9.",
"a.a.a.a.b.b.b.b.a.a.a.a.a.a.a.a.a.a.a.a.a.a.a.a.a.a.a.a.a.a.a.a.a.a.a.a.a.a.a.a.b.b.b.b.a.a.a.a.",
"b.b.b.b.b.b.c.c.c.c.b.b.b.b.b.b.b.b.b.b.b.b.b.b.b.b.b.b.b.b.b.b.b.b.b.b.b.b.c.c.c.c.b.b.b.b.b.b.",
"c.c.c.c.c.c.c.c.c.c.c.c.d.d.d.c.c.c.d.c.c.c.c.c.c.c.c.c.c.c.c.c.c.c.c.c.c.c.c.c.c.c.c.c.c.c.c.c.",
"e.e.e.e.e.e.e.e.e.e.e.e.e.e.e.e.e.e.e.e.e.e.e.e.e.e.e.e.e.e.e.e.e.e.e.e.e.e.e.e.e.e.e.e.e.e.e.e."};
