/* XPM */
static char * workspacebuttonactive_xpm[] = {
"1 21 16 1",
" 	c None",
".	c #383838",
"+	c #393939",
"@	c #3A3A3A",
"#	c #3B3B3B",
"$	c #3C3C3C",
"%	c #3D3D3D",
"&	c #3E3E3E",
"*	c #3F3F3F",
"=	c #404040",
"-	c #414141",
";	c #424242",
">	c #434343",
",	c #444444",
"'	c #454545",
")	c #464646",
".",
"+",
"+",
"@",
"#",
"$",
"$",
"%",
"&",
"&",
"*",
"=",
"-",
"-",
";",
">",
",",
",",
"'",
")",
";"};
