/* XPM */
static char * closeI_xpm[] = {
"19 38 24 1",
" 	c None",
".	c #FFFFFF",
"+	c #C3C3C3",
"@	c #DBDBDB",
"#	c #AEAEAE",
"$	c #DADADA",
"%	c #D9D9D9",
"&	c #D7D7D7",
"*	c #999999",
"=	c #D5D5D5",
"-	c #989898",
";	c #D4D4D4",
">	c #D2D2D2",
",	c #979797",
"'	c #D1D1D1",
")	c #CFCFCF",
"!	c #CECECE",
"~	c #969696",
"{	c #CCCCCC",
"]	c #CBCBCB",
"^	c #959595",
"/	c #C9C9C9",
"(	c #C8C8C8",
"_	c #828282",
"..................+",
"@@@@@@@@@@@@@@@@@@#",
"@@@@@@@@@@@@@@@$$$#",
"$$$$$$$$$$$$$$$$$$#",
"%%%%%%%%%%%%%%%%%%#",
"&&&&&**&&&&**&&&&&#",
"====----==----====#",
"====----------====#",
";;;;;--------;;;;;#",
">>>>>>,,,,,,>>>>>>#",
"'''''',,,,,,''''''#",
"))))),,,,,,,,)))))#",
"!!!!~~~~~~~~~~!!!!#",
"{{{{~~~~{{~~~~{{{{#",
"]]]]]^^]]]]^^]]]]]#",
"//////////////////#",
"//////////////////#",
"((((((((((((((((((#",
"___________________",
"..................+",
"@@@@@@@@@@@@@@@@@@#",
"@@@@@@@@@@@@@@@$$$#",
"$$$$$$$$$$$$$$$$$$#",
"%%%%%%%%%%%%%%%%%%#",
"&&&&&**&&&&**&&&&&#",
"====----==----====#",
"====----------====#",
";;;;;--------;;;;;#",
">>>>>>,,,,,,>>>>>>#",
"'''''',,,,,,''''''#",
"))))),,,,,,,,)))))#",
"!!!!~~~~~~~~~~!!!!#",
"{{{{~~~~{{~~~~{{{{#",
"]]]]]^^]]]]^^]]]]]#",
"//////////////////#",
"//////////////////#",
"((((((((((((((((((#",
"___________________"};
