/* XPM */
static char * menuButtonI_xpm[] = {
"19 38 20 1",
" 	c None",
".	c #FFFFFF",
"+	c #DADADA",
"@	c #DBDBDB",
"#	c #D9D9D9",
"$	c #D7D7D7",
"%	c #D5D5D5",
"&	c #989898",
"*	c #D4D4D4",
"=	c #D2D2D2",
"-	c #979797",
";	c #D1D1D1",
">	c #CFCFCF",
",	c #CECECE",
"'	c #969696",
")	c #CCCCCC",
"!	c #CBCBCB",
"~	c #C9C9C9",
"{	c #C8C8C8",
"]	c #828282",
"...................",
".++++@@@@@@@@@@@@@@",
".++++@@@@@@@@@@@@@@",
".++++++++++++++++++",
".##################",
".$$$$$$$$$$$$$$$$$$",
".%%%%%&&%%%%%%&&%%%",
".%%%%&&&&%%%%&&&&%%",
".****&&&&&**&&&&&**",
".=====----------===",
".;;;;;;--------;;;;",
".>>>>>>>------>>>>>",
".,,,,,,,,'''',,,,,,",
".)))))))))'')))))))",
".!!!!!!!!!!!!!!!!!!",
".~~~~~~~~~~~~~~~~~~",
".~~~~~~~~~~~~~~~~~~",
".{{{{{{{{{{{{{{{{{{",
"]]]]]]]]]]]]]]]]]]]",
"...................",
".++++@@@@@@@@@@@@@@",
".++++@@@@@@@@@@@@@@",
".++++++++++++++++++",
".##################",
".$$$$$$$$$$$$$$$$$$",
".%%%%%&&%%%%%%&&%%%",
".%%%%&&&&%%%%&&&&%%",
".****&&&&&**&&&&&**",
".=====----------===",
".;;;;;;--------;;;;",
".>>>>>>>------>>>>>",
".,,,,,,,,'''',,,,,,",
".)))))))))'')))))))",
".!!!!!!!!!!!!!!!!!!",
".~~~~~~~~~~~~~~~~~~",
".~~~~~~~~~~~~~~~~~~",
".{{{{{{{{{{{{{{{{{{",
"]]]]]]]]]]]]]]]]]]]"};
