/* XPM */
static char * minimizeA_xpm[] = {
"19 38 85 1",
" 	c None",
".	c #FFFFFF",
"+	c #A1A1A1",
"@	c #CFCFCF",
"#	c #D0D0D0",
"$	c #D1D1D1",
"%	c #D3D3D3",
"&	c #D4D4D4",
"*	c #D6D6D6",
"=	c #D7D7D7",
"-	c #D9D9D9",
";	c #DADADA",
">	c #DCDCDC",
",	c #DDDDDD",
"'	c #DEDEDE",
")	c #E0E0E0",
"!	c #E1E1E1",
"~	c #E3E3E3",
"{	c #E4E4E4",
"]	c #E6E6E6",
"^	c #FDFDFD",
"/	c #E7E7E7",
"(	c #FCFCFC",
"_	c #E9E9E9",
":	c #FBFBFB",
"<	c #EAEAEA",
"[	c #F9F9F9",
"}	c #ECECEC",
"|	c #F8F8F8",
"1	c #EDEDED",
"2	c #F7F7F7",
"3	c #EEEEEE",
"4	c #F5F5F5",
"5	c #F0F0F0",
"6	c #F4F4F4",
"7	c #F1F1F1",
"8	c #F3F3F3",
"9	c #9B9B9B",
"0	c #444444",
"a	c #454545",
"b	c #464646",
"c	c #474747",
"d	c #A5A5A5",
"e	c #F2F2F2",
"f	c #484848",
"g	c #F6F6F6",
"h	c #EFEFEF",
"i	c #9E9E9E",
"j	c #A7A7A7",
"k	c #FAFAFA",
"l	c #EBEBEB",
"m	c #919191",
"n	c #AAAAAA",
"o	c #6B6B6B",
"p	c #8A8A8A",
"q	c #8B8B8B",
"r	c #8D8D8D",
"s	c #8F8F8F",
"t	c #939393",
"u	c #949494",
"v	c #959595",
"w	c #969696",
"x	c #979797",
"y	c #989898",
"z	c #999999",
"A	c #A9A9A9",
"B	c #9A9A9A",
"C	c #A8A8A8",
"D	c #9C9C9C",
"E	c #A6A6A6",
"F	c #9D9D9D",
"G	c #9F9F9F",
"H	c #A3A3A3",
"I	c #A0A0A0",
"J	c #A2A2A2",
"K	c #676767",
"L	c #2D2D2D",
"M	c #2E2E2E",
"N	c #2F2F2F",
"O	c #6E6E6E",
"P	c #303030",
"Q	c #A4A4A4",
"R	c #696969",
"S	c #6F6F6F",
"T	c #616161",
"..................+",
".@#$%&*=-;>,')!~{]+",
".@#$%&*=-;>,')!~{]+",
"^#$%&*=-;>,')!~{]/+",
"($%&*=-;>,')!~{]/_+",
":%&*=-;>,')!~{]/_<+",
"[&*=-;>,')!~{]/_<}+",
"|*=-;>,')!~{]/_<}1+",
"2=-;>,')!~{]/_<}13+",
"4-;>,')!~{]/_<}135+",
"6;>,')!~{]/_<}1357+",
"8>,'90aaabbccd3578+",
"e,')0aaabbccff5786+",
"5')!aaabbccfff786g+",
"h)!~iabbccfffj86g2+",
"3!~{]/_<}135786g2[+",
"}~{]/_<}135786g2[k+",
"l]/_<}135786g2[k(^+",
"mmmmmmmmmmmmmmmmmm+",
"nnnnnnnnnnnnnnnnnno",
"npqqrrssmmttuvwxyzo",
"npqqrrssmmttuvwxyzo",
"AqqrrssmmttuvwxyzBo",
"CqrrssmmttuvwxyzB9o",
"jrrssmmttuvwxyzB9Do",
"ErssmmttuvwxyzB9DFo",
"dssmmttuvwxyzB9DFio",
"dsmmttuvwxyzB9DFiGo",
"HmmttuvwxyzB9DFiGIo",
"HmttuvwxyzB9DFiGI+o",
"JttuKLMMMNNNNOGI+Jo",
"+tuvLMMMNNNNPPI+JHo",
"IuvwMMMNNNNPPP+JHQo",
"GvwxRMNNNNPPPSJHQdo",
"GwxyzB9DFiGI+JHQdEo",
"FxyzB9DFiGI+JHQdEjo",
"FzB9DFiGI+JHQdEjCAo",
"TTTTTTTTTTTTTTTTTTo"};
