/* XPM */
static char * titleIP_xpm[] = {
"7 19 24 1",
" 	c None",
".	c #BEBEBE",
"+	c #FFFFFF",
"@	c #D7D7D7",
"#	c #D6D6D6",
"$	c #D5D5D5",
"%	c #D1D1D1",
"&	c #D4D4D4",
"*	c #D0D0D0",
"=	c #D2D2D2",
"-	c #CECECE",
";	c #CDCDCD",
">	c #CCCCCC",
",	c #CFCFCF",
"'	c #CBCBCB",
")	c #CACACA",
"!	c #C8C8C8",
"~	c #C7C7C7",
"{	c #C6C6C6",
"]	c #C9C9C9",
"^	c #C4C4C4",
"/	c #C3C3C3",
"(	c #C5C5C5",
"_	c #828282",
".++++++",
".@@@@@@",
".@@@@@@",
".######",
".$$$$$%",
".&&&&&*",
".=====-",
".%%%%%;",
".*****>",
".,,,,,'",
".-----)",
".>>>>>!",
".'''''~",
".))))){",
".]]]]]{",
".~~~~~^",
".{{{{{/",
".((((((",
"_______"};
