/* XPM */
static char * titleAR_xpm[] = {
"2 19 19 1",
" 	c None",
".	c #6C2EA2",
"+	c #251732",
"@	c #5C2A8B",
"#	c #502B73",
"$	c #4D2B6C",
"%	c #4A2B66",
"&	c #472B61",
"*	c #442A5B",
"=	c #412956",
"-	c #3E2653",
";	c #3C2651",
">	c #3A254E",
",	c #39254C",
"'	c #372449",
")	c #362447",
"!	c #352344",
"~	c #332342",
"{	c #312140",
".+",
"@+",
"#+",
"#+",
"$+",
"%+",
"&+",
"*+",
"=+",
"-+",
";+",
">+",
",+",
"'+",
")+",
"!+",
"~+",
"{+",
";+"};
