/* XPM */
static char * titleAM_xpm[] = {
"96 19 474 2",
"  	c None",
". 	c #6C2EA2",
"+ 	c #5C2A8B",
"@ 	c #502B73",
"# 	c #512B74",
"$ 	c #522C75",
"% 	c #532C76",
"& 	c #522C77",
"* 	c #542D78",
"= 	c #522C74",
"- 	c #552E79",
"; 	c #552E7B",
"> 	c #572F7B",
", 	c #532C77",
"' 	c #572F7C",
") 	c #582F7D",
"! 	c #532D77",
"~ 	c #582F7E",
"{ 	c #542D77",
"] 	c #59307F",
"^ 	c #593080",
"/ 	c #5B3081",
"( 	c #5B3182",
"_ 	c #542E78",
": 	c #5C3183",
"< 	c #5D3184",
"[ 	c #562E7A",
"} 	c #5C3284",
"| 	c #562E7B",
"1 	c #5E3285",
"2 	c #5E3385",
"3 	c #5F3387",
"4 	c #5F3388",
"5 	c #562E7C",
"6 	c #4D2C6C",
"7 	c #4D2B6C",
"8 	c #4E2C6E",
"9 	c #4F2C6F",
"0 	c #4D2C6D",
"a 	c #4F2D6F",
"b 	c #502D70",
"c 	c #4F2C6E",
"d 	c #512E71",
"e 	c #512D73",
"f 	c #532E74",
"g 	c #522F74",
"h 	c #502C70",
"i 	c #542F75",
"j 	c #542F76",
"k 	c #552F78",
"l 	c #4F2D70",
"m 	c #553078",
"n 	c #512D71",
"o 	c #573179",
"p 	c #58317A",
"q 	c #512E72",
"r 	c #58317B",
"s 	c #522E73",
"t 	c #57327B",
"u 	c #59327D",
"v 	c #59327E",
"w 	c #522E74",
"x 	c #5A327F",
"y 	c #532F74",
"z 	c #5A337F",
"A 	c #5B3480",
"B 	c #532E75",
"C 	c #5D3482",
"D 	c #5D3483",
"E 	c #532F75",
"F 	c #4A2B66",
"G 	c #4B2C68",
"H 	c #4A2C66",
"I 	c #4B2C69",
"J 	c #4B2C67",
"K 	c #4C2D69",
"L 	c #4D2D6A",
"M 	c #4C2C68",
"N 	c #4E2D6B",
"O 	c #4E2E6C",
"P 	c #502E6E",
"Q 	c #502E6F",
"R 	c #502F6F",
"S 	c #513070",
"T 	c #513071",
"U 	c #4D2D6B",
"V 	c #533072",
"W 	c #543173",
"X 	c #4E2E6B",
"Y 	c #543174",
"Z 	c #543176",
"` 	c #563277",
" .	c #4F2E6D",
"..	c #563377",
"+.	c #573378",
"@.	c #4F2E6E",
"#.	c #573379",
"$.	c #59347A",
"%.	c #59347C",
"&.	c #5A357C",
"*.	c #512F70",
"=.	c #5B357D",
"-.	c #502F70",
";.	c #5B357E",
">.	c #472B61",
",.	c #482B62",
"'.	c #482C62",
").	c #482B61",
"!.	c #4A2C64",
"~.	c #492C62",
"{.	c #4A2D64",
"].	c #4B2D65",
"^.	c #4A2C63",
"/.	c #4C2E66",
"(.	c #492C63",
"_.	c #4D2E68",
":.	c #4D2E69",
"<.	c #4F2F6A",
"[.	c #4F306B",
"}.	c #50306C",
"|.	c #51306D",
"1.	c #4C2D66",
"2.	c #51316E",
"3.	c #4B2D66",
"4.	c #52316F",
"5.	c #52326F",
"6.	c #4C2E67",
"7.	c #533271",
"8.	c #4D2E67",
"9.	c #543372",
"0.	c #553373",
"a.	c #563474",
"b.	c #583575",
"c.	c #573476",
"d.	c #4E2F6A",
"e.	c #583577",
"f.	c #4F306A",
"g.	c #5A3678",
"h.	c #4F2F6B",
"i.	c #442A5B",
"j.	c #442B5B",
"k.	c #462B5D",
"l.	c #462C5E",
"m.	c #452B5C",
"n.	c #472C5F",
"o.	c #482D60",
"p.	c #492D62",
"q.	c #462C5D",
"r.	c #492E62",
"s.	c #4A2E63",
"t.	c #4B2F65",
"u.	c #4C2F65",
"v.	c #472C60",
"w.	c #4D3066",
"x.	c #4E3068",
"y.	c #492D61",
"z.	c #4E3168",
"A.	c #4F3169",
"B.	c #50326B",
"C.	c #51326C",
"D.	c #52336D",
"E.	c #52336E",
"F.	c #543470",
"G.	c #4B2E64",
"H.	c #4B2F64",
"I.	c #543571",
"J.	c #553572",
"K.	c #573673",
"L.	c #573674",
"M.	c #4D2F66",
"N.	c #412A56",
"O.	c #412956",
"P.	c #422A57",
"Q.	c #432B58",
"R.	c #412A57",
"S.	c #432B59",
"T.	c #442C5B",
"U.	c #422A58",
"V.	c #452C5C",
"W.	c #472D5E",
"X.	c #472E5F",
"Y.	c #432B5A",
"Z.	c #482E60",
"`.	c #442B5A",
" +	c #492F61",
".+	c #442C5A",
"++	c #4A3062",
"@+	c #452C5B",
"#+	c #4B3063",
"$+	c #4B3065",
"%+	c #4D3166",
"&+	c #452D5C",
"*+	c #4E3267",
"=+	c #462D5D",
"-+	c #4E3268",
";+	c #4F336A",
">+	c #462D5E",
",+	c #51336B",
"'+	c #472E5E",
")+	c #52346C",
"!+	c #472D5F",
"~+	c #52346D",
"{+	c #52356E",
"]+	c #492E60",
"^+	c #53356F",
"/+	c #492F60",
"(+	c #543670",
"_+	c #3E2653",
":+	c #3E2854",
"<+	c #3E2753",
"[+	c #3F2954",
"}+	c #3E2754",
"|+	c #402A55",
"1+	c #412B56",
"2+	c #3F2854",
"3+	c #422B57",
"4+	c #432C58",
"5+	c #442D59",
"6+	c #442D5A",
"7+	c #412A55",
"8+	c #452E5B",
"9+	c #402B55",
"0+	c #472E5D",
"a+	c #472F5E",
"b+	c #422B56",
"c+	c #482F5F",
"d+	c #493060",
"e+	c #422C57",
"f+	c #4A3161",
"g+	c #4A3162",
"h+	c #4C3264",
"i+	c #432C59",
"j+	c #4D3265",
"k+	c #4D3366",
"l+	c #452D5A",
"m+	c #4E3367",
"n+	c #4F3468",
"o+	c #452D5B",
"p+	c #4F3469",
"q+	c #50356A",
"r+	c #462E5C",
"s+	c #52366B",
"t+	c #52366C",
"u+	c #3C2651",
"v+	c #3D2751",
"w+	c #3E2852",
"x+	c #3F2953",
"y+	c #3F2A53",
"z+	c #412C54",
"A+	c #3F2952",
"B+	c #422D55",
"C+	c #432E56",
"D+	c #442E58",
"E+	c #402A53",
"F+	c #452F59",
"G+	c #402B53",
"H+	c #462F5A",
"I+	c #47305B",
"J+	c #49315D",
"K+	c #49315E",
"L+	c #4A325F",
"M+	c #422C55",
"N+	c #4B3360",
"O+	c #4C3362",
"P+	c #432D56",
"Q+	c #4C3363",
"R+	c #4D3464",
"S+	c #4E3565",
"T+	c #432E57",
"U+	c #4F3566",
"V+	c #4F3666",
"W+	c #513768",
"X+	c #452E59",
"Y+	c #513769",
"Z+	c #3A254E",
"`+	c #3B264E",
" @	c #3C274F",
".@	c #3C264F",
"+@	c #3D2950",
"@@	c #3B274F",
"#@	c #3E2A51",
"$@	c #3F2B51",
"%@	c #402C52",
"&@	c #3D2850",
"*@	c #402D52",
"=@	c #412E53",
"-@	c #3E2950",
";@	c #432E55",
">@	c #432F55",
",@	c #443056",
"'@	c #453058",
")@	c #463159",
"!@	c #3F2C52",
"~@	c #46325A",
"{@	c #48325C",
"]@	c #48335D",
"^@	c #49335E",
"/@	c #412D53",
"(@	c #4A345F",
"_@	c #4B3560",
":@	c #422E54",
"<@	c #4C3561",
"[@	c #4D3662",
"}@	c #4E3763",
"|@	c #4F3765",
"1@	c #503866",
"2@	c #442F56",
"3@	c #39254C",
"4@	c #3A274D",
"5@	c #3B284D",
"6@	c #3A264C",
"7@	c #3C294E",
"8@	c #3D2A4F",
"9@	c #3E2B4F",
"0@	c #3B274D",
"a@	c #3F2C50",
"b@	c #3C284E",
"c@	c #402E51",
"d@	c #412F51",
"e@	c #3D294E",
"f@	c #422F53",
"g@	c #423053",
"h@	c #433154",
"i@	c #443156",
"j@	c #3D2B4F",
"k@	c #453257",
"l@	c #463358",
"m@	c #3E2C50",
"n@	c #48335A",
"o@	c #3F2D50",
"p@	c #49345B",
"q@	c #4A355C",
"r@	c #402D51",
"s@	c #4A355D",
"t@	c #4B365E",
"u@	c #4C375F",
"v@	c #4D3761",
"w@	c #422F52",
"x@	c #4E3862",
"y@	c #4E3962",
"z@	c #372449",
"A@	c #38264A",
"B@	c #372549",
"C@	c #39274B",
"D@	c #38254A",
"E@	c #3A284B",
"F@	c #3B294C",
"G@	c #39274A",
"H@	c #3C2A4D",
"I@	c #3D2C4D",
"J@	c #3E2D4E",
"K@	c #3F2E4F",
"L@	c #3A284C",
"M@	c #402F50",
"N@	c #413050",
"O@	c #423152",
"P@	c #3C2A4C",
"Q@	c #433153",
"R@	c #443254",
"S@	c #3D2B4D",
"T@	c #453355",
"U@	c #453356",
"V@	c #3D2C4E",
"W@	c #463458",
"X@	c #473559",
"Y@	c #48355A",
"Z@	c #3E2D4F",
"`@	c #49365B",
" #	c #4B375D",
".#	c #4B385D",
"+#	c #4D395E",
"@#	c #4D395F",
"##	c #403050",
"$#	c #4D3960",
"%#	c #362447",
"&#	c #372547",
"*#	c #382648",
"=#	c #382749",
"-#	c #372548",
";#	c #3A294A",
">#	c #372648",
",#	c #3B2A4A",
"'#	c #3C2B4B",
")#	c #3D2C4C",
"!#	c #3E2D4D",
"~#	c #392849",
"{#	c #3E2F4D",
"]#	c #3A2849",
"^#	c #3F304E",
"/#	c #40314F",
"(#	c #3B294A",
"_#	c #41314F",
":#	c #3B2A4B",
"<#	c #423251",
"[#	c #433352",
"}#	c #3B2B4B",
"|#	c #443453",
"1#	c #453455",
"2#	c #3C2C4C",
"3#	c #473556",
"4#	c #3D2D4C",
"5#	c #473657",
"6#	c #493758",
"7#	c #493859",
"8#	c #3E2E4D",
"9#	c #4A385A",
"0#	c #4B395B",
"a#	c #3F2F4E",
"b#	c #4C3A5D",
"c#	c #4D3A5E",
"d#	c #352344",
"e#	c #352444",
"f#	c #372646",
"g#	c #352445",
"h#	c #382746",
"i#	c #362545",
"j#	c #392847",
"k#	c #392948",
"l#	c #3A2A49",
"m#	c #3B2B49",
"n#	c #3C2C4A",
"o#	c #382747",
"p#	c #3D2E4B",
"q#	c #3E2F4C",
"r#	c #392848",
"s#	c #3F304C",
"t#	c #40324D",
"u#	c #41324E",
"v#	c #392A48",
"w#	c #42334F",
"x#	c #433451",
"y#	c #443551",
"z#	c #453553",
"A#	c #463654",
"B#	c #473755",
"C#	c #3C2D4A",
"D#	c #473756",
"E#	c #493858",
"F#	c #4A3958",
"G#	c #4B3A5A",
"H#	c #4C3B5B",
"I#	c #332342",
"J#	c #342543",
"K#	c #352644",
"L#	c #332442",
"M#	c #362744",
"N#	c #372845",
"O#	c #352543",
"P#	c #382946",
"Q#	c #392B47",
"R#	c #362644",
"S#	c #3A2C48",
"T#	c #3B2D49",
"U#	c #362745",
"V#	c #3C2E49",
"W#	c #3D2F4A",
"X#	c #3E314B",
"Y#	c #3F324C",
"Z#	c #40334C",
"`#	c #392A46",
" $	c #41344D",
".$	c #392A47",
"+$	c #42344F",
"@$	c #3A2B47",
"#$	c #433550",
"$$	c #453651",
"%$	c #453753",
"&$	c #3B2C48",
"*$	c #463853",
"=$	c #3B2D48",
"-$	c #473855",
";$	c #493956",
">$	c #493A57",
",$	c #493B58",
". . . . . . . . . . . . . . . . . . . . . . . . . . . . . . . . . . . . . . . . . . . . . . . . . . . . . . . . . . . . . . . . . . . . . . . . . . . . . . . . . . . . . . . . . . . . . . . . ",
"+ + + + + + + + + + + + + + + + + + + + + + + + + + + + + + + + + + + + + + + + + + + + + + + + + + + + + + + + + + + + + + + + + + + + + + + + + + + + + + + + + + + + + + + + + + + + + + + + ",
"@ @ @ @ @ @ # @ @ @ $ # @ @ % # @ @ & # @ @ * = @ @ * $ @ @ - $ @ @ ; % @ @ > , @ @ ' & @ @ ) ! @ @ ~ { @ @ ] * @ @ ^ * @ @ / * @ @ ( _ @ @ : - @ @ < [ @ @ } | @ @ 1 ; @ @ 2 | @ @ 3 > @ @ 4 5 ",
"@ @ @ @ @ # @ @ @ $ # @ @ % # @ @ & # @ @ * = @ @ * $ @ @ - $ @ @ ; % @ @ > , @ @ ' & @ @ ) ! @ @ ~ { @ @ ] * @ @ ^ * @ @ / * @ @ ( _ @ @ : - @ @ < [ @ @ } | @ @ 1 ; @ @ 2 | @ @ 3 > @ @ 4 5 @ ",
"6 7 7 7 8 6 7 7 9 0 7 7 a 8 7 7 b c 7 7 d 8 7 7 e 9 7 7 f a 7 7 g h 7 7 i b 7 7 j b 7 7 k l 7 7 m n 7 7 o d 7 7 p q 7 7 r s 7 7 t s 7 7 u s 7 7 v w 7 7 x y 7 7 z g 7 7 A B 7 7 C i 7 7 D E 7 7 ",
"F F F G H F F I J F F K G F F L M F F N I F F O K F F P K F F Q L F F R L F F S L F F T U F F V N F F W X F F Y O F F Z O F F `  .F F ..P F F +.@.F F #.Q F F $.R F F %.R F F &.*.F F =.-.F F ;.",
">.>.,.>.>.>.'.).>.>.!.~.>.>.{.'.>.>.].^.>.>./.(.>.>._.!.>.>.:.!.>.>.<.{.>.>.[.].>.>.}.].>.>.|.1.>.>.2.3.>.>.4./.>.>.5.6.>.>.7.8.>.>.9._.>.>.0.:.>.>.a.:.>.>.b.<.>.>.c.d.>.>.e.f.>.>.g.h.>.>.g.[.",
"i.j.i.i.i.k.j.i.i.l.m.i.i.n.m.i.i.o.k.i.i.p.q.i.i.r.l.i.i.s.n.i.i.t.n.i.i.u.v.i.i.w.o.i.i.x.y.i.i.z.y.i.i.A.p.i.i.B.p.i.i.C.r.i.i.D.s.i.i.E.s.i.i.F.G.i.i.F.H.i.i.I.t.i.i.J.u.i.i.K.u.i.i.L.M.i.",
"N.O.O.O.P.N.O.O.Q.R.O.O.S.P.O.O.T.U.O.O.V.U.O.O.q.S.O.O.W.S.O.O.X.Y.O.O.Z.`.O.O. +.+O.O.++@+O.O.#+@+O.O.$+V.O.O.%+&+O.O.*+=+O.O.-+=+O.O.;+>+O.O.,+'+O.O.)+!+O.O.~+X.O.O.{+]+O.O.^+/+O.O.(+ +O.O.",
"_+_+_+:+<+_+_+[+}+_+_+|+:+_+_+1+2+_+_+3+[+_+_+4+|+_+_+5+|+_+_+6+7+_+_+8+9+_+_+0+1+_+_+a+b+_+_+c+3+_+_+d+e+_+_+f+4+_+_+g+4+_+_+h+i+_+_+j+5+_+_+k+l+_+_+m+6+_+_+n+o+_+_+p+8+_+_+q+r+_+_+s+r+_+_+t+",
"u+u+v+u+u+u+w+v+u+u+x+v+u+u+y+w+u+u+z+w+u+u+z+A+u+u+B+x+u+u+C+y+u+u+D+E+u+u+F+G+u+u+H+G+u+u+I+z+u+u+J+z+u+u+K+z+u+u+L+M+u+u+N+B+u+u+O+P+u+u+Q+P+u+u+R+C+u+u+S+T+u+u+U+D+u+u+V+D+u+u+W+X+u+u+Y+F+",
"Z+`+Z+Z+Z+ @.@Z+Z++@@@Z+Z+#@ @Z+Z+$@ @Z+Z+%@&@Z+Z+*@+@Z+Z+=@-@Z+Z+;@#@Z+Z+>@#@Z+Z+,@$@Z+Z+'@$@Z+Z+)@!@Z+Z+~@%@Z+Z+{@%@Z+Z+]@*@Z+Z+^@/@Z+Z+(@=@Z+Z+_@:@Z+Z+<@:@Z+Z+[@;@Z+Z+}@>@Z+Z+|@>@Z+Z+1@2@Z+",
"3@3@3@3@4@3@3@3@5@6@3@3@7@4@3@3@8@4@3@3@9@0@3@3@a@b@3@3@c@b@3@3@d@e@3@3@f@7@3@3@g@8@3@3@h@9@3@3@i@j@3@3@k@a@3@3@l@m@3@3@n@o@3@3@p@o@3@3@q@r@3@3@s@c@3@3@t@c@3@3@u@d@3@3@v@w@3@3@x@f@3@3@y@g@3@3@",
"z@z@z@A@B@z@z@C@D@z@z@E@A@z@z@F@G@z@z@H@C@z@z@I@E@z@z@J@E@z@z@K@L@z@z@M@F@z@z@N@F@z@z@O@P@z@z@Q@H@z@z@R@S@z@z@T@I@z@z@U@V@z@z@W@J@z@z@X@J@z@z@Y@Z@z@z@`@K@z@z@ #K@z@z@.#M@z@z@+#M@z@z@@###z@z@$#",
"%#%#&#%#%#%#*#&#%#%#=#-#%#%#;#>#%#%#,#*#%#%#'#=#%#%#)#=#%#%#!#~#%#%#{#]#%#%#^#;#%#%#/#(#%#%#_#:#%#%#<#:#%#%#[#}#%#%#|#}#%#%#1#2#%#%#3#4#%#%#5#4#%#%#6#!#%#%#7#8#%#%#9#8#%#%#0#a#%#%#b#a#%#%#c#^#",
"d#e#d#d#d#f#g#d#d#h#i#d#d#j#i#d#d#k#f#d#d#l#f#d#d#m#h#d#d#n#o#d#d#p#j#d#d#q#r#d#d#s#k#d#d#t#k#d#d#u#v#d#d#w#l#d#d#x#m#d#d#y#m#d#d#z#n#d#d#A#n#d#d#B#C#d#d#D#p#d#d#E#p#d#d#F#p#d#d#G#q#d#d#H#q#d#",
"I#I#I#I#J#I#I#I#K#L#I#I#M#J#I#I#N#O#I#I#P#O#I#I#Q#R#I#I#S#M#I#I#T#U#I#I#V#N#I#I#W#N#I#I#X#P#I#I#Y#P#I#I#Z#`#I#I# $.$I#I#+$@$I#I##$@$I#I#$$S#I#I#%$&$I#I#*$=$I#I#-$T#I#I#;$V#I#I#>$W#I#I#,$W#I#I#",
"I#I#I#J#I#I#I#K#L#I#I#M#J#I#I#N#O#I#I#P#O#I#I#Q#R#I#I#S#M#I#I#T#U#I#I#V#N#I#I#W#N#I#I#X#P#I#I#Y#P#I#I#Z#`#I#I# $.$I#I#+$@$I#I##$@$I#I#$$S#I#I#%$&$I#I#*$=$I#I#-$T#I#I#;$V#I#I#>$W#I#I#,$W#I#I#,$",
"u+u+u+u+u+u+u+u+u+u+u+u+u+u+u+u+u+u+u+u+u+u+u+u+u+u+u+u+u+u+u+u+u+u+u+u+u+u+u+u+u+u+u+u+u+u+u+u+u+u+u+u+u+u+u+u+u+u+u+u+u+u+u+u+u+u+u+u+u+u+u+u+u+u+u+u+u+u+u+u+u+u+u+u+u+u+u+u+u+u+u+u+u+u+u+u+"};
