/* XPM */
static char * titleAB_xpm[] = {
"4 19 47 1",
" 	c None",
".	c #6C2EA2",
"+	c #592C83",
"@	c #542A7A",
"#	c #5F3388",
"$	c #562E7C",
"%	c #502B73",
"&	c #5D3483",
"*	c #532F75",
"=	c #4D2B6C",
"-	c #513070",
";	c #4A2B66",
">	c #5B357E",
",	c #472B61",
"'	c #5A3678",
")	c #4F306B",
"!	c #442A5B",
"~	c #573674",
"{	c #4D2F66",
"]	c #543670",
"^	c #492F61",
"/	c #412956",
"(	c #462E5C",
"_	c #3E2653",
":	c #52366C",
"<	c #3C2651",
"[	c #513769",
"}	c #452F59",
"|	c #3A254E",
"1	c #503866",
"2	c #442F56",
"3	c #503963",
"4	c #423053",
"5	c #39254C",
"6	c #413050",
"7	c #372449",
"8	c #4D3960",
"9	c #362447",
"0	c #4D3A5E",
"a	c #3F304E",
"b	c #352344",
"c	c #4C3B5B",
"d	c #3E2F4C",
"e	c #4B3B59",
"f	c #3D2F4A",
"g	c #332342",
"h	c #312140",
"....",
"++++",
"@@#$",
"%#$%",
"&*==",
"-;;>",
",,')",
"!~{!",
"]^//",
"(__:",
"<<[}",
"|12|",
"3455",
"6778",
"990a",
"bcdb",
"efgg",
"fhhf",
"<<<<"};
