/* XPM */
static char * icewm_xpm[] = {
"48 21 485 2",
"  	c None",
". 	c #90CD86",
"+ 	c #8ECC84",
"@ 	c #8ECA85",
"# 	c #8DC983",
"$ 	c #8CC883",
"% 	c #8CC783",
"& 	c #8BC681",
"* 	c #8BC581",
"= 	c #8BC481",
"- 	c #8BC381",
"; 	c #8BC583",
"> 	c #8BC683",
", 	c #8CC683",
"' 	c #8CC583",
") 	c #8CC482",
"! 	c #8CC382",
"~ 	c #8BC382",
"{ 	c #8AC381",
"] 	c #8AC380",
"^ 	c #89C17F",
"/ 	c #89C07F",
"( 	c #89BF80",
"_ 	c #8AC081",
": 	c #8BC281",
"< 	c #8BC283",
"[ 	c #8CC083",
"} 	c #8CC084",
"| 	c #8CC085",
"1 	c #8BBF83",
"2 	c #8ABE82",
"3 	c #8ABD81",
"4 	c #88BD7F",
"5 	c #88BE7F",
"6 	c #88C07E",
"7 	c #89C37F",
"8 	c #86BD7D",
"9 	c #86BB7C",
"0 	c #86BB7E",
"a 	c #88B97F",
"b 	c #88B980",
"c 	c #8ABA81",
"d 	c #8BBE82",
"e 	c #8CBF83",
"f 	c #8CC082",
"g 	c #8CC182",
"h 	c #8CC183",
"i 	c #8DC184",
"j 	c #8DC085",
"k 	c #8EBE85",
"l 	c #8DBC85",
"m 	c #8FBC87",
"n 	c #90BD89",
"o 	c #91BD89",
"p 	c #90BB89",
"q 	c #90BA89",
"r 	c #92BD8A",
"s 	c #93BD8B",
"t 	c #91BB8A",
"u 	c #91BA8B",
"v 	c #91B88A",
"w 	c #90B989",
"x 	c #92BC8A",
"y 	c #8FBA88",
"z 	c #8BB684",
"A 	c #88B581",
"B 	c #88B780",
"C 	c #87B87E",
"D 	c #86BA7C",
"E 	c #87BF7E",
"F 	c #87C07E",
"G 	c #87BE7E",
"H 	c #85BC7D",
"I 	c #83B77B",
"J 	c #85B87C",
"K 	c #87B680",
"L 	c #87B180",
"M 	c #82AC7B",
"N 	c #86B07F",
"O 	c #8FB987",
"P 	c #91BF89",
"Q 	c #91C089",
"R 	c #90C088",
"S 	c #8FC187",
"T 	c #8FC188",
"U 	c #90C188",
"V 	c #92C08B",
"W 	c #93BE8B",
"X 	c #90B88A",
"Y 	c #8BB085",
"Z 	c #8CAF86",
"` 	c #93B68D",
" .	c #93B48D",
"..	c #8DAB88",
"+.	c #8BA986",
"@.	c #91B18C",
"#.	c #96B690",
"$.	c #92B28D",
"%.	c #8EAB89",
"&.	c #8BA887",
"*.	c #89A683",
"=.	c #92B18D",
"-.	c #95B790",
";.	c #8FAE8A",
">.	c #83A67D",
",.	c #7FA678",
"'.	c #87AE80",
").	c #88B480",
"!.	c #83B57B",
"~.	c #85BA7C",
"{.	c #84B97B",
"].	c #80B677",
"^.	c #83B47B",
"/.	c #89B282",
"(.	c #A3C19F",
"_.	c #FFFFFF",
":.	c #AAC4A5",
"<.	c #8FB189",
"[.	c #95BC8E",
"}.	c #94BC8E",
"|.	c #93BB8C",
"1.	c #93BE8C",
"2.	c #95C08E",
"3.	c #96C18E",
"4.	c #95BF8E",
"5.	c #95BD8E",
"6.	c #97BD91",
"7.	c #97BC90",
"8.	c #90B08B",
"9.	c #EDF4EB",
"0.	c #E1EDDF",
"a.	c #8DA78A",
"b.	c #8CA488",
"c.	c #EEF4ED",
"d.	c #A4BAA0",
"e.	c #91A78D",
"f.	c #B5CAB1",
"g.	c #B2C5AF",
"h.	c #A4BAA1",
"i.	c #93AA8F",
"j.	c #99B096",
"k.	c #ADC7A9",
"l.	c #8AB084",
"m.	c #81B27A",
"n.	c #80B576",
"o.	c #83B87A",
"p.	c #84BA7B",
"q.	c #80B678",
"r.	c #7CB373",
"s.	c #80B178",
"t.	c #8AAF84",
"u.	c #A3BD9F",
"v.	c #A7BDA2",
"w.	c #90AD8C",
"x.	c #8DAA88",
"y.	c #95B68F",
"z.	c #96B791",
"A.	c #8FAC8A",
"B.	c #90AC8C",
"C.	c #94AE8F",
"D.	c #8EA78A",
"E.	c #CDDDCA",
"F.	c #FAFCFA",
"G.	c #859A81",
"H.	c #91A38E",
"I.	c #BED0BC",
"J.	c #869883",
"K.	c #CDDDCB",
"L.	c #F7FAF6",
"M.	c #95A393",
"N.	c #FDFEFD",
"O.	c #BFD0BC",
"P.	c #879984",
"Q.	c #B5C7B2",
"R.	c #ACC2A9",
"S.	c #8BAD86",
"T.	c #80AF78",
"U.	c #7CB272",
"V.	c #7EB576",
"W.	c #82B778",
"X.	c #82B779",
"Y.	c #7EB476",
"Z.	c #79B170",
"`.	c #7EAE75",
" +	c #8AAC84",
".+	c #A2BA9E",
"++	c #A5B8A2",
"@+	c #829B7E",
"#+	c #B6CAB3",
"$+	c #F3F7F2",
"%+	c #D8E5D6",
"&+	c #93AB8F",
"*+	c #C1D3BE",
"=+	c #F7FAF7",
"-+	c #F4F8F4",
";+	c #B5C9B2",
">+	c #8A9F87",
",+	c #B0C2AD",
"'+	c #95A593",
")+	c #AEBEAB",
"!+	c #DFE9DD",
"~+	c #DEE9DD",
"{+	c #7C8B79",
"]+	c #E9F0E7",
"^+	c #D7E4D6",
"/+	c #96A394",
"(+	c #E5EDE3",
"_+	c #E1EAE0",
":+	c #D7E2D4",
"<+	c #E4EDE3",
"[+	c #ACC0A9",
"}+	c #8CAB87",
"|+	c #7EAD77",
"1+	c #79B070",
"2+	c #7BB374",
"3+	c #7FB576",
"4+	c #7FB676",
"5+	c #7EB575",
"6+	c #7DB474",
"7+	c #7BB372",
"8+	c #76AF6D",
"9+	c #7CAC73",
"0+	c #89AA84",
"a+	c #A2B99E",
"b+	c #A2B49F",
"c+	c #9AAB97",
"d+	c #BFCFBC",
"e+	c #A2B59F",
"f+	c #BFD2BD",
"g+	c #A9BBA6",
"h+	c #B2C2AF",
"i+	c #B1C1AD",
"j+	c #9CAD99",
"k+	c #94A391",
"l+	c #ADBCAB",
"m+	c #D0DCCE",
"n+	c #E2EBE0",
"o+	c #B4C2B1",
"p+	c #7F8D7C",
"q+	c #B9C8B7",
"r+	c #9BA899",
"s+	c #C3CFC0",
"t+	c #FDFDFD",
"u+	c #7A8777",
"v+	c #C0CEBF",
"w+	c #ACBFA8",
"x+	c #8AA886",
"y+	c #7BAB74",
"z+	c #76AE6C",
"A+	c #79B270",
"B+	c #7CB473",
"C+	c #7BB371",
"D+	c #78B16F",
"E+	c #74AD6A",
"F+	c #79AA71",
"G+	c #88A981",
"H+	c #A1B69D",
"I+	c #A1B19E",
"J+	c #BBCAB8",
"K+	c #839780",
"L+	c #8DA08A",
"M+	c #92A48E",
"N+	c #879A84",
"O+	c #CAD8C7",
"P+	c #6F806B",
"Q+	c #70826D",
"R+	c #F3F7F3",
"S+	c #C0D0BE",
"T+	c #82927F",
"U+	c #C9D6C7",
"V+	c #F3F6F2",
"W+	c #BECDBC",
"X+	c #94A092",
"Y+	c #B9C7B7",
"Z+	c #9DAB9B",
"`+	c #A0AC9E",
" @	c #BBC7B8",
".@	c #ABBFA8",
"+@	c #88A784",
"@@	c #73AD69",
"#@	c #76B06D",
"$@	c #79B26F",
"%@	c #7AB370",
"&@	c #78B26E",
"*@	c #78B16E",
"=@	c #75B06C",
"-@	c #71AC67",
";@	c #77AA6E",
">@	c #85A87F",
",@	c #A0B59D",
"'@	c #A0B09D",
")@	c #BACAB8",
"!@	c #8B9D87",
"~@	c #9EB09A",
"{@	c #90A28D",
"]@	c #CBD7C8",
"^@	c #C5D4C3",
"/@	c #869683",
"(@	c #D3DFD1",
"_@	c #9EAE9C",
":@	c #829180",
"<@	c #F5F8F4",
"[@	c #F4F7F3",
"}@	c #FBFCFA",
"|@	c #859483",
"1@	c #9FAE9C",
"2@	c #95A193",
"3@	c #E8EFE7",
"4@	c #F8FAF7",
"5@	c #80907D",
"6@	c #ABBEA7",
"7@	c #86A782",
"8@	c #77A970",
"9@	c #71AC66",
"0@	c #73AE6A",
"a@	c #76B06C",
"b@	c #77B16D",
"c@	c #74AF6A",
"d@	c #70AB67",
"e@	c #76AA6E",
"f@	c #82A87C",
"g@	c #9FB59B",
"h@	c #A0B39E",
"i@	c #97A995",
"j@	c #C2D2C0",
"k@	c #A1B39E",
"l@	c #C5D5C3",
"m@	c #A9B9A6",
"n@	c #98A796",
"o@	c #8F9F8D",
"p@	c #CBD8C8",
"q@	c #9EB19B",
"r@	c #8DA089",
"s@	c #B4C5B1",
"t@	c #889B85",
"u@	c #8B9C88",
"v@	c #D2DED0",
"w@	c #DEE7DC",
"x@	c #859783",
"y@	c #9FB09C",
"z@	c #98A695",
"A@	c #C5D3C3",
"B@	c #D2DDD0",
"C@	c #82957F",
"D@	c #A9BEA5",
"E@	c #84A77F",
"F@	c #76A96E",
"G@	c #73AE69",
"H@	c #74AF6B",
"I@	c #72AE67",
"J@	c #6FAB65",
"K@	c #73AA69",
"L@	c #7CA776",
"M@	c #9DB699",
"N@	c #A3B7A0",
"O@	c #7C9877",
"P@	c #B3C5B1",
"Q@	c #D6E1D4",
"R@	c #8AA185",
"S@	c #829B7F",
"T@	c #C0D0BD",
"U@	c #F6F8F5",
"V@	c #F9FBF8",
"W@	c #CFDCCD",
"X@	c #90A78D",
"Y@	c #90A78B",
"Z@	c #9AAE97",
"`@	c #DBE5D9",
" #	c #8CA287",
".#	c #8FA58C",
"+#	c #B0C3AD",
"@#	c #BECEBB",
"##	c #8AA085",
"$#	c #9FB49C",
"%#	c #9BAE97",
"&#	c #A6B8A3",
"*#	c #B1C2AE",
"=#	c #8A9F86",
"-#	c #A7BDA3",
";#	c #7EA777",
">#	c #74A96A",
",#	c #6EAB65",
"'#	c #70AD66",
")#	c #71AD67",
"!#	c #70AD65",
"~#	c #6DAB62",
"{#	c #6EAA64",
"]#	c #74A76B",
"^#	c #77A370",
"/#	c #759F6D",
"(#	c #7AA074",
"_#	c #81A47C",
":#	c #80A17A",
"<#	c #7C9E75",
"[#	c #7C9D76",
"}#	c #81A17B",
"|#	c #86A682",
"1#	c #88A682",
"2#	c #83A27E",
"3#	c #7E9E78",
"4#	c #7E9E79",
"5#	c #83A37E",
"6#	c #8AA984",
"7#	c #8BAA86",
"8#	c #84A57F",
"9#	c #7FA07A",
"0#	c #82A27C",
"a#	c #8AA885",
"b#	c #8CA987",
"c#	c #85A47F",
"d#	c #81A07B",
"e#	c #84A37E",
"f#	c #8AA784",
"g#	c #85A37F",
"h#	c #86A381",
"i#	c #84A17F",
"j#	c #82A07D",
"k#	c #809F7A",
"l#	c #7B9F76",
"m#	c #769F70",
"n#	c #78A370",
"o#	c #75A76D",
"p#	c #6EA964",
"q#	c #6FAC64",
"r#	c #6FAD64",
"s#	c #6CAA61",
"t#	c #6CA960",
"u#	c #6EA864",
"v#	c #71A668",
"w#	c #73A56A",
"x#	c #78A670",
"y#	c #7CA774",
"z#	c #7EA776",
"A#	c #7DA675",
"B#	c #80A878",
"C#	c #80A87A",
"D#	c #7FA779",
"E#	c #7EA678",
"F#	c #7EA676",
"G#	c #7FA878",
"H#	c #80A877",
"I#	c #7EA977",
"J#	c #7FA876",
"K#	c #7EA877",
"L#	c #80A978",
"M#	c #80A979",
"N#	c #7FA777",
"O#	c #80A779",
"P#	c #79A572",
"Q#	c #74A56B",
"R#	c #71A568",
"S#	c #6EA763",
"T#	c #6BA960",
"U#	c #6CAA60",
"V#	c #6CAB61",
"W#	c #6CAA62",
"X#	c #6BAA60",
"Y#	c #6AA95F",
"Z#	c #69A95F",
"`#	c #69A85E",
" $	c #6BA761",
".$	c #6DA664",
"+$	c #6FA766",
"@$	c #72A668",
"#$	c #72A769",
"$$	c #73A76B",
"%$	c #73A86A",
"&$	c #74A76C",
"*$	c #73A66C",
"=$	c #73A769",
"-$	c #72A86A",
";$	c #72A669",
">$	c #70A568",
",$	c #69A85F",
"'$	c #67A85C",
")$	c #67A75B",
"!$	c #69A75E",
"~$	c #69A65F",
"{$	c #6AA65F",
"]$	c #69A75F",
"^$	c #64A759",
"/$	c #64A65B",
"($	c #64A55A",
"_$	c #62A458",
":$	c #63A258",
". . . . . . . . . . . . . . . . . . . . . . . . . . . . . . . + + + . . . . . . . . . . . . . . ",
"@ @ @ @ @ @ # # # # # @ @ @ @ @ @ @ @ @ # # $ $ $ % % % % % % % % % % % % % % % $ # # @ @ @ @ @ ",
"% % % % & * = - * ; ; > , , , % , , , , ' ' ) ) ) ) ) ) ! ! ! ! ! ! ! ! ~ ~ ~ { { - * & % % % % ",
"= = = ] ^ / / ( _ _ : : ~ { { { { { ~ : : < [ [ [ } } } } } } | | | | } } 1 2 3 4 5 6 / 7 = = = ",
"^ ^ 6 6 8 9 0 a b c d e [ f f g g g h i j k l m n o p q r s r t u v w x r y z A B C D 8 E F ^ ^ ",
"G G 8 H I J K L M N O P Q R S T T U Q V W X Y Z `  ...+.@.#.$.%.&.*.&.=.-.;.>.,.'.).!.I ~.8 G G ",
"H H ~.{.].^./.(._.:.<.[.}.|.1.2.3.4.5.6.7.8.9.0.a.b.c._.d.e.f._.g._._.h.i.j._._.k.l.m.n.o.p.H H ",
"{.{.o.q.r.s.t.u._.v.&.w.x.+.;.y.z.=.A.B.C.D.E.F.G.H._._.I.J.K.L.M._.N.O.P.Q.N._.R.S.T.U.V.W.{.{.",
"X.q.].Y.Z.`. +.+_.++@+#+$+F.%+&+b.*+=+-+;+>+,+_.'+)+N.!+~+{+]+^+/+_.(+_+{+:+<+_.[+}+|+1+2+3+4+X.",
"3+5+6+7+8+9+0+a+_.b+c+_.d+e+L.f+g+_.h+i+_.j+k+_.l+m+n+o+F.p+N.q+r+_.s+t+u+=+v+_.w+x+y+z+A+r.B+3+",
"r.C+C+D+E+F+G+H+_.I+J+_.K+L+M+N+O+=+P+Q+R+S+T+R+U+V+W+X+_.Y+_.Z+Z+_.`+_. @_.r+_..@+@F+@@#@$@%@r.",
"$@&@*@=@-@;@>@,@_.'@)@_.K+!@~@{@]@N.V+V+V+^@/@(@=+_._@:@<@[@}@|@1@_.2@3@4@[@5@_.6@7@8@9@0@a@b@$@",
"b@b@=@c@d@e@f@g@_.h@i@_.j@k@=+l@m@t+n@o@p@q@r@s@_.F.t@u@v@_.w@x@y@_.z@A@_.B@C@_.D@E@F@d@G@H@b@b@",
"c@c@G@I@J@K@L@M@_.N@O@P@V+}@Q@R@S@T@U@V@W@X@Y@Z@_.`@ #.#+#_.@###$#_.%#&#_.*#=#_.-#;#>#,#'#I@c@c@",
")#)#'#!#~#{#]#^#/#(#_#:#<#[#}#|#1#2#3#4#5#6#7#8#9#0#a#b#c#d#e#f#1#g#h#i#j#k#l#m#n#o#p#~#q#r#)#)#",
"q#q#q#~#s#t#u#v#w#x#y#z#z#A#;#B#C#D#E#F#G#H#I#J#z#K#L#M#G#N#G#M#B#G#O#O#D#A#P#Q#R#S#T#U#V#q#q#q#",
"W#W#W#X#Y#Z#`# $.$+$@$#$$$$$$$%$&$*$*$*$=$-$-$#$#$#$#$-$#$#$=$=$=$=$$$$$$$;$>$.$ $`#`#Y#Y#W#W#W#",
",$,$,$,$'$'$)$)$!$!$~$~${${$~${${${${${${${$]$]${${${${${${${${${$~${${$~$~$!$!$)$)$'$'$,$,$,$,$",
")$)$)$)$)$)$^$^$^$^$/$/$/$/$/$/$/$/$/$/$/$/$/$/$/$/$/$/$/$/$/$/$/$/$/$/$/$/$^$^$^$^$)$)$)$)$)$)$",
"($($($($($($($($($($($($_$_$_$($($($_$($($($($($($($($($($($($($($($($($($($($($($($($($($($($($",
":$:$:$:$:$:$:$:$:$:$:$:$:$:$:$:$:$:$:$:$:$:$:$:$:$:$:$:$:$:$:$:$:$:$:$:$:$:$:$:$:$:$:$:$:$:$:$:$"};
