/* XPM */
static char * taskbuttonactive_xpm[] = {
"1 21 22 1",
" 	c None",
".	c #78AB6F",
"+	c #78AC6F",
"@	c #79AD70",
"#	c #7AAE72",
"$	c #7CAF73",
"%	c #7EAF76",
"&	c #7FB077",
"*	c #80B179",
"=	c #82B27A",
"-	c #83B27B",
";	c #84B37C",
">	c #86B57E",
",	c #87B67F",
"'	c #88B780",
")	c #88B981",
"!	c #8ABB81",
"~	c #8BBC82",
"{	c #8BBD83",
"]	c #8CC084",
"^	c #8FC186",
"/	c #86BB7D",
".",
"+",
"@",
"#",
"$",
"%",
"&",
"*",
"=",
"-",
";",
">",
",",
"'",
")",
"!",
"~",
"{",
"]",
"^",
"/"};
